<?xml version="1.0" encoding="utf-8"?>
<!-- Generator: Adobe Illustrator 23.0.2, SVG Export Plug-In . SVG Version: 6.00 Build 0)  -->
<svg version="1.1" id="Layer_5_-_semi_bg" xmlns="http://www.w3.org/2000/svg" xmlns:xlink="http://www.w3.org/1999/xlink" x="0px"
	 y="0px" viewBox="0 0 2796.94 3120.78" style="enable-background:new 0 0 2796.94 3120.78;" xml:space="preserve">
<style type="text/css">
	.st0{fill:#456E72;}
	.st1{fill:#3C6466;}
</style>
<g>
	<path class="st0" d="M3.2,1851.16c33.32,22.24,64.18,12.53,100.65,18.55c37.7,6.22,73.23,3.9,111.44,9.05
		c42.48,5.73,78.3,23.05,117.22,37.05c60.66,21.83,57.39-44.82,104.27-38.57c24.91,3.32,31.11,27.28,60.46,25.91
		c20.32-0.95,34.31-6.64,55.71-2.8c21.08,3.78,31.83,13.07,50.24,22.17c17.84,8.83,35.41,8.04,53.05,15.41
		c23.56,9.84,22.97,28.67,41.18,42.08c17.76,13.08,39.32,7.19,58.06,14.04c23.79,8.69,23.46,24.65,42.5,37.76
		c21.54,14.83,27.3,13.53,42.67,35.14c27.65,38.88,61.81,26.41,96.38,48.16c17.14,10.79,30.61,32.52,48.82,44.49
		c20.82,13.69,41.85,20.86,66.12,29.71c36.17,13.2,72.54,26.4,111.3,31.17c25.46,3.13,50.81-4.66,76.32-0.95
		c19.88,2.89,38.79,9.94,59.48,9.47c50.51-1.14,89.9-9.13,138.31-22.13c26.87-7.22,49.15-10.12,72.39-21.17
		c25.54-12.15,52.58-11.98,78.09-22.9c22.77-9.75,47.85-29.09,69.57-41.02c30.51-16.76,45.6-47.53,81.44-56.42
		c35.39-8.78,68.81-7.14,104.45-19.25c28.03-9.52,57.02-13.73,84.9-23c34.03-11.32,57.73-34.75,89.13-48.64
		c19.2-8.49,40.96-9.09,61.27-12.26c35.91-5.6,61.39-20.36,95.21-35.82c36.39-16.63,53.69-5.77,92.81,0.08
		c45.7,6.83,88.22-8.78,132.91-5.34c52.34,4.03,98.47,9.17,149.88-5.86c26.13-7.64,65.07-11.52,87.65-24.62
		c13.25-7.69,21.5-26.61,36.61-31.23c10.14-3.1,20.73,5.71,31.15,2.72c16.4-4.71,15.86-18.62,29.26-27.61
		c10.39-6.97,19.39-5.16,30.95-7.94c13.48-3.24,36.18-7.49,35.23-11.02v1305.21H0L3.2,1851.16z"/>
</g>
<g>
	<path class="st1" d="M5.18,1799.4c16.93-11.53,39.85-9.6,59.06-4.26c26.69,7.42,43.01,22.25,69.65,25.55
		c33.78,4.18,50.3,13.13,78.6,29.22c32.76,18.62,51.4-1.46,87.05,0.77c32.84,2.06,62.89,43.69,98.09,31.6
		c17.68-6.08,18.71-24.01,33.23-34.14c13.75-9.58,30.2-8.04,45.48-5.55c23.72,3.87,45.29,11.25,63.44,29.25
		c28.61,28.37,38.15,42.79,74.59,53.96c32.94,10.09,36.33,14.2,47.46,46.55c7.71,22.43,24.51,41.2,29.21,64.73
		c4.3,21.5-5.92,46.02,3.22,66.36c12.28,27.32,49.89,33.9,70.14,53.43c19.06,18.39,8.77,25.15,16.31,47.96
		c6.25,18.89,23.82,26.43,38.32,36.49c31.42,21.8,24.97,25.24,22.73,61.63c-2.28,37.06,2.73,66.19,29.62,89.12
		c34.16,29.14,72.29,83.46,114.18,95.78c69.92,20.56,147.36,4.09,218.22-2.13c49.62-4.36,92.33-11.9,138.67-31.55
		c35.86-15.21,61.4-14.5,99.2-14.22c25.58,0.19,61.25-4.49,74.17-33.06c17.94-39.66-20.37-88.55,25.76-119.59
		c12.61-8.49,29.35-10.43,42.26-18.56c20.01-12.61,34.09-33.16,53.78-46.74c19.62-13.52,42.68-27.54,65.86-32.4
		c22.58-4.73,44.64-2.02,63.75-19.28c14.43-13.02,20.32-33.89,33.95-48.01c13.63-14.11,30.9-18.02,43.9-29.43
		c17.15-15.04,14.26-20.28,37.39-27.18c31.32-9.33,62.57-19.19,94.54-24.32c34.44-5.52,90.15-3.43,114.47-35.32
		c9.69-12.71,11.65-27.69,21.91-40.3c9.88-12.15,24.34-19.5,36.13-29.13c11.39-9.3,30.01-20.11,38.11-31.84
		c10.34-14.98,7.32-36.32,22.43-48.38c25.62-20.47,59.83,9.46,84.48,11.59c20.27,1.75,35.28,0.7,56.14,7.95
		c22.24,7.74,22.77,8.41,42.96,0.53c22.07-8.61,39.52-21.43,64.7-15.67c18.76,4.29,38.08,18.86,60.35,19.33
		c39.36,0.83,99.68-5.44,132.62-31.96c13.16-10.6,22.15-28.99,36.82-37.29c15.58-8.82,36.37-2.13,52.24-7.9
		c15.98-5.81,50.83-22.01,61.87-25.78l-12.77,1343.56H0L5.18,1799.4z"/>
</g>
</svg>
