<?xml version="1.0" encoding="utf-8"?>
<!-- Generator: Adobe Illustrator 23.0.2, SVG Export Plug-In . SVG Version: 6.00 Build 0)  -->
<svg version="1.1" id="Layer_6_-__background_Sea" xmlns="http://www.w3.org/2000/svg" xmlns:xlink="http://www.w3.org/1999/xlink"
	 x="0px" y="0px" viewBox="0 0 2796.94 3120.78" style="enable-background:new 0 0 2796.94 3120.78;" xml:space="preserve">
<style type="text/css">
	.st0{fill:#689392;}
	.st1{fill:#5B8A8E;}
	.st2{fill:#548287;}
	.st3{fill:#507B82;}
	.st4{fill:#719EA0;}
	.st5{fill:#7FAFAF;}
	.st6{fill:#8FC1BF;}
	.st7{fill:#AAD5D1;}
</style>
<rect class="st0" width="2796.94" height="3120.78"/>
<g>
	<path class="st1" d="M-2.51,1377.27c47.47-43.8,55.9,40.02,71.98,60.66c7.39,9.49,41.94,35.82,51.13,39.21
		c18.25,6.73,42.27-17.02,48.39,22.98c36.16-15.02,39.92,23.18,58.64,44.4c13.9,15.75,23.68,14.81,43.18,25.88
		c24.72,14.03,37.58,43.74,59.35,61.87c19.01,15.83,50.21,40.74,71.62,52.39c16.08,8.75,32.63,7.12,46.79,18.87
		c9.79,8.13,13.18,27.43,26.42,35.93c27.01,17.33,59.03-2.61,85.7,11.54c15.6,8.27,20.09,25.97,35.75,32.39
		c17.9,7.34,47.55-0.92,66.94,0.16c38.39,2.13,76.53,11.21,114.57,18.57c49.83,9.63,95.7,1.42,146.11,5.87
		c90.09,7.96,179.43,3.5,270.06,7.15c80.68,3.25,141.65-66.17,219.64-63.9c50.06,1.46,94.71,13.2,146.13,8.14
		c72.17-7.11,143.63,0.41,215.76-3.83c44.67-2.63,81.65-13.4,120.71-38.58c39.86-25.69,54.69-46.43,96.15-44.07
		c56.38,3.21,83.08-24.01,128.64-64.57c55.79-49.67,126.87-64.25,192.07-90.47c54.03-21.73,107.59-49.42,164.14-61.43
		c36.68-7.79,71.49-5.01,104.53-25.19c24.52-14.97,44.13-41.09,67.68-57.99c21.11-15.15,53.56-20.84,71.67-40.04
		c16.49-17.49,22.75-49.67,34.13-72.85c13.05-26.59,26.29-44.02,45.03-66.04v1926.5H3.39L-2.51,1377.27z"/>
</g>
<g>
	<path class="st2" d="M0.96,1742.74c58.06,15.09,94.8,62.52,136.74,103.55c67.81,66.36,158.77,74.75,247.63,86.36
		c114.04,14.89,227.55,24.43,341.31,42.72c94.81,15.24,180.06,32.56,276.67,25.31c151.38-11.36,299.42,6.32,451.18-0.67
		c188.9-8.7,383.21,13.41,568.88-35.03c109.37-28.54,213.36-80.69,322.83-106.08c45.51-10.55,85.88-0.26,130.5,0.16
		c58.23,0.56,54.51-43.15,90.45-80.48c23.28-24.19,45.88-11.14,75.26-24.77c43.47-20.17,104.89-127.53,159.86-105.56v1472.54H3.39
		L0.96,1742.74z"/>
</g>
<ellipse class="st3" cx="1377.69" cy="2690.98" rx="1275.67" ry="557.46"/>
<path class="st4" d="M0,1186.17c0,0,676.18,261.03,1382.57,282.38c706.39,21.34,1414.38-222.17,1414.38-222.17V0.48H0L0,1186.17z"/>
<path class="st5" d="M0,756.91c0,0,703.88,463.48,1410.27,478.31s1386.67-437.52,1386.67-437.52V0H0L0,756.91z"/>
<path class="st6" d="M0.96,324.65V0h2795.98v313.48c0,0-731.36,670.63-1386.67,674.36C754.96,991.56,0.96,324.65,0.96,324.65z"/>
<path class="st7" d="M219.11,0.48h429.37H2130.5h470.92c0,0-518.54,789.99-1173.85,793.82S219.11,0.48,219.11,0.48z"/>
<path class="st7" d="M2702.47-18.78c-161.6,81.2-216.8,273-337.08,396.74c-143.16,147.29-359.59,167.4-545.66,227.05
	c-104.66,33.55-201.72,85.38-303.63,125.86c-50.14,19.92-101.7,36.9-154.93,46.31c-58.81,10.4-118.83,10.26-177.82,1.28
	c-116.3-17.7-225.43-65.98-330.26-117.42c-100.76-49.45-203.46-98.78-295.5-163.52c-47.06-33.1-90.1-70.86-128.64-113.59
	c-38.16-42.31-72.48-87.85-108.77-131.73C247.73,164.59,161.98,92.96,69.95,26.79C46.88,10.2,23.56-6.04,0.25-22.29
	c-2.67-1.86-5.17,2.5-2.54,4.34c96.46,67.85,194.03,136.1,274.57,223.03c77.19,83.31,138.69,180.18,226.3,253.72
	c85.89,72.1,186.38,123.59,285.99,173.76c102.94,51.84,207.21,104.17,319.04,134.12c54.85,14.69,111.46,23.68,168.33,23.48
	c55.12-0.19,109.57-9.73,162.33-25.38c106.39-31.56,204.36-85.01,306.99-126.26c96.7-38.86,198.29-61.31,298.44-89.11
	c93.7-26.02,188.2-57.78,267.63-115.5c73.95-53.73,125.17-128.64,173.79-204.68c47.53-74.34,94.81-152.63,164.57-208.55
	c18.05-14.47,37.22-27.14,57.76-37.78C2704.59-17.67,2703.59-19.35,2702.47-18.78L2702.47-18.78z"/>
<path class="st7" d="M51.23-26.17c32.44,9.31,63.03,23.02,91.4,41.34c28.28,18.26,54.03,40.19,77.74,64.03
	c50.83,51.1,90.88,111.21,131.04,170.7c40.84,60.51,82.67,120.78,135.63,171.5c48.43,46.38,104.65,84.64,165.16,113.45
	c60.29,28.71,125.11,48.12,191.39,56.44c8.27,1.04,16.55,1.88,24.86,2.56c3.37,0.27,3.34-4.96,0-5.25
	c-67.67-5.89-134.11-22.45-196.46-49.47c-61.99-26.87-119.69-63.64-169.97-108.8c-54.85-49.26-97.97-108.74-139.16-169.46
	C322.86,201.9,283.9,141.75,234.99,89.61C190.47,42.16,137.27,0.83,75.09-20.31c-7.77-2.64-15.62-4.88-23.62-6.73
	C50.9-27.17,50.66-26.33,51.23-26.17L51.23-26.17z"/>
<g>
	<g>
		<path class="st7" d="M964.21,661.07c2.55,0,2.56-3.97,0-3.97C961.65,657.1,961.65,661.07,964.21,661.07L964.21,661.07z"/>
	</g>
</g>
<path class="st6" d="M1293.37,982.19c106.77,8.98,215.44,3.8,321.57-9.94c105.26-13.62,209.26-37.03,310.15-70
	c99.66-32.57,195.29-75.5,288.03-124.22c91.76-48.21,180.77-101.36,270.63-152.98c90-51.69,181.01-102.06,275.93-144.22
	c12.49-5.55,25.05-10.91,37.68-16.14c4.29-1.77,2.41-8.85-1.94-7.05c-95.63,39.59-187.33,87.6-277.33,138.54
	c-89.78,50.82-178.18,104.07-268.82,153.37c-91.91,49.99-186.23,95.45-284.82,130.77c-100.37,35.95-204.09,61.99-309.34,78.82
	c-106.18,16.98-213.98,24.06-321.47,22.18c-13.42-0.23-26.85-0.59-40.27-0.89C1292.23,980.41,1292.26,982.1,1293.37,982.19
	L1293.37,982.19z"/>
<path class="st5" d="M-23.07,276.31C8,287.44,37.28,301.7,65.33,319.07c27.99,17.33,54.11,37.37,79.29,58.52
	c51.24,43.03,98.04,90.99,147.74,135.74c55.83,50.28,116.77,93.63,180.7,132.97C541.96,688.7,612.81,727.95,683,768.14
	c73.38,42.03,146.61,84.32,220.17,126.03c9.27,5.26,18.54,10.5,27.86,15.68c4.96,2.75,9.34-4.72,4.45-7.61
	c-73.07-43.2-147.16-84.72-220.8-126.94c-71.13-40.78-142.78-80.77-213.06-123c-65.82-39.56-129.6-82.32-187.47-132.96
	c-50.57-44.25-97.47-92.49-148.16-136.59C116.83,339.98,63.37,301.35,2.31,277.51c-7.73-3.02-15.54-5.7-23.49-8.07
	C-25.62,268.11-27.34,274.78-23.07,276.31L-23.07,276.31z"/>
<path class="st4" d="M2810.12,753.03c-68.81,47.95-138.76,94.14-210.67,137.34c-72.19,43.36-146.07,83.87-221.38,121.56
	c-75.45,37.76-152.37,72.6-230.53,104.39c-78,31.72-157.23,60.43-237.45,86.01c-79.9,25.48-160.78,47.85-242.42,67.03
	c-10.04,2.36-20.09,4.67-30.14,6.96c-2.53,0.58-1.46,4.45,1.07,3.89c82.18-18.29,163.61-40.15,244.05-64.98
	c80.46-24.84,159.94-52.82,238.23-83.83c78.13-30.95,155.07-64.9,230.59-101.78c75.36-36.8,149.26-76.57,221.52-119.12
	c72.87-42.92,144-88.72,213.14-137.42c8.44-5.94,16.79-12,25.13-18.08C2812.41,754.13,2811.32,752.2,2810.12,753.03L2810.12,753.03z
	"/>
<path class="st4" d="M758.75,1365.97c106.77,34.04,217.54,57.02,328,75.37c109.59,18.2,220.17,30.48,331.08,36.84
	c112.06,6.43,224.47,6.78,336.56,0.95c108.6-5.65,217.63-15.86,324.69-35.37c102-18.59,203.06-47.51,294.5-97.28
	c11.47-6.24,22.69-12.84,33.72-19.83c4.97-3.15,0.06-10.69-4.97-7.66c-89.64,54.04-188.39,87.63-290.54,108.87
	c-105.89,22.02-214.37,32.98-322.21,39.87c-110.46,7.06-221.3,8.17-331.88,3.36c-111.22-4.84-222.17-15.72-332.21-32.54
	c-109.52-16.75-217.65-40.07-325.12-66.86c-13.54-3.38-27.14-6.51-40.7-9.8C757.01,1361.24,756.22,1365.17,758.75,1365.97
	L758.75,1365.97z"/>
</svg>
