<?xml version="1.0" encoding="utf-8"?>
<!-- Generator: Adobe Illustrator 23.0.1, SVG Export Plug-In . SVG Version: 6.00 Build 0)  -->
<svg version="1.1" id="Layer_1" xmlns="http://www.w3.org/2000/svg" xmlns:xlink="http://www.w3.org/1999/xlink" x="0px" y="0px"
	 viewBox="0 0 2796.94 3120.78" style="enable-background:new 0 0 2796.94 3120.78;" xml:space="preserve">
<style type="text/css">
	.st0{fill:#D1E1E8;}
	.st1{fill:#0F6266;}
	.st2{fill:#084F56;}
</style>
<g id="Layer_4_-_Swimmer">
	<path class="st0" d="M1433.52,1652.03c0,0-0.52,2.23,1.24,5.99s11.76,15.66,10.08,20.94c-1.68,5.28,1.19,5.48,6.07,2.76
		s6.34-13.41-4.55-21.66c-10.89-8.24-10.33-14.77-10.33-14.77L1433.52,1652.03z"/>
	<path class="st0" d="M1459.05,1685.23c4.02,0,7.04,0.36,8.69-3.56c1.79-4.27,1.86-18.92-7.55-29.98c-8.18-9.61-5.79-4.34-5.01,1.24
		C1457.65,1670.42,1452.61,1685.23,1459.05,1685.23z"/>
	<path class="st1" d="M1433.52,1653.41c0,0-0.52,2.23,1.24,5.99s10.33,15.45,8.65,20.73c-1.68,5.28,1.68,4.96,6.56,2.24
		s7.28-13.69-3.6-21.93s-10.33-13.77-10.33-13.77L1433.52,1653.41z"/>
	<path class="st1" d="M1459.05,1686.61c4.02,0,7.94-0.75,8.69-4.94s1.86-17.55-7.55-28.6c-8.18-9.61-5.79-4.34-5.01,1.24
		C1457.65,1671.8,1452.61,1686.61,1459.05,1686.61z"/>
	<path class="st0" d="M1412.77,1529.14c0,0-2.78-5.74-3.12-10.02c-0.35-4.29,0.97-7.74,6.22-8.71s7.48,1.21,8.63,4.43
		c1.15,3.22,9.15,12.27,11.71,22.36s-0.2,8.63,1.34,16.03c1.22,5.86,4.94,9.44,4.94,9.44s-5.55-0.66-6.5-7.39
		c0,0,0.2,5.71,5.04,8.14c0,0-2.28,3.76-6.01,2.37C1431.29,1564.41,1412.77,1529.14,1412.77,1529.14z"/>
	<path class="st1" d="M1412.77,1530.1c0,0-2.78-5.74-3.12-10.02s0.97-7.74,6.22-8.71s7.48,1.21,8.63,4.43
		c1.15,3.22,8.59,12.58,11.14,22.67c2.56,10.1,0.26,8.65,1.8,16.04c1.22,5.86,5.05,8.16,5.05,8.16s-5.55,0.29-6.5-6.43
		c0,0,0.2,5.71,5.04,8.14c0,0-2.28,3.76-6.01,2.38C1431.29,1565.36,1412.77,1530.1,1412.77,1530.1z"/>
	<path class="st2" d="M1419.76,1483.35c1.29,1.84,9.8,11.72,12.68,14.69c2.88,2.98,1.54,3.27,1.82,6.34s0.86,13.83,0.19,22.47
		s1.54,12.1,1.54,17s-1.63,16.62,0,21.42s9.12,11.81,11.43,21.99s1.44,20.94,1.92,24.11c0.48,3.17,4.99,6.15,5.95,12.68
		s0.58,14.12,1.54,17.19s3.07,12.77,4.99,15.46s3.65,5.95,2.21,7.97c-1.44,2.02-3.36,2.98-4.8,2.4c-1.44-0.58-2.69-7.88-3.17-11.43
		c-0.48-3.55-4.61-11.24-6.92-17.58s-3.46-17.29-5.86-19.5s-9.89-24.01-11.43-23.53s1.34,18.44,0.19,23.53
		c-1.15,5.09-1.25,8.26-0.1,11.81s2.98,10.37,4.42,16.71c1.44,6.34,2.59,7.78,4.51,9.12s5.95,6.92,5.09,8.74s-4.61,1.25-6.15-0.86
		s-4.42-4.71-5.76-9.12s-6.43-13.35-9.12-20.07s-1.15-12.87-3.75-18.92s-8.26-19.21-8.07-30.16c0.19-10.95,2.59-13.35,1.73-19.3
		c-0.86-5.95-1.67-15.91-3.11-15.91s-0.73,6.63-1.88,10.67s-5.59,14.26-4.67,17.41c0.92,3.16-0.68,5.74-0.97,6.53
		c-0.29,0.8-1.19-0.75-0.75-1.69s0-1.96-0.73-1.67s-2.51,3.37-2.43,5.62s-0.98,2.58-1.05,2.36c-0.07-0.22-0.22-0.58-0.22-0.58
		s-0.45,1.29-0.96,1.15c-0.51-0.15,0.18-2.57,0.11-3.66c-0.07-1.09,0.31-2.85,1.55-5.75c1.23-2.9,2.06-4.22,2.35-8.35
		c0.29-4.13,1.55-11.4,2.68-17.41c1.02-5.37,1.8-14.87,5.44-16.97c6.65-3.84,3.19-6.24,1.74-11.46s-2.98-12.27,3.28-14.45
		c5.79-2.01,7.88,1.06,8.84,2.59c0.96,1.54,0.86,3.75,2.02,4.51c0,0-0.29-6.05,0.19-10.08s1.06-6.24-0.58-8.07
		c-1.63-1.82-7.59-11.81-9.12-14.6c-1.54-2.79-2.21-2.98-3.84-2.98s-5.09-0.77-5.57-1.25s0.97-1.14,2.4-0.67
		c1.33,0.43,2.86-0.14,2.59-0.77c-0.9-2.1-2.03-3.6-2.7-4.73c-0.67-1.13-2.96-3.59-2.29-4.29s1.42,0.41,1.42,0.41
		s-1.33-1.8-0.61-2.26s1.71,1.01,2.41,1.77c0.7,0.75,2.23,3.19,2.32,3.1s-2.78-3.94-3.01-4.29c-0.23-0.35-0.26-0.93,0.26-0.87
		s1.83,1.3,2.46,2.14c0,0-0.2-0.67,0.29-0.7c0.49-0.03,1.36,0.84,2.06,1.97c0.7,1.13,2.43,3.48,3.01,5.25
		C1418.37,1480.31,1418.86,1482.07,1419.76,1483.35z"/>
	<path class="st1" d="M1426.1,1519.46c0,0,0.94,7.9-0.17,11.14c-1.12,3.25-3.3,3.35-3.3,3.35s-1.22-3.57,1.12-5.38
		s1.33-10.91,1.33-10.91L1426.1,1519.46z"/>
</g>
</svg>
