<?xml version="1.0" encoding="utf-8"?>
<!-- Generator: Adobe Illustrator 23.0.2, SVG Export Plug-In . SVG Version: 6.00 Build 0)  -->
<svg version="1.1" id="Layer_3_-_Midground" xmlns="http://www.w3.org/2000/svg" xmlns:xlink="http://www.w3.org/1999/xlink"
	 x="0px" y="0px" viewBox="0 0 2796.94 3120.78" style="enable-background:new 0 0 2796.94 3120.78;" xml:space="preserve">
<style type="text/css">
	.st0{fill:#AEC1C3;}
	.st1{fill:#3E4E51;}
	.st2{fill:#334042;}
	.st3{fill:#596D72;}
	.st4{fill:#456D59;}
	.st5{fill:#4E7A64;}
	.st6{fill:#385B4A;}
	.st7{fill:#8E6A68;}
	.st8{fill:#9B7575;}
	.st9{opacity:0.14;fill:#B4D3D0;stroke:#EEF4F4;stroke-miterlimit:10;}
</style>
<polygon class="st0" points="1754.24,2218.19 1850.56,1924.89 1854.48,1933.85 1765.12,2225.26 1424.88,2268.12 "/>
<path class="st1" d="M0,0v3120.78h2796.94V0H0z M1763.3,2223.2l-354.09,47l-252.25-45.43l-25.07-39.17l-100.27-64.24l-175.48-444.97
	l73.64-335.29l98.71-59.54l256.95-106.54l83.04-170.77l89.3-57.97l43.87-125.34l72.07,239.72l95.57,142.58l37.61,12.53l61.1,275.76
	l62.67,147.27l20.37,292.98L1763.3,2223.2z"/>
<polygon class="st2" points="990.1,2133.73 970.81,2139.49 963.14,2213.65 1031.62,2257.38 1126.42,2270.2 1114.37,2242.58 
	1054.48,2242.58 980.03,2195.64 "/>
<polygon class="st3" points="1031.62,2121.36 1131.89,2185.6 1138.65,2242.58 1031.62,2181.97 1010.78,2194.02 1114.37,2242.58 
	1054.48,2242.58 980.03,2195.64 990.1,2133.73 "/>
<polygon class="st3" points="1706.9,1215.76 1768,1491.52 1768,1434.92 1804.53,1395.28 "/>
<polygon class="st3" points="1669.29,1203.23 1669.29,1171.5 1692,1153.6 1588.43,1053.86 1501.65,820.94 1573.72,1060.66 "/>
<polygon class="st3" points="1830.67,1638.79 1869.74,1703.45 1869.74,1878.63 1879.97,1718.79 1923.45,1840.27 1883.81,1914.43 
	1851.04,1931.78 "/>
<polygon class="st3" points="1763.3,2223.2 1851.04,1931.78 1883.81,1914.43 2005.29,1734.14 2038.53,1965.58 1862.07,2373.49 
	1830.67,2281.42 1900.92,2070.44 1892.76,2020.57 1830.67,2263.52 "/>
<polygon class="st3" points="1031.62,2121.36 856.14,1676.39 793.07,1734.14 912.34,2149.72 912.34,2167.62 770.05,1698.33 
	672.87,1868.4 880.02,2309.55 963.14,2213.65 970.81,2139.49 "/>
<polygon class="st3" points="1763.3,2223.2 1409.21,2270.2 1156.96,2224.77 1363.63,2278.19 1399.24,2326.75 1376.58,2354.26 
	1156.96,2363.97 1054.48,2436.81 1488.26,2401.2 1561.1,2309.55 1804.53,2283.05 1830.67,2263.52 "/>
<path class="st4" d="M1064.79,2199.86c-0.24-3-0.49-6.01-0.77-9.04c-0.82-0.1-1.61-0.54-2.11-1.43c-0.17-0.3-0.34-0.59-0.53-0.88
	c-7.38-2.21-23.85-8.47-17.43-15.13c3.59-3.74,9.43,0.01,12.74,2.3c2.46,1.7,4.6,3.71,6.45,5.98c-1.76-17.93-3.89-36.3-5.21-54.7
	c-0.54,0.01-1.08-0.17-1.54-0.64c-6.25-2.17-11.74-5.71-16.49-10.37c-1.21-1.18-0.53-3.7,1.02-4.23c7-2.36,12.37,1.48,16.43,6.56
	c-0.4-6.9-0.65-13.81-0.72-20.68c-0.34-0.09-0.68-0.25-1.02-0.51c-4.73-3.66-9.93-7.07-14.32-11.15c-2.55-2.36-3.62-7.16,0.23-8.96
	c3.98-1.87,8.04,2.91,10.53,5.4c1.69,1.7,3.24,3.51,4.64,5.43c0.1-4.66,0.29-9.3,0.63-13.91c-7.19-4.9-11.02-13.07-10.58-21.86
	c0.11-2.19,2.76-2.92,4.36-1.87c3.46,2.26,5.9,5.26,7.77,8.64c0.42-3.01,0.89-6.02,1.46-9.01c-1.01-0.17-1.91-0.88-2.05-2.22
	c-0.01-0.18-0.04-0.35-0.07-0.52c-4.95-3.99-8.73-9.15-11.05-15.15c-0.81-2.09,0.74-3.86,2.84-3.83
	c7.21,0.07,10.71,5.68,12.42,11.82c0.2-0.88,0.43-1.76,0.66-2.64c-0.05-0.05-0.08-0.1-0.12-0.16c-5.15-7.73-8.35-16.16-9.46-25.4
	c-0.26-2.21,2.46-4.22,4.35-2.6c4.51,3.88,7.76,8.71,9.53,14.06c1.92-5.42,4.16-10.76,6.75-16.01c-3.37-7.01-4.94-14.37-5-22.16
	c-0.01-2.1,2.88-3.03,4.36-1.88c3.94,3.1,6.47,7.21,7.45,11.74c1.02-1.64,2.07-3.28,3.19-4.9c2.2-8.83,8.1-16.12,16.46-20.02
	c1.73-0.8,4.34,0.78,3.83,2.85c-2.14,8.63-7.47,15.63-15.3,19.82c-0.22,0.63-0.61,1.1-1.1,1.41c0,0-0.01,0-0.01,0.01
	c-1.77,2.64-3.42,5.33-4.96,8.06c6.67-1.1,13.51,0.59,18.98,4.98c2.13,1.71,0.79,5.19-1.97,4.93c-6.73-0.64-13.45-1.29-20.18-1.93
	c-0.34-0.04-0.64-0.12-0.9-0.23c-2.23,4.56-4.19,9.23-5.91,13.99c4.88-4.22,11.27-6.56,18.09-6.44c2.63,0.04,2.83,3.4,1.39,4.86
	c-6.2,6.25-13.46,11-21.64,14.23c-0.05,0.02-0.11,0.04-0.16,0.05c-0.46,0.89-1.24,1.29-2.05,1.35c-0.55,2.06-1.05,4.13-1.5,6.21
	c5.56-4.1,13.14-4.42,19.47,0c1.63,1.14,1.41,3.99-0.52,4.71c-6.25,2.33-12.53,3.48-19.17,3.6c-0.01,0.01-0.02,0.01-0.02,0.02
	c-0.4,0.77-1,1.22-1.67,1.42c-0.69,4.03-1.25,8.06-1.7,12.09c4.44-3.46,9.49-5.76,15.3-6.89c1.89-0.38,3.93,1.9,2.95,3.73
	c-3.94,7.29-10.78,12.01-19.11,12.44c-0.52,6.96-0.74,13.94-0.73,20.91c3.55-6.09,9.38-10.36,16.42-12.14
	c1.98-0.49,3.81,1.96,2.95,3.74c-3.2,6.6-8.85,11.41-15.75,13.36c-0.15,0.33-0.29,0.66-0.42,1c-0.57,1.49-1.91,1.89-3.11,1.58
	c0.03,1.37,0.06,2.74,0.11,4.11c4.76-3.92,11.43-5.17,17.44-2.52c1.78,0.78,2.44,3.44,0.7,4.69c-5.33,3.77-11.29,6.12-17.75,6.83
	c0.56,10.42,1.46,20.84,2.49,31.26c1.22-7.42,5-14.07,10.75-19.09c1.88-1.64,4.61,0.2,4.44,2.47c-0.65,8.29-4.29,15.85-10.21,21.55
	c-0.23,1.04-1.03,1.6-1.92,1.75c-0.01,0-0.01,0.01-0.02,0.01c-0.77,0.64-1.58,0.76-2.3,0.54c0.43,4.19,0.87,8.39,1.3,12.57
	c3.7-5.24,9.34-8.87,15.85-10.12c2.17-0.42,3.56,1.86,2.95,3.73c-2.61,7.98-8.81,14.29-16.77,17c-0.32,0.1-0.62,0.16-0.91,0.16
	c0.22,2.21,0.43,4.42,0.65,6.62c6.07-2.94,12.62-3.96,19.31-3.03c1.9,0.27,3.28,2.75,1.87,4.36c-5.18,5.9-13.16,8.2-20.53,5.71
	c0.86,9.75,1.55,19.5,1.87,29.24c4.24-4.99,9.04-9.38,14.43-13.12c1.73-1.21,5.06-0.06,4.44,2.47c-2.29,9.25-9.36,16.27-18.68,18.15
	c0.07,4.98,0.04,9.96-0.14,14.95c2.68-5.23,6.79-9.39,12.06-12.48c2.19-1.29,4.39,1.5,3.65,3.53c-2.43,6.68-6.74,11.98-12.57,15.71
	c-0.02,0.04-0.02,0.08-0.04,0.12c-0.26,0.81-0.98,1.38-1.8,1.6c-0.5,0.36-1.12,0.58-1.76,0.57c-0.39,5.94-1,11.87-1.86,17.81
	c-0.5,3.49-5.94,2.83-5.44-0.66c0.97-6.69,1.62-13.39,2.01-20.1c-7.48-3.47-18.24-9.61-14.3-15.94c1.94-3.13,5.68-2.36,8.13-0.37
	c2.33,1.9,4.49,4.19,6.58,6.57c0.04-1.27,0.07-2.54,0.07-3.81c-1.1,0.21-2.28-0.2-2.86-1.54c-0.07-0.15-0.13-0.3-0.2-0.45
	c-4.73-3.28-9.88-6.4-14.15-10.19c-2.79-2.46-2.85-6.47,0.59-8.43c3.76-2.13,7.32,0.74,9.88,3.35c2.65,2.71,4.9,5.79,6.74,9.1
	C1066.05,2218.87,1065.54,2209.35,1064.79,2199.86z"/>
<path class="st5" d="M1042.93,2233.21c4.07-0.83,8.65,4.46,10.84,7.18c1.25,1.56,2.35,3.21,3.26,4.94
	c0.42-3.98,0.72-7.98,0.93-11.97c-0.33-0.08-0.66-0.25-1-0.5c-7.34-5.76-12.2-13.52-14-22.7c-0.52-2.66,2.93-4.4,4.74-2.36
	c4.78,5.36,8.24,11.41,10.52,18.16c0.12-5.18,0.08-10.36-0.1-15.54c-0.11-0.06-0.22-0.14-0.32-0.21c-5.52-4.25-10.28-9.11-14.3-14.8
	c-1.46-2.07,0.13-5.47,2.94-4.42c4.22,1.58,7.94,3.94,10.98,7c-0.14-1.8-0.29-3.59-0.44-5.38c-0.06-0.56-0.1-1.11-0.17-1.67
	c-0.2-0.06-0.4-0.14-0.59-0.26c-7.63-4.35-13.45-10.69-17.17-18.64c-0.97-2.08,1.03-4.74,3.35-3.83c5.03,1.98,9.37,4.93,12.83,8.75
	c-0.76-5.9-1.64-11.82-2.6-17.75c-0.08-0.04-0.14-0.09-0.21-0.14c-0.22-0.03-0.45-0.09-0.67-0.17c-0.5-0.06-0.96-0.29-1.33-0.72
	l-0.02-0.02c-7.47-4.26-13.19-10.87-16.35-18.92c-1.05-2.67,1.51-4.74,3.97-3.52c5,2.49,9.23,6.11,12.4,10.55
	c-1.09-6.01-2.22-12.04-3.39-18.08c-0.41,0.09-0.86,0.08-1.33-0.04c-6.68-1.72-12.6-5.2-17.48-10.06c-1.88-1.87,0.1-4.44,2.25-4.56
	c5.78-0.31,11.29,2.24,14.99,6.51c-1.36-6.98-2.73-13.96-4.07-20.95c-0.4,0.18-0.89,0.25-1.47,0.13
	c-7.93-1.52-14.91-5.55-19.92-11.94c-1.52-1.95-0.18-4.54,2.25-4.57c6.67-0.06,12.88,2.65,17.43,7.24
	c-0.97-5.25-1.89-10.51-2.75-15.76c-0.22,0.06-0.46,0.09-0.73,0.1c-10.26,0.24-19.56-5.11-24.97-13.73
	c-1.41-2.23,1.28-4.32,3.34-3.83c8.1,1.92,15.34,5.86,21.39,11.46c-1.04-6.56-1.96-13.11-2.74-19.65c-0.43,0.12-0.94,0.11-1.48-0.06
	c-9.94-3.18-17.92-10.47-21.86-20.14c-1.08-2.65,1.52-4.79,3.96-3.51c7.26,3.79,13.51,9,18.48,15.42
	c-0.54-5.43-0.96-10.86-1.24-16.29c-0.7-0.07-1.36-0.43-1.8-1.17c-7.99-2.06-14.55-7.9-17.46-15.64c-0.81-2.15,0.89-4.65,3.34-3.83
	c6.31,2.11,11.71,6.04,15.59,11.27c-0.21-9.9,0.11-19.79,1.08-29.64c-1.13-0.04-2.21-0.69-2.51-2.11c-0.02-0.08-0.03-0.15-0.06-0.22
	c-7.37-3.94-12.6-10.19-15.35-18.23c-0.66-1.97,1.81-3.85,3.59-3.14c7.04,2.84,12.47,8.11,15.4,14.85
	c0.64-4.57,1.44-9.13,2.41-13.67c-0.97-0.15-1.9-0.73-2.31-1.72c-5.69-4.48-10.1-10.24-12.91-16.99c-0.91-2.19,0.95-4.58,3.34-3.83
	c6.89,2.15,11.93,7.52,13.9,14.11c1.47-5.65,3.23-11.28,5.29-16.89c-1.14-8.74,0.39-17.15,4.4-25.04c0.91-1.81,3.98-1.51,4.73,0.28
	c3.7,8.91,2.41,19.06-3.91,26.45l-0.01,0.01c-1.34,3.64-2.55,7.31-3.62,11.02c2.45-3.11,5.47-5.8,8.93-7.99
	c2.19-1.4,4.37,1.27,3.83,3.34c-2.3,8.8-8.36,16.08-16.52,20.05c-0.87,4.31-1.58,8.65-2.16,13.02c4.06-5.57,9.25-10.05,15.4-13.33
	c2.26-1.2,4.37,1.15,3.83,3.35c-2.35,9.55-10.44,16.81-20.16,18.18c-0.26,2.79-0.46,5.6-0.61,8.41c4.31-5.38,10.24-9.15,17.08-10.98
	c1.88-0.5,4.02,1.72,3.14,3.58c-3.77,7.91-10.5,13.55-18.99,15.5c0,0.01-0.01,0.02-0.02,0.04c-0.4,0.75-0.96,1.14-1.56,1.26
	c-0.03,1.65-0.04,3.31-0.04,4.96c0.01,2.59,0.05,5.18,0.12,7.76c4.97-6.51,11.86-10.92,19.96-12.81c2.46-0.58,3.93,2.25,2.81,4.2
	c-4.81,8.47-12.96,14.27-22.46,16.07c0.67,12.91,2.13,25.77,4.01,38.62c2.79-3.98,6.32-7.29,10.63-9.9
	c1.69-1.03,4.31,0.63,3.96,2.64c-1.31,7.66-6.13,13.74-13.12,16.73c1.17,7.14,2.44,14.27,3.77,21.39
	c2.5-5.95,6.65-10.92,12.28-14.58c1.78-1.15,4.15,0.72,3.97,2.65c-0.78,8.54-5.61,15.93-13.07,20.16c-0.23,0.12-0.46,0.23-0.67,0.27
	c-0.25,0.21-0.52,0.36-0.81,0.48c0.84,4.35,1.69,8.7,2.53,13.05c3.37-5.11,7.94-9.3,13.48-12.32c2.16-1.18,4.52,1.14,3.83,3.34
	c-2.61,8.23-7.98,15.06-15.24,19.57c1.28,6.68,2.54,13.36,3.71,20.04c3.66-7.16,8.82-14.79,12.83-10.7
	c2.89,2.95,0.16,8.4-1.37,11.42c-2.23,4.36-5.48,8.08-9.47,10.92c1.2,7.34,2.26,14.68,3.13,22.04c4.38-4.59,9.55-8.25,15.49-10.91
	c2.1-0.95,4.69,0.99,3.83,3.34c-2.98,8.14-9.5,13.81-17.98,15.65c-0.15,0.03-0.3,0.05-0.45,0.07c0.42,4.13,0.77,8.27,1.03,12.41
	c3.58-4.29,8.06-7.71,13.29-10.11c2.28-1.05,4.39,1.03,3.84,3.33c-2.08,8.43-8.03,15.12-16.18,18.1c-0.14,0.05-0.27,0.09-0.4,0.11
	c0.58,20.14-0.9,40.35-5.7,60.67c-0.82,3.43-6,1.63-5.19-1.78c1.11-4.68,2.03-9.39,2.78-14.12c-0.17-0.1-0.32-0.24-0.47-0.39
	c-4.64-4.74-9.03-9.74-12.95-15.11C1040.27,2239.03,1038.22,2234.19,1042.93,2233.21z"/>
<path class="st4" d="M1108.85,2068.79c-29.46,16.38-38.4,51.66-37.88,83.09c0.66,39.99,13.57,81.46-1.67,120.28
	c-0.52,1.32,1.52,2.13,2.04,0.82c13.64-34.76,5.01-72.01,2.43-107.88c-2.46-34.22,2.74-75.82,35.97-94.29
	C1110.96,2070.12,1110.08,2068.11,1108.85,2068.79L1108.85,2068.79z"/>
<path class="st5" d="M1047.99,2277.3c15.29-46.56,5.16-99.53-26.32-137.11c-0.91-1.08-2.62,0.29-1.71,1.37
	c30.96,36.96,41.05,89.1,26,134.92C1045.52,2277.82,1047.55,2278.64,1047.99,2277.3L1047.99,2277.3z"/>
<polygon class="st3" points="929.78,1341.11 1028.48,1281.57 958.99,1266.58 829.5,1389.59 852.25,1397.69 957.37,1289.24 "/>
<polygon class="st3" points="1574.28,2348.65 1642.73,2293.12 1804.53,2283.05 1830.67,2315.85 1830.67,2359.02 1615.76,2373.49 "/>
<path class="st3" d="M2051.38,2018.83c-2.07,6.22-150.46,329.82-150.46,329.82h22.53l190.01-389.98L2051.38,2018.83z"/>
<path class="st3" d="M829.5,2242.58l48.47,87.42l112.01,89.71l41.63,82.97l-253.56-78.82c0,0-43.9-141.97-39.75-140.82
	C742.46,2284.19,829.5,2242.58,829.5,2242.58z"/>
<polygon class="st2" points="2005.29,1734.14 2047.88,1747.64 2093.51,1949.54 2067.24,1992.97 2051.38,2018.83 1900.92,2348.65 
	1862.07,2373.49 2038.53,1965.58 "/>
<polygon class="st2" points="1768,1434.92 1830.67,1638.79 1893,1686.8 1923.45,1762.85 1952.46,1734.14 1804.53,1447.56 
	1804.53,1414.37 1970.44,1747.64 1996.71,1670.2 1804.53,1395.28 "/>
<polygon class="st2" points="2113.46,1958.67 2209.95,2038.93 1977.79,2453.44 1923.45,2348.65 "/>
<polygon class="st2" points="770.05,1698.33 628.29,1820.77 564.66,1948.03 770.21,2270.2 829.5,2242.58 877.98,2330 
	880.02,2309.55 672.87,1868.4 "/>
<polygon class="st2" points="738.31,2283.05 711.92,2328.27 725.11,2464.34 1031.62,2549.79 1031.62,2502.69 778.05,2423.86 "/>
<path class="st2" d="M1574.28,2348.65c4.83,15.7,22.55,67.77,22.55,67.77l42.27,20.39l191.57-20.39v-57.4l-214.91,14.47
	L1574.28,2348.65z"/>
<polygon class="st2" points="1561.1,2309.55 1551.84,2373.49 1501.65,2466.16 1059.34,2484.34 1054.48,2436.81 1488.26,2401.2 "/>
<polygon class="st2" points="1156.96,2224.77 1138.65,2242.58 1168.24,2270.2 1399.24,2326.75 1363.63,2278.19 "/>
<path class="st2" d="M829.5,1638.79c4.22-8.91,22.74-241.11,22.74-241.11l-22.74-8.09l129.49-123.01l-16.18-50.82l-164.75,148.69
	l-7.96,141.8l20,170.13L829.5,1638.79z"/>
<polygon class="st2" points="896.58,1163.97 980.03,1254.34 996.44,1274.66 1146.97,1155.39 1075.43,1012.09 "/>
<polygon class="st2" points="1468.21,708.16 1634.57,1022.77 1692,1022.77 1561.1,759.2 1596.83,796.86 1734.35,1054.78 
	1815.31,1054.78 1683.52,725.32 1512.2,567.18 1433.34,676.37 "/>
<polygon class="st2" points="1692,1153.6 1755.71,1182.8 1783.3,1128.2 1608.22,1054.78 1501.65,820.94 1588.43,1053.86 "/>
<polygon class="st2" points="1804.53,1395.28 1706.9,1215.76 1768,1254.34 1923.45,1431.31 1917.59,1557.01 "/>
<path class="st2" d="M738.03,1397.69c-1.47-7.8,183.02-229.95,183.02-229.95l69.39-83.48l-46.8-53.95l-195.79,236.28l215.29-287.11
	l-34.15-60.24l-99.49,82.64l-188.96,418.14l-20.28,199.56l102.08,56.82l-21.56-241.32l21.56,56.45l15.69,197.71
	c0,0,31.72-13.18,32.07-20.71C770.44,1660.99,738.03,1397.69,738.03,1397.69z"/>
<polygon class="st3" points="722.34,1676.39 620.26,1619.57 627.78,1545.57 564.66,1610.98 542.64,1753.24 657.31,1753.24 "/>
<polygon class="st3" points="990.45,1084.26 1146.97,955 1171.45,847.69 990.45,1026.54 "/>
<polygon class="st3" points="1783.3,1054.78 1783.3,1128.2 1900.92,1304.23 1962.15,1344.7 1962.15,1282.58 "/>
<polygon class="st2" points="1962.15,1344.7 2022.4,1344.7 2038.53,1266.58 1830.67,1001.87 1783.3,1054.78 1962.15,1282.58 "/>
<polygon class="st2" points="990.45,1026.54 980.03,947.47 1171.45,772.38 1171.45,847.69 "/>
<polygon class="st2" points="564.66,1610.98 501.23,1676.39 478.64,1804.07 564.66,1813.48 657.31,1753.24 542.64,1753.24 "/>
<path class="st2" d="M2038.53,1712.23c-2.96,1.47,0-256.45,0-256.45l-93.32-69.39l137.43-32.75l69.66,179.3l-38.84,229.92
	L2038.53,1712.23z"/>
<polygon class="st2" points="1292.37,2502.69 1553.31,2471.45 1544.21,2444.14 1583.65,2436.81 1856.72,2453.44 1929.54,2436.81 
	1953.82,2469.75 1768,2554.89 1996.71,2471.45 2028.15,2502.69 1783.3,2665.64 1160.39,2615.57 1126.42,2532.13 "/>
<path class="st4" d="M1347.74,1034.91c-0.17,2.49-0.33,4.99-0.47,7.5c0.66,0.18,1.25,0.64,1.55,1.43c0.1,0.26,0.21,0.53,0.33,0.78
	c5.78,2.71,18.51,9.84,12.43,14.51c-3.4,2.62-7.72-1.15-10.15-3.43c-1.81-1.69-3.32-3.6-4.56-5.69c-0.74,14.9-1.23,30.21-2.38,45.44
	c0.45,0.05,0.86,0.27,1.18,0.71c4.86,2.53,8.92,6.1,12.24,10.5c0.84,1.12-0.02,3.1-1.35,3.34c-6.02,1.08-9.95-2.72-12.66-7.38
	c-0.51,5.7-1.14,11.39-1.93,17.03c0.26,0.12,0.53,0.29,0.77,0.54c3.43,3.57,7.28,7,10.37,10.87c1.8,2.24,2.1,6.3-1.28,7.31
	c-3.49,1.04-6.23-3.36-7.97-5.7c-1.18-1.6-2.23-3.27-3.14-5.01c-0.64,3.81-1.37,7.58-2.21,11.32c5.3,4.89,7.44,12.04,6.01,19.19
	c-0.35,1.78-2.62,2.05-3.8,1c-2.56-2.27-4.2-5.02-5.31-8.02c-0.71,2.42-1.46,4.82-2.29,7.2c0.81,0.26,1.45,0.95,1.41,2.07
	c-0.01,0.15-0.01,0.29-0.01,0.44c3.57,3.87,6.04,8.56,7.21,13.75c0.41,1.81-1.07,3.07-2.79,2.79c-5.89-0.94-8.08-5.96-8.74-11.19
	c-0.27,0.7-0.56,1.39-0.86,2.08c0.04,0.05,0.05,0.09,0.08,0.15c3.28,6.96,4.88,14.25,4.66,21.95c-0.05,1.84-2.53,3.16-3.88,1.6
	c-3.22-3.72-5.3-8.07-6.09-12.68c-2.23,4.21-4.71,8.31-7.48,12.3c1.91,6.15,2.3,12.37,1.4,18.76c-0.25,1.73-2.72,2.13-3.8,1.01
	c-2.85-3.02-4.42-6.69-4.68-10.53c-1.04,1.22-2.1,2.43-3.21,3.62c-2.88,6.97-8.59,12.22-15.91,14.4c-1.52,0.44-3.46-1.16-2.79-2.8
	c2.81-6.81,8.02-11.9,14.94-14.38c0.25-0.49,0.64-0.83,1.07-1.02c0,0,0.01,0,0.01-0.01c1.77-1.94,3.45-3.95,5.04-6
	c-5.59,0.09-11-2.13-14.94-6.39c-1.53-1.66-0.02-4.35,2.22-3.8c5.43,1.34,10.86,2.69,16.29,4.03c0.27,0.07,0.51,0.17,0.71,0.3
	c2.38-3.46,4.55-7.05,6.54-10.74c-4.51,2.86-10.03,4.01-15.6,3.08c-2.15-0.35-1.91-3.13-0.55-4.15c5.84-4.37,12.36-7.38,19.46-9.03
	c0.05-0.01,0.09-0.02,0.14-0.02c0.48-0.67,1.17-0.91,1.84-0.85c0.7-1.62,1.36-3.25,1.98-4.9c-5.05,2.68-11.3,2.03-15.95-2.37
	c-1.2-1.14-0.67-3.44,1-3.8c5.4-1.14,10.69-1.33,16.14-0.62c0.01-0.01,0.02-0.01,0.02-0.02c0.42-0.58,0.97-0.88,1.54-0.96
	c1.05-3.22,2.01-6.45,2.86-9.7c-4.06,2.3-8.47,3.56-13.37,3.79c-1.6,0.08-2.99-2.03-1.96-3.42c4.11-5.5,10.29-8.53,17.17-7.87
	c1.27-5.64,2.3-11.33,3.14-17.04c-3.65,4.56-8.95,7.35-14.92,7.95c-1.68,0.16-2.88-2.07-1.96-3.42c3.42-5.01,8.64-8.27,14.52-9.03
	c0.16-0.25,0.32-0.51,0.46-0.77c0.64-1.15,1.8-1.32,2.74-0.92c0.15-1.13,0.28-2.25,0.41-3.38c-4.38,2.63-9.99,2.84-14.6-0.05
	c-1.36-0.85-1.58-3.12,0-3.92c4.82-2.44,9.99-3.64,15.37-3.43c0.81-8.6,1.34-17.25,1.76-25.91c-1.9,5.93-5.8,10.92-11.13,14.33
	c-1.74,1.12-3.75-0.73-3.33-2.56c1.54-6.71,5.44-12.46,10.98-16.41c0.32-0.83,1.04-1.19,1.79-1.2c0.01,0,0.01-0.01,0.02-0.01
	c0.71-0.43,1.39-0.43,1.95-0.16c0.15-3.49,0.31-6.98,0.46-10.45c-3.67,3.84-8.73,6.13-14.21,6.37c-1.83,0.08-2.69-1.95-1.96-3.42
	c3.11-6.22,8.96-10.64,15.8-11.89c0.27-0.05,0.53-0.05,0.76-0.02c0.09-1.83,0.18-3.67,0.27-5.5c-5.33,1.67-10.82,1.71-16.19,0.14
	c-1.53-0.45-2.35-2.65-1-3.8c4.96-4.21,11.78-5.11,17.51-2.18c0.48-8.09,1.1-16.16,2.03-24.18c-4.08,3.57-8.55,6.59-13.42,8.99
	c-1.56,0.78-4.15-0.56-3.33-2.56c3-7.3,9.65-12.19,17.51-12.6c0.54-4.09,1.18-8.17,1.93-12.23c-2.83,3.96-6.7,6.87-11.4,8.76
	c-1.95,0.79-3.42-1.76-2.56-3.33c2.81-5.18,6.98-8.99,12.21-11.34c0.02-0.03,0.03-0.06,0.05-0.09c0.31-0.64,0.97-1.01,1.67-1.09
	c0.45-0.24,0.99-0.34,1.51-0.25c1.04-4.81,2.26-9.6,3.69-14.36c0.84-2.8,5.21-1.6,4.38,1.2c-1.61,5.36-2.95,10.77-4.09,16.22
	c5.7,3.75,13.77,10.09,9.77,14.8c-1.97,2.33-4.94,1.24-6.7-0.68c-1.68-1.84-3.17-3.98-4.59-6.19c-0.19,1.04-0.36,2.07-0.52,3.12
	c0.93-0.04,1.84,0.45,2.15,1.61c0.04,0.13,0.07,0.26,0.11,0.39c3.48,3.26,7.31,6.44,10.35,10.06c1.99,2.35,1.54,5.65-1.51,6.83
	c-3.34,1.29-5.9-1.5-7.68-3.94c-1.84-2.54-3.31-5.34-4.41-8.27C1349.02,1019.19,1348.28,1027.05,1347.74,1034.91z"/>
<path class="st2" d="M1229.93,1155.39l114.65-163.62l113.19-45.49l10.43-174.49c0,0-54.54-43.63-56.36-38.18
	c-1.82,5.45-23.63,185.44-23.63,185.44l11.02-210.89l-65.56,34.54l-240.03,332.69L1229.93,1155.39z"/>
<path class="st5" d="M1369.7,1010.25c-3.44,0.18-6.54-4.7-8.01-7.2c-0.84-1.43-1.53-2.91-2.07-4.44c-0.83,3.21-1.56,6.45-2.22,9.69
	c0.26,0.1,0.51,0.28,0.75,0.53c5.32,5.61,8.35,12.56,8.71,20.3c0.11,2.24-2.94,3.25-4.17,1.36c-3.26-4.97-5.37-10.35-6.41-16.15
	c-0.73,4.23-1.32,8.48-1.81,12.74c0.08,0.06,0.16,0.14,0.24,0.22c4,4.15,7.31,8.71,9.91,13.86c0.94,1.87-0.77,4.47-2.94,3.26
	c-3.27-1.81-6.03-4.19-8.15-7.07c-0.11,1.49-0.2,2.98-0.29,4.46c-0.02,0.46-0.05,0.92-0.07,1.39c0.16,0.07,0.31,0.17,0.45,0.29
	c5.72,4.49,9.72,10.39,11.8,17.36c0.54,1.82-1.42,3.76-3.21,2.73c-3.88-2.23-7.08-5.18-9.45-8.73c-0.09,4.93-0.1,9.88-0.02,14.85
	c0.06,0.04,0.1,0.09,0.15,0.14c0.18,0.05,0.36,0.13,0.53,0.22c0.41,0.11,0.75,0.35,1,0.75l0.01,0.02c5.6,4.4,9.49,10.51,11.1,17.49
	c0.54,2.32-1.81,3.7-3.68,2.4c-3.79-2.64-6.82-6.13-8.88-10.15c0.16,5.06,0.35,10.13,0.58,15.22c0.34-0.03,0.71,0.04,1.08,0.19
	c5.26,2.22,9.69,5.79,13.1,10.36c1.31,1.76-0.62,3.62-2.4,3.46c-4.77-0.45-8.98-3.21-11.49-7.15c0.26,5.88,0.54,11.77,0.78,17.66
	c0.35-0.1,0.76-0.09,1.22,0.07c6.32,2.21,11.54,6.36,14.86,12.2c1.01,1.79-0.4,3.74-2.4,3.47c-5.47-0.76-10.23-3.73-13.4-8.05
	c0.15,4.42,0.27,8.84,0.34,13.24c0.19-0.02,0.39-0.02,0.61,0.01c8.43,1.05,15.4,6.56,18.78,14.28c0.88,2-1.57,3.38-3.2,2.73
	c-6.41-2.56-11.85-6.66-16.13-11.99c0.05,5.5,0.01,10.98-0.14,16.43c0.37-0.05,0.78,0.02,1.2,0.23
	c7.75,3.82,13.41,10.76,15.46,19.16c0.56,2.3-1.83,3.74-3.67,2.4c-5.49-3.99-9.97-9.01-13.26-14.88c-0.22,4.51-0.53,9.01-0.97,13.49
	c0.56,0.14,1.06,0.52,1.33,1.18c6.29,2.66,10.96,8.24,12.4,14.94c0.4,1.86-1.29,3.7-3.2,2.73c-4.91-2.5-8.86-6.37-11.4-11.12
	c-1.03,8.14-2.49,16.2-4.49,24.15c0.92,0.17,1.72,0.83,1.8,2.04c0,0.06,0.01,0.13,0.02,0.19c5.56,4.13,9.08,9.88,10.36,16.8
	c0.3,1.69-1.95,2.94-3.32,2.13c-5.42-3.18-9.23-8.16-10.81-14.04c-1.08,3.67-2.29,7.3-3.64,10.91c0.78,0.24,1.47,0.83,1.69,1.69
	c4.12,4.36,7.03,9.62,8.51,15.49c0.48,1.9-1.33,3.63-3.2,2.73c-5.38-2.6-8.86-7.61-9.67-13.25c-1.89,4.45-4.01,8.84-6.38,13.19
	c-0.13,7.3-2.41,14-6.65,19.97c-0.97,1.37-3.44,0.75-3.84-0.8c-1.95-7.75,0.34-15.91,6.42-21.19l0.01-0.01
	c1.54-2.82,2.98-5.68,4.31-8.59c-2.39,2.25-5.18,4.08-8.29,5.46c-1.96,0.88-3.43-1.57-2.73-3.2c2.96-6.93,8.8-12.15,15.97-14.41
	c1.23-3.43,2.35-6.9,3.35-10.4c-4,4.07-8.8,7.11-14.24,9.05c-2,0.71-3.44-1.47-2.73-3.21c3.09-7.53,10.59-12.5,18.73-12.44
	c0.55-2.26,1.06-4.53,1.53-6.82c-4.19,3.88-9.5,6.25-15.33,6.92c-1.6,0.18-3.08-1.9-2.13-3.31c4.05-6.02,10.25-9.83,17.44-10.38
	c0-0.01,0.01-0.02,0.02-0.03c0.42-0.57,0.92-0.82,1.43-0.85c0.22-1.35,0.43-2.71,0.64-4.06c0.31-2.13,0.59-4.25,0.85-6.37
	c-4.86,4.73-11.04,7.5-17.9,8.07c-2.08,0.18-2.95-2.32-1.79-3.78c4.97-6.36,12.35-10.12,20.35-10.43
	c1.02-10.66,1.39-21.37,1.41-32.12c-2.77,2.92-6.06,5.2-9.91,6.82c-1.51,0.64-3.45-1.04-2.93-2.64c2.01-6.11,6.69-10.51,12.78-12.11
	c-0.09-5.99-0.27-11.98-0.49-17.98c-2.77,4.57-6.78,8.14-11.84,10.45c-1.6,0.73-3.31-1.1-2.93-2.65c1.68-6.9,6.54-12.37,13.15-14.92
	c0.21-0.07,0.4-0.13,0.58-0.14c0.23-0.14,0.47-0.23,0.72-0.29c-0.16-3.67-0.33-7.33-0.49-11c-3.38,3.77-7.64,6.66-12.54,8.45
	c-1.91,0.71-3.57-1.48-2.73-3.2c3.14-6.43,8.37-11.37,14.86-14.18c-0.23-5.63-0.46-11.25-0.61-16.87
	c-3.87,5.42-9.02,11.05-11.81,7.21c-2.01-2.77,0.89-6.9,2.51-9.19c2.36-3.3,5.47-5.95,9.09-7.79c-0.09-6.16-0.06-12.3,0.11-18.43
	c-4.15,3.23-8.83,5.6-14.02,7.05c-1.84,0.52-3.72-1.38-2.73-3.2c3.43-6.3,9.46-10.16,16.63-10.63c0.13-0.01,0.25,0,0.37,0
	c0.16-3.44,0.38-6.87,0.67-10.29c-3.45,3.08-7.54,5.33-12.12,6.67c-2,0.58-3.47-1.38-2.74-3.2c2.73-6.65,8.41-11.41,15.45-12.86
	c0.12-0.02,0.23-0.04,0.34-0.04c1.97-16.57,5.64-32.95,12.04-49.01c1.09-2.71,5.12-0.61,4.04,2.09c-1.48,3.69-2.8,7.45-3.99,11.23
	c0.12,0.1,0.23,0.23,0.34,0.37c3.23,4.45,6.21,9.08,8.77,13.95C1372.59,1005.81,1373.67,1010.02,1369.7,1010.25z"/>
<path class="st4" d="M1295.71,1136.92c26.12-9.83,37.74-37.65,41.13-63.46c4.32-32.84-1.21-68.38,15.99-98.32
	c0.58-1.02-0.99-1.93-1.57-0.92c-15.4,26.81-12.86,58.37-15.11,88.08c-2.15,28.33-11.46,61.77-40.93,72.87
	C1294.15,1135.58,1294.62,1137.34,1295.71,1136.92L1295.71,1136.92z"/>
<path class="st5" d="M1370.91,973.52c-18.19,36.28-16.33,80.91,4.89,115.52c0.61,1,2.18,0.08,1.57-0.92
	c-20.87-34.04-22.79-77.98-4.89-113.68C1373,973.4,1371.44,972.48,1370.91,973.52L1370.91,973.52z"/>
<path class="st4" d="M1691.81,2181.32c-0.08,0.14-0.16,0.26-0.24,0.4l0.03-0.49C1691.67,2181.26,1691.74,2181.28,1691.81,2181.32z"
	/>
<path class="st4" d="M1696.04,2182.04c-0.01,0.07-0.01,0.15-0.01,0.23c-0.18,0.04-0.36,0.04-0.55,0
	C1695.67,2182.23,1695.86,2182.15,1696.04,2182.04z"/>
<path class="st4" d="M1696.5,2196.47c-0.17,0.09-0.35,0.14-0.54,0.16c-0.02-0.11-0.02-0.21-0.03-0.32
	C1696.12,2196.35,1696.31,2196.41,1696.5,2196.47z"/>
<path class="st4" d="M1691.81,2181.32c-0.08,0.14-0.16,0.26-0.24,0.4l0.03-0.49C1691.67,2181.26,1691.74,2181.28,1691.81,2181.32z"
	/>
<path class="st4" d="M1692.39,2170.42c-0.02,0.19-0.04,0.39-0.05,0.58c-0.11-0.12-0.22-0.23-0.33-0.35c0.11-0.06,0.22-0.14,0.33-0.2
	C1692.35,2170.44,1692.37,2170.43,1692.39,2170.42z"/>
<path class="st4" d="M1696.04,2182.04c-0.01,0.07-0.01,0.15-0.01,0.23c-0.18,0.04-0.36,0.04-0.55,0
	C1695.67,2182.23,1695.86,2182.15,1696.04,2182.04z"/>
<path class="st6" d="M1704.57,2238.15c-13.44-56.47,0.12-118.02,36.12-163.57c0.71-0.9-0.56-2.19-1.28-1.28
	c-36.41,46.09-50.18,108.18-36.58,165.33C1703.1,2239.76,1704.84,2239.28,1704.57,2238.15L1704.57,2238.15z"/>
<path class="st4" d="M1696.5,2196.47c-0.17,0.09-0.35,0.14-0.54,0.16c-0.02-0.11-0.02-0.21-0.03-0.32
	C1696.12,2196.35,1696.31,2196.41,1696.5,2196.47z"/>
<path class="st4" d="M1702.28,2136.96c6.91-1.14,13.09-4.32,18.19-9.15c1.35-1.27,0.39-4.04-1.59-3.86
	c-5.28,0.47-10.17,2.02-14.56,4.63c1.26-4.85,2.65-9.66,4.17-14.44c0.13-0.4,0.14-0.76,0.08-1.08c0.16-0.23,0.27-0.51,0.33-0.79
	c2.17-3.38,3.74-7.1,4.51-11.05c0.51-2.63,1.72-7.92-2.19-8.62c-3.53-0.63-5.21,3.78-6.09,6.37c-1.32,3.93-1.51,8.06-0.87,12.12
	c-0.08,0.13-0.16,0.24-0.25,0.37c-0.58,0.8-0.51,1.6-0.09,2.2c-0.81,2.56-1.59,5.15-2.32,7.73c-0.06-1.05-0.14-2.09-0.24-3.12
	c-0.23-2.42-1.04-5.42-3.87-5.84c-9.07-1.34-2.01,13.63-0.13,17.96c0.1,1.11,0.18,2.2,0.23,3.28c0.03,0.56,0.23,1.02,0.51,1.36
	c-1.56,6.81-2.86,13.67-3.89,20.57c-0.5-0.68-0.99-1.35-1.49-2.03c1.3-2.02,2.46-4.48,1.01-6.45c-1.65-2.24-3.58-1.52-5.42,0.48
	c-0.02-0.03-0.05-0.06-0.06-0.09c-1-1.35-2.37-3.02-3.98-3.58v-0.01c0.16-1.2,0.33-2.4,0.51-3.6c1.43-3.47,2.28-7.11,2.41-10.91
	c0.09-2.76,0.14-7.61-3.3-8.56c-7.94-2.19-5.28,17.82-4.66,21.29c0.1,0.52,0.32,0.9,0.61,1.16v0.01
	c-0.67,5.15-1.15,10.28-1.44,15.45c-1.31-3.82-3.44-7.29-6.37-10.31c-1.48-1.53-3.66-0.24-3.86,1.6
	c-0.82,7.76,2.87,15.09,9.33,19.35c0.2,0.13,0.41,0.23,0.6,0.29c-0.01,4.51,0.13,9.03,0.42,13.54c-1.9-3.34-3.82-6.67-5.82-9.94
	c-1.33-2.17-4.5-5.34-6.65-1.95c-1.77,2.8,1.34,7.25,2.67,9.55c2.28,3.93,5.15,7.46,8.42,10.58c0.24,0.23,0.5,0.4,0.77,0.5
	c-1.07,1.81,0.41,4.67,2.02,6.19c0.03,0.03,0.05,0.05,0.08,0.07c0.23,1.64,0.47,3.28,0.74,4.91c-2.18-2.68-4.34-5.41-6.74-7.84
	c-1.98-2-5.81-2.95-6.78,0.63c-0.86,3.15,2.39,6.47,4.33,8.57c2.73,2.95,6.04,5.3,9.67,7.02c0.38,0.18,0.75,0.25,1.1,0.23
	c0.54,2.65,1.15,5.3,1.81,7.94c-3.75-3.46-9.1-7.05-11.68-2.84c-3.64,5.97,9.54,10.38,13.29,11.26c0.23,0.05,0.46,0.08,0.68,0.06
	c0.59,2.01,1.21,4.02,1.87,6.02c0.9,2.75,5.26,1.57,4.35-1.2c-0.7-2.13-1.36-4.26-1.99-6.41c0.46-0.17,0.86-0.51,1.12-1.01
	c0.31-0.29,0.6-0.6,0.9-0.9c0.56,5.36,1.28,10.72,2.16,16.05c0.47,2.86,4.82,1.64,4.35-1.2c-1.08-6.59-1.91-13.21-2.49-19.84
	c1.05-1.56,1.96-3.21,2.74-4.96c0.98-2.22,3.58-6.97,1.12-9.05c-1.54-1.3-3.15-0.72-4.7,0.87c-0.04-0.94-0.07-1.87-0.09-2.81
	c0.42-0.11,0.81-0.37,1.1-0.83c6.45-1.17,13.09-9.2,16.4-13.5c1.28-1.67-0.83-3.73-2.56-3.31c-4.79,1.15-9.04,3.53-12.4,6.89
	c-0.19-0.53-0.51-1.02-0.98-1.44c-0.55-0.5-1.09-0.83-1.62-1.02c0.05-2.75,0.16-5.49,0.31-8.24c-0.18,0.04-0.36,0.04-0.55,0
	c0.19-0.04,0.38-0.13,0.56-0.23c-0.01,0.07-0.01,0.15-0.01,0.23c0.1-0.02,0.19-0.04,0.28-0.08c6.62-2.77,18.82-7.29,19.2-15.79
	c0.08-1.84-1.95-2.65-3.4-1.95c-5.79,2.77-11.01,6.37-15.61,10.75c0.37-4.72,0.87-9.44,1.49-14.14c4.37-1.57,8.41-3.72,12.06-6.61
	c2.47-1.94,7.9-5.88,5.26-9.64c-2.4-3.41-7.09-0.39-9.5,1.24c-2.38,1.61-4.51,3.47-6.4,5.54
	C1700.22,2146.69,1701.18,2141.82,1702.28,2136.96L1702.28,2136.96z M1682.58,2172.61c0.87,1.53,1.91,2.94,3.12,4.23
	c-1.23,1.87-2.15,3.95-2.71,6.14C1682.76,2179.52,1682.62,2176.07,1682.58,2172.61z M1684.3,2190.8c-0.21,0.11-0.42,0.17-0.64,0.19
	c-0.02-0.13-0.03-0.25-0.04-0.38C1683.85,2190.66,1684.07,2190.73,1684.3,2190.8c0.05-0.02,0.09-0.05,0.13-0.07h0.01
	c1.18,0.09,2.44-0.62,2.41-2.17v-0.32c1.78-2.04,3.35-4.23,4.72-6.52c-0.19,3.48-0.3,6.95-0.35,10.44
	c-0.01,0.98-0.02,1.96-0.03,2.94c-0.4-0.37-0.82-0.75-1.28-1.11C1688.27,2192.67,1686.3,2191.43,1684.3,2190.8z M1688.89,2220.08
	c-0.68-2.6-1.29-5.22-1.85-7.84c0.95,0.09,1.87-0.39,2.05-1.63c0.01-0.07,0.03-0.15,0.04-0.23c0.82-0.72,1.6-1.49,2.34-2.28
	c0.06,1.68,0.15,3.36,0.26,5.03C1690.59,2215.52,1689.62,2218.03,1688.89,2220.08z M1691.57,2181.72l0.03-0.49
	c0.07,0.03,0.14,0.05,0.22,0.09C1691.73,2181.46,1691.65,2181.58,1691.57,2181.72z M1692.39,2170.42c-0.02,0.19-0.04,0.39-0.05,0.58
	c-0.11-0.12-0.22-0.23-0.33-0.35c-2.29-2.44-4.98-4.49-8.03-6.12c1.45-1.47,2.84-3.01,4.14-4.6c1.35,0.61,2.8,1.05,4.33,1.25
	c0.24,0.2,0.48,0.4,0.72,0.6c0.05,0.05,0.11,0.08,0.16,0.11C1692.98,2164.72,1692.66,2167.57,1692.39,2170.42z"/>
<path class="st4" d="M1803.44,2074.82c2.07,2.72-0.1,5.22-2.36,6.74c-4.16,2.8-8.8,5.07-13.24,7.49c-0.7,4.27-1.41,8.55-2.02,12.82
	c4.38-3.04,10.07-6.01,11.91-2.28c2.25,4.55-7.54,8.58-13.02,10.54c-0.43,3.58-0.79,7.15-1.02,10.72c3.74-4.84,8.42-9.08,11.68-5.72
	c5.18,5.34-6.52,12.42-12.05,15.54c-0.06,11.84,1.44,23.58,5.72,35.18c1.01,2.74-3.36,3.9-4.35,1.2c-1.9-5.12-3.23-10.28-4.13-15.46
	c-0.11-0.07-0.21-0.15-0.3-0.24c-6.83-2.03-11.58-8.05-12.28-15.13c-0.18-1.77,2.02-2.73,3.4-1.95c3.09,1.75,5.74,4.01,7.91,6.67
	c-0.18-2.73-0.26-5.46-0.26-8.2c-0.58-0.23-1.07-0.7-1.29-1.37c-0.35-0.09-0.71-0.3-1.03-0.63c-5.2-5.55-8.05-12.35-8.37-19.95
	c-0.06-1.38,1.5-2.67,2.85-2.18c3.06,1.11,4.69,3.21,5.92,6.19c0.9,2.17,1.66,4.42,2.36,6.69c0.26-3.44,0.61-6.9,1.05-10.35
	c-0.84-0.3-1.34-1.2-1.36-2.12c-2.56-2.94-11.75-11.3-5.93-14.94c3.84-2.39,6.87,1.63,8.88,5.92c0.54-3.46,1.12-6.92,1.71-10.38
	c-0.43-0.42-0.7-1.04-0.7-1.67c-5.24-4.14-9.53-9.09-12.95-14.84c-0.71-1.19-0.08-3,1.35-3.31c6.84-1.48,10.65,6.15,13.66,11.83
	c0.74-4.46,1.45-8.91,2.08-13.35c-0.01,0-0.01,0-0.01-0.01c-0.01-0.01-0.02-0.03-0.02-0.05c-0.07-0.08-0.13-0.17-0.17-0.26
	c-4.86-3.02-13.74-10.6-10.89-16.5c0.34-0.71,1.19-1.09,1.95-1.12c3.19-0.1,5.7,3.47,7.49,5.72c1,1.26,1.9,2.58,2.69,3.95
	c0.34-3.13,0.61-6.27,0.8-9.38c-0.79,0.12-1.61-0.17-2.12-1.07c-0.05-0.09-0.1-0.18-0.15-0.26c-4.59-0.93-8.54-6.39-10.47-10.1
	c-1.05-2.01,1.06-4.17,3.09-3.09c3.85,2.05,7.02,4.8,9.53,8.23c0.13-0.04,0.25-0.09,0.37-0.14c0.05-3.19-0.01-6.37-0.2-9.54
	c-0.24-0.05-0.48-0.14-0.7-0.27c-6.37-0.18-12.19-9.34-14.04-14.16c-0.7-1.84,1.75-3.58,3.31-2.55c4.07,2.68,7.62,5.82,10.7,9.49
	c-0.45-3.36-1.07-6.71-1.91-10.04c-0.34-0.31-0.69-0.6-1.04-0.88c-5.64-0.69-10.66-3.07-14.87-7.08c-1.72-1.64,0.09-4.21,2.19-3.77
	c4.19,0.86,8.06,2.4,11.59,4.58c-0.62-1.78-1.3-3.56-2.05-5.33c-0.55-0.21-0.99-0.69-1.15-1.47c-0.02-0.11-0.05-0.23-0.07-0.33
	c-5.12-3.82-8.88-8.87-11.19-14.9c-0.75-1.96,1.73-3.4,3.31-2.56c5.83,3.12,10.12,8.46,11.88,14.79c0.6,0.45,0.86,1.06,0.88,1.67
	c0.02,0.03,0.04,0.05,0.05,0.08c0.19,0.43,0.37,0.86,0.55,1.29c0.83-3.4,2.57-5.97,5.94-5.65c7.99,0.76,0.42,15.04-1.35,18.46
	c-0.11,0.2-0.23,0.37-0.35,0.51c0.54,2.31,0.98,4.63,1.35,6.95c0.03-0.09,0.06-0.18,0.1-0.27c1.2-3.02,4.04-8.49,7.84-8.52
	c4.23-0.05,3.63,4.61,2.36,7.26c-1.88,3.89-4.8,7.03-8.35,9.41c-0.27,0.44-0.58,0.85-0.95,1.22c0.13,1.91,0.21,3.85,0.23,5.77
	c1.42-2.46,3.53-4.98,6.64-4.83c2.92,0.14,4.44,2.74,3.6,5.42c-1.32,4.15-7.08,7.63-10.35,10.23c-0.05,0.04-0.08,0.06-0.13,0.09
	c-0.22,3.82-0.58,7.66-1.02,11.49c2.19-1.89,4.44-3.71,6.83-4.89c1.88-0.92,4.53-1.14,5.75,0.98c3.28,5.71-8.52,10.36-13.63,12
	c-0.44,3.1-0.92,6.2-1.43,9.31C1794.45,2074.23,1800.38,2070.8,1803.44,2074.82z"/>
<path class="st4" d="M1785.89,2174.56c-15.39-24.4-8.24-53.95-8.11-80.95c0.12-24.77-7.68-48.51-22.97-68.06
	c-0.72-0.91-1.99,0.37-1.28,1.28c17.12,21.89,23.51,48.01,22.19,75.44c-1.18,24.58-5.28,51.18,8.61,73.2
	C1784.95,2176.45,1786.51,2175.55,1785.89,2174.56L1785.89,2174.56z"/>
<path class="st4" d="M1797.68,2164.55c-19.36-22.8-12.78-54.48-3.13-79.92c5.09-13.42,11.15-26.48,15.38-40.22
	c4.15-13.46,5.88-27.2,5.07-41.26c-0.94-16.45-4.68-32.57-8.42-48.57c-0.26-1.13-2.01-0.65-1.74,0.48
	c3.57,15.29,7.16,30.68,8.25,46.38c1.08,15.66-1.02,30.81-5.93,45.7c-8.89,26.96-24.81,53.03-23.85,82.3
	c0.44,13.24,4.44,26.2,13.1,36.39C1797.15,2166.72,1798.42,2165.44,1797.68,2164.55L1797.68,2164.55z"/>
<path class="st6" d="M1794.82,2168.04c-13.06-43.38-1.07-90.65,31.12-122.49c0.83-0.82-0.45-2.1-1.28-1.28
	c-32.64,32.28-44.82,80.27-31.59,124.25C1793.41,2169.63,1795.15,2169.16,1794.82,2168.04L1794.82,2168.04z"/>
<path class="st4" d="M1685.76,2242.45c-17.84-30.81-24.3-67.33-18.06-102.39c0.2-1.14-1.54-1.62-1.74-0.48
	c-6.33,35.54,0.15,72.53,18.24,103.78C1684.78,2244.37,1686.34,2243.46,1685.76,2242.45L1685.76,2242.45z"/>
<path class="st6" d="M1710.3,2236.39c-5.51-16.32-6.69-34.08-1.32-50.61c5.08-15.64,15.26-26.85,28.25-36.48
	c11-8.16,21.16-16.44,27.09-29.11c5.41-11.57,7.02-24.48,4.69-37.03c-0.21-1.14-1.95-0.66-1.74,0.48
	c2.75,14.77-0.31,30.25-8.52,42.86c-8.41,12.9-22.22,19.75-33.27,29.95c-22.18,20.45-26.24,52.8-16.91,80.42
	C1708.93,2237.97,1710.67,2237.5,1710.3,2236.39L1710.3,2236.39z"/>
<polygon class="st3" points="980.03,2270.2 993.46,2309.55 1138.65,2340.35 1229.93,2328.27 1160.06,2293.12 1031.62,2257.38 "/>
<polygon class="st2" points="980.03,2270.2 957.35,2298.87 968.69,2340.35 1124.61,2372.63 1156.96,2363.97 1229.93,2360.75 
	1229.93,2328.27 1138.65,2340.35 993.46,2309.55 "/>
<path class="st7" d="M1800.96,2151.25c-1.67,0.23-2.82-0.62-3.04-2.31c-0.08-0.68-0.1-1.35-0.04-2.01c-0.25-0.26-0.43-0.63-0.5-1.12
	c-0.47-3.19,0.56-6.19,3.13-8.22c1.7-1.34,3.93-2.16,5.7-1.41c1.23-0.24,2.37,0.31,2.83,1.65
	C1811.03,2143.54,1807.01,2150.4,1800.96,2151.25z"/>
<path class="st7" d="M1796.76,2176.81c-1.67,0.23-2.82-0.62-3.04-2.31c-0.08-0.68-0.1-1.35-0.04-2.01c-0.25-0.26-0.43-0.63-0.5-1.12
	c-0.47-3.19,0.56-6.19,3.13-8.22c1.7-1.34,3.93-2.16,5.7-1.41c1.23-0.24,2.37,0.31,2.83,1.65
	C1806.83,2169.1,1802.81,2175.97,1796.76,2176.81z"/>
<path class="st7" d="M1425.51,2277.47c-0.91-1.08-0.83-2.27,0.26-3.18c0.44-0.37,0.91-0.67,1.4-0.93c0.07-0.3,0.25-0.59,0.57-0.86
	c2.04-1.76,4.62-2.39,7.21-1.49c1.71,0.6,3.29,1.8,3.56,3.39c0.72,0.76,0.84,1.81,0.11,2.74
	C1435.47,2281.1,1428.83,2281.35,1425.51,2277.47z"/>
<path class="st7" d="M1367.12,2272.24c-0.91-1.08-0.83-2.27,0.26-3.18c0.44-0.37,0.91-0.67,1.4-0.93c0.07-0.3,0.25-0.59,0.57-0.86
	c2.04-1.76,4.62-2.39,7.21-1.49c1.71,0.6,3.29,1.8,3.56,3.39c0.72,0.76,0.84,1.81,0.11,2.74
	C1377.08,2275.87,1370.43,2276.12,1367.12,2272.24z"/>
<path class="st8" d="M1407.85,2272.24c-0.91-1.08-0.83-2.27,0.26-3.18c0.44-0.37,0.91-0.67,1.4-0.93c0.07-0.3,0.25-0.59,0.57-0.86
	c2.04-1.76,4.62-2.39,7.21-1.49c1.71,0.6,3.29,1.8,3.56,3.39c0.72,0.76,0.84,1.81,0.11,2.74
	C1417.81,2275.87,1411.17,2276.12,1407.85,2272.24z"/>
<path class="st8" d="M1777.64,2182.59c-1.54,0.17-2.59-0.47-2.79-1.73c-0.08-0.51-0.09-1.01-0.03-1.5c-0.23-0.2-0.39-0.47-0.46-0.84
	c-0.43-2.39,0.52-4.64,2.87-6.16c1.56-1,3.61-1.62,5.23-1.06c1.13-0.18,2.17,0.23,2.6,1.23
	C1786.87,2176.81,1783.19,2181.95,1777.64,2182.59z"/>
<path class="st0" d="M1367.27,1006.42c1.2-2.16-81.84,168.61-81.84,168.61l-256.95,106.54l258.38-117.43L1367.27,1006.42z"/>
<polygon class="st0" points="1457.78,946.28 1501.65,820.94 1498.36,778.39 1493.04,836.48 "/>
<polygon class="st0" points="1768,1491.52 1706.9,1215.76 1669.29,1203.23 1705.1,1219.62 "/>
<circle class="st9" cx="1477.37" cy="1049.52" r="13.59"/>
<circle class="st9" cx="890.63" cy="2163.41" r="13.59"/>
<circle class="st9" cx="1511.92" cy="1106.67" r="8.28"/>
<circle class="st9" cx="1642.77" cy="899.46" r="8.28"/>
<circle class="st9" cx="1208.22" cy="2014.17" r="8.28"/>
<circle class="st9" cx="1172.47" cy="1960.76" r="8.28"/>
<path class="st7" d="M840.13,1699.6c1.37-0.99,2.78-0.78,3.77,0.6c0.4,0.56,0.72,1.15,0.98,1.75c0.35,0.11,0.68,0.36,0.97,0.75
	c1.92,2.59,2.43,5.73,1.12,8.73c-0.86,1.98-2.45,3.76-4.36,3.93c-0.97,0.79-2.23,0.84-3.28-0.12
	C834.89,1711.15,835.2,1703.21,840.13,1699.6z"/>
<path class="st7" d="M831.77,1675.08c1.37-0.99,2.78-0.78,3.77,0.6c0.4,0.56,0.72,1.15,0.98,1.75c0.35,0.11,0.68,0.36,0.97,0.75
	c1.92,2.59,2.43,5.72,1.12,8.73c-0.86,1.98-2.45,3.76-4.36,3.93c-0.97,0.79-2.23,0.84-3.28-0.12
	C826.53,1686.63,826.84,1678.69,831.77,1675.08z"/>
<path class="st1" d="M831.86,1729.54c0.97-1.38,2.38-1.64,3.76-0.65c0.56,0.4,1.05,0.85,1.5,1.34c0.36-0.01,0.76,0.12,1.17,0.4
	c2.66,1.83,4.16,4.63,3.9,7.89c-0.17,2.16-1.09,4.35-2.85,5.14c-0.66,1.06-1.84,1.52-3.14,0.95
	C830.66,1742.17,828.37,1734.55,831.86,1729.54z"/>
<path class="st1" d="M1455.59,2265.21c-0.7-0.99-0.53-2.01,0.47-2.7c0.41-0.28,0.83-0.51,1.27-0.69c0.09-0.25,0.26-0.48,0.55-0.69
	c1.88-1.35,4.14-1.68,6.28-0.71c1.41,0.64,2.68,1.8,2.78,3.17c0.56,0.71,0.58,1.61-0.12,2.35
	C1463.83,2269.09,1458.12,2268.79,1455.59,2265.21z"/>
<path class="st1" d="M1845.32,1706.62c-1.06,0.59-2.05,0.32-2.63-0.75c-0.23-0.43-0.42-0.88-0.55-1.33
	c-0.24-0.11-0.45-0.31-0.63-0.62c-1.15-2.01-1.24-4.29-0.05-6.32c0.79-1.34,2.07-2.47,3.45-2.43c0.76-0.48,1.67-0.41,2.33,0.36
	C1850.05,1698.83,1849.15,1704.47,1845.32,1706.62z"/>
<path class="st8" d="M845.91,1660.97c1.27-0.87,2.5-0.81,3.27,0.21c0.31,0.41,0.55,0.85,0.74,1.31c0.3,0.06,0.57,0.23,0.8,0.52
	c1.5,1.9,1.73,4.33,0.37,6.78c-0.9,1.62-2.42,3.13-4.11,3.4c-0.91,0.69-2.02,0.82-2.87,0.14
	C840.49,1670.42,841.32,1664.15,845.91,1660.97z"/>
<path class="st7" d="M1386.38,913.17c1.28,1.1,1.41,2.52,0.29,3.8c-0.45,0.51-0.95,0.97-1.48,1.36c-0.03,0.36-0.19,0.74-0.51,1.12
	c-2.08,2.47-5.01,3.69-8.23,3.11c-2.13-0.38-4.23-1.51-4.84-3.33c-1-0.76-1.34-1.98-0.64-3.21
	C1373.93,910.75,1381.73,909.2,1386.38,913.17z"/>
<path class="st7" d="M1408.3,899.35c1.28,1.1,1.41,2.52,0.29,3.8c-0.45,0.51-0.95,0.97-1.48,1.36c-0.03,0.36-0.19,0.74-0.51,1.12
	c-2.08,2.47-5.01,3.69-8.23,3.11c-2.13-0.38-4.23-1.51-4.84-3.33c-1-0.76-1.34-1.98-0.64-3.21
	C1395.85,896.93,1403.65,895.39,1408.3,899.35z"/>
<path class="st7" d="M1159.85,1199.58c1.28,1.1,1.41,2.52,0.29,3.8c-0.45,0.51-0.95,0.97-1.48,1.36c-0.03,0.36-0.19,0.74-0.51,1.12
	c-2.08,2.47-5.01,3.69-8.23,3.11c-2.13-0.38-4.23-1.51-4.84-3.33c-1-0.76-1.34-1.98-0.64-3.21
	C1147.4,1197.16,1155.2,1195.62,1159.85,1199.58z"/>
<path class="st8" d="M1425.3,909.84c1.15,1.04,1.37,2.25,0.56,3.23c-0.33,0.4-0.7,0.74-1.1,1.02c0.01,0.3-0.09,0.61-0.32,0.9
	c-1.5,1.9-3.81,2.69-6.51,1.93c-1.78-0.5-3.61-1.63-4.26-3.22c-0.88-0.73-1.27-1.78-0.8-2.76
	C1414.86,906.76,1421.14,906.11,1425.3,909.84z"/>
<path class="st8" d="M1766.96,1200.78c1.15,1.04,1.37,2.25,0.56,3.23c-0.33,0.4-0.7,0.74-1.1,1.02c0.01,0.3-0.09,0.61-0.32,0.9
	c-1.5,1.9-3.81,2.69-6.51,1.93c-1.78-0.5-3.61-1.63-4.26-3.22c-0.88-0.73-1.27-1.78-0.8-2.76
	C1756.51,1197.69,1762.8,1197.04,1766.96,1200.78z"/>
</svg>
