<?xml version="1.0" encoding="utf-8"?>
<!-- Generator: Adobe Illustrator 23.0.2, SVG Export Plug-In . SVG Version: 6.00 Build 0)  -->
<svg version="1.1" id="Layer_1_-_Outmost_Rocks" xmlns="http://www.w3.org/2000/svg" xmlns:xlink="http://www.w3.org/1999/xlink"
	 x="0px" y="0px" viewBox="0 0 2796.94 3120.78" style="enable-background:new 0 0 2796.94 3120.78;" xml:space="preserve">
<style type="text/css">
	.st0{fill:#121211;}
	.st1{fill:#AEC1C3;}
	.st2{fill:#120E0F;}
	.st3{opacity:0.29;fill:#B4D3D0;stroke:#EEF4F4;stroke-miterlimit:10;}
</style>
<polygon class="st0" points="797.64,1945.8 896.58,2185.58 963.14,2453.44 1380.72,2539.5 1486.89,2691.03 1629.6,2805.56 
	1712.87,2680.46 1749.03,2549.79 1877.06,2502.69 1918.78,2309.49 2083.12,2265.37 2796.94,2428.5 2796.94,3120.78 0,3120.78 
	0,1446.08 "/>
<polygon class="st0" points="0,1084.26 797.64,708.16 936.94,567.18 1307.79,419.3 1468.21,0 0,0 "/>
<polygon class="st0" points="1623.05,0 1688.51,683.86 1872.73,772.38 1994.11,1084.26 2796.94,1353.64 2796.94,0 "/>
<path class="st1" d="M1787.5,2535.64c3.86-1.42,89.56-32.95,89.56-32.95l41.72-193.2l-46.76,190.38L1787.5,2535.64z"/>
<polygon class="st1" points="797.64,708.16 936.94,567.18 1307.79,419.3 921.57,567.18 "/>
<polygon class="st2" points="1877.06,2535.64 1977.79,2377.78 2230.69,2340.35 2486.96,2453.44 2796.94,2484.34 2796.94,3120.78 
	1740.55,3120.78 1962.15,2701.83 "/>
<polygon class="st2" points="1749.03,2549.79 1854.48,2630.59 1712.87,3120.78 1564.96,3120.78 1659.67,2835.29 1758,2691.74 "/>
<path class="st2" d="M1577.29,2865.28c0,0-147.56-161.43-148.63-167.48c-1.08-6.05-47.93-158.29-47.93-158.29H928.99l-102.12-337.54
	l-56.78,13.5l26.51,64.39l144.66,351.35l-19.7,34.43l-109.44-316.99l-64.57,211.93l149.02,294.61L1577.29,2865.28z"/>
<path class="st2" d="M1704.93,162.3c-3.83,17.15,50.79,483.5,50.79,483.5l155.2,126.58l83.19,311.87l300.23-34.74L1977.79,419.3
	L1877.06,706.3l-80.91-95.19L1848.15,0h-143.42L1704.93,162.3z"/>
<path class="st2" d="M2796.94,1319.76c-10.29-9.65-434.68-235.5-434.68-235.5l-279.77-589.57L2565.23,0h231.71V1319.76z"/>
<polygon class="st2" points="1280.92,0 1229.93,418.76 852.25,582.17 655.97,418.76 1076.97,0 "/>
<path class="st2" d="M0,1046.02c10.29-13.71,797.64-337.86,797.64-337.86l-505.9,107.17l-78.87-4.36l584.77-134.15l54.61-94.65
	L0,604.65V1046.02z"/>
<polygon class="st2" points="797.64,1945.8 826.88,2150.53 463.19,2551.22 0,2387.91 0,1446.08 "/>
<circle class="st3" cx="1766.5" cy="2024.43" r="13.59"/>
<circle class="st3" cx="1329.69" cy="808.34" r="13.59"/>
<circle class="st3" cx="1763.3" cy="2069.65" r="8.28"/>
<circle class="st3" cx="1501.65" cy="2549.79" r="8.28"/>
<circle class="st3" cx="1596.83" cy="427.58" r="8.28"/>
<circle class="st3" cx="936.94" cy="919.23" r="8.28"/>
<path class="st0" d="M946.72,2368.48c-1.76-4.25-3.55-8.5-5.38-12.78c-1.24,0.24-2.59-0.02-3.74-1.08c-0.38-0.35-0.78-0.7-1.18-1.02
	c-11.76,0.27-38.65-1.05-32.45-13.77c3.46-7.12,13.7-4.43,19.59-2.66c4.37,1.31,8.43,3.22,12.2,5.65
	c-11.02-25.22-22.77-50.9-33.37-77.01c-0.78,0.28-1.65,0.26-2.53-0.2c-10.11-0.2-19.74-2.76-28.84-7.29
	c-2.31-1.15-2.51-5.13-0.51-6.63c9.06-6.73,18.67-3.69,26.97,1.79c-3.84-9.84-7.46-19.75-10.8-29.71c-0.53,0.02-1.11-0.05-1.72-0.27
	c-8.6-3.08-17.76-5.59-26.06-9.44c-4.81-2.23-8.64-8.69-3.89-13.13c4.9-4.59,13.05,0.44,17.84,2.88c3.26,1.67,6.36,3.57,9.31,5.7
	c-2.06-6.81-3.96-13.65-5.64-20.5c-12.76-3.72-22.17-13.79-25.68-26.76c-0.88-3.23,2.64-5.54,5.45-4.77
	c6.09,1.65,11.05,4.85,15.36,8.89c-0.81-4.57-1.54-9.17-2.13-13.78c-1.55,0.23-3.18-0.38-4.03-2.26c-0.1-0.25-0.22-0.49-0.34-0.73
	c-9.07-3.46-17-9.17-23.2-16.79c-2.16-2.65-0.75-5.95,2.32-6.89c10.5-3.29,18.24,3.21,23.62,11.31c-0.12-1.38-0.21-2.76-0.28-4.14
	c-0.1-0.05-0.16-0.11-0.25-0.17c-11.13-8.8-19.75-19.53-25.71-32.44c-1.42-3.09,1.58-7.29,5.09-5.82
	c8.38,3.5,15.37,8.99,20.47,15.94c0.24-8.78,0.96-17.6,2.25-26.45c-8.2-8.59-13.95-18.55-17.7-29.83c-1.01-3.05,2.75-5.76,5.44-4.78
	c7.19,2.64,12.8,7.43,16.37,13.55c0.71-2.86,1.47-5.74,2.32-8.62c-0.96-13.87,4.16-27.23,14.47-36.84c2.14-1.98,6.67-0.92,6.9,2.33
	c0.96,13.55-3.48,26.24-12.88,36.01c-0.02,1.02-0.37,1.89-0.94,2.56c0,0-0.02,0.01-0.01,0.02c-1.33,4.66-2.46,9.36-3.4,14.05
	c9.17-4.74,19.91-5.52,29.92-1.72c3.9,1.49,3.6,7.17-0.54,8.09c-10.07,2.24-20.15,4.48-30.22,6.71c-0.51,0.1-0.98,0.13-1.42,0.09
	c-1.09,7.67-1.73,15.38-1.98,23.11c5.11-8.43,13.27-14.85,23.25-17.89c3.85-1.18,5.72,3.61,4.31,6.41
	c-6.06,12.01-14.36,22.33-24.72,30.88c-0.07,0.05-0.14,0.1-0.21,0.14c-0.24,1.51-1.19,2.46-2.34,2.92c0.17,3.24,0.42,6.49,0.76,9.73
	c6.14-8.57,17-12.62,28.29-9.18c2.91,0.89,3.94,5.13,1.47,7.09c-7.99,6.33-16.57,10.96-26.15,14.27c-0.01,0.02-0.02,0.03-0.02,0.04
	c-0.21,1.3-0.88,2.25-1.76,2.86c0.9,6.18,1.98,12.3,3.24,18.37c4.82-7.13,11.07-12.84,18.97-17.23c2.57-1.45,6.61,0.91,6.04,4.03
	c-2.29,12.45-10,22.53-21.9,27.08c2.53,10.36,5.5,20.59,8.8,30.72c2.29-10.53,8.75-19.48,18.12-25.38c2.64-1.65,6.46,1.06,6.05,4.05
	c-1.54,11.09-7.48,20.76-16.58,26.83c-0.06,0.55-0.11,1.1-0.13,1.66c-0.12,2.43-1.89,3.65-3.78,3.77c0.68,1.98,1.38,3.95,2.1,5.92
	c5.07-7.94,14.17-12.9,24.15-11.89c2.95,0.29,5.17,3.85,3.22,6.48c-5.96,7.99-13.51,14.22-22.57,18.28
	c5.72,14.87,11.95,29.58,18.36,44.25c-1.73-11.35,0.63-22.8,6.61-32.81c1.96-3.28,6.79-1.88,7.61,1.49
	c2.96,12.35,1.24,25.05-4.67,36.12c0.15,1.63-0.73,2.82-1.97,3.45c-0.02,0.01-0.01,0.02-0.02,0.03c-0.82,1.29-1.94,1.85-3.09,1.87
	c2.61,5.89,5.22,11.77,7.82,17.65c2.91-9.36,9.38-17.29,18.25-22.18c2.95-1.63,6.04,1.02,6.04,4.03
	c-0.02,12.83-6.06,24.92-16.34,32.61c-0.41,0.3-0.83,0.52-1.25,0.66c1.36,3.1,2.71,6.21,4.07,9.31c7.43-7.14,16.47-11.7,26.62-13.51
	c2.89-0.5,6.06,2.45,4.77,5.45c-4.74,11.02-15.26,18.12-27.13,17.97c5.85,13.76,11.45,27.59,16.5,41.6
	c3.81-9.24,8.71-17.89,14.78-25.86c1.94-2.57,7.32-2.48,7.61,1.49c1.04,14.52-5.93,28.05-18.58,35.18
	c2.45,7.2,4.75,14.46,6.84,21.78c1.43-8.87,5.44-16.84,11.64-23.82c2.58-2.91,7.09,0.11,6.97,3.4
	c-0.39,10.85-4.14,20.58-10.85,28.76c-0.01,0.06,0.01,0.13,0,0.19c0.01,1.3-0.78,2.46-1.87,3.17c-0.56,0.76-1.36,1.37-2.28,1.66
	c2.23,8.81,4.14,17.71,5.7,26.74c0.92,5.31-7.3,6.92-8.21,1.61c-1.74-10.17-3.97-20.22-6.56-30.15
	c-12.5-1.51-31.03-5.37-28.29-16.42c1.35-5.46,7.14-6.11,11.63-4.38c4.29,1.67,8.5,3.97,12.65,6.45c-0.53-1.87-1.1-3.72-1.7-5.57
	c-1.5,0.82-3.41,0.78-4.88-0.89c-0.16-0.18-0.34-0.38-0.5-0.56c-8.42-2.53-17.36-4.64-25.36-8.12c-5.22-2.25-7.19-8.06-3.12-12.52
	c4.46-4.87,10.98-2.37,15.93,0.2c5.13,2.69,9.84,6.11,14.08,10.04C957.51,2395.5,952.28,2381.92,946.72,2368.48z"/>
<path class="st0" d="M975.3,2414.56c6.07-1.86,13.8,5.51,17.53,9.34c2.13,2.19,4.04,4.54,5.68,7.03c0.06-6.11-0.07-12.23-0.34-18.33
	c-0.51-0.07-1.05-0.28-1.59-0.62c-12.01-7.69-20.53-18.77-24.62-32.47c-1.18-3.96,3.81-7.12,6.86-4.28
	c8.05,7.45,14.2,16.14,18.65,26.07c-0.57-7.9-1.4-15.77-2.43-23.61c-0.18-0.07-0.35-0.17-0.52-0.28
	c-9.01-5.65-16.96-12.35-23.9-20.41c-2.52-2.93-0.6-8.34,3.82-7.14c6.65,1.78,12.65,4.83,17.72,9.03c-0.47-2.71-0.96-5.42-1.46-8.12
	c-0.17-0.84-0.31-1.67-0.5-2.51c-0.32-0.06-0.63-0.16-0.93-0.31c-12.24-5.5-22.01-14.28-28.84-25.83c-1.77-3.02,0.87-7.35,4.53-6.31
	c7.93,2.27,14.97,6.12,20.79,11.43c-2.02-8.86-4.22-17.73-6.56-26.6c-0.12-0.05-0.23-0.12-0.33-0.18c-0.34-0.02-0.7-0.07-1.05-0.16
	c-0.77-0.01-1.51-0.3-2.13-0.9l-0.03-0.03c-11.98-5.38-21.65-14.6-27.63-26.37c-1.99-3.91,1.6-7.43,5.52-5.93
	c7.96,3.05,14.92,7.94,20.4,14.23c-2.53-8.98-5.13-17.98-7.8-26.99c-0.6,0.2-1.29,0.25-2.02,0.14
	c-10.41-1.64-19.92-6.06-28.05-12.73c-3.12-2.57-0.49-6.77,2.75-7.26c8.74-1.32,17.49,1.75,23.74,7.7
	c-3.08-10.41-6.19-20.83-9.25-31.26c-0.58,0.33-1.32,0.5-2.22,0.41c-12.28-1.14-23.48-6.26-32.03-15.24
	c-2.6-2.75-0.95-6.87,2.75-7.27c10.13-1.07,19.97,2.14,27.56,8.45c-2.24-7.85-4.41-15.7-6.49-23.55c-0.33,0.12-0.69,0.21-1.09,0.26
	c-15.56,1.86-30.49-4.9-39.97-17.22c-2.47-3.19,1.31-6.75,4.51-6.3c12.6,1.73,24.18,6.66,34.2,14.3c-2.54-9.82-4.9-19.64-7.04-29.48
	c-0.64,0.25-1.41,0.31-2.26,0.12c-15.57-3.38-28.78-13.3-36.18-27.42c-2.03-3.87,1.61-7.51,5.5-5.92
	c11.59,4.7,21.86,11.7,30.35,20.73c-1.62-8.17-3.05-16.37-4.26-24.58c-1.07-0.01-2.13-0.46-2.91-1.52
	c-12.45-1.97-23.28-9.89-28.84-21.23c-1.55-3.15,0.67-7.2,4.51-6.3c9.9,2.29,18.68,7.47,25.35,14.84
	c-1.77-15.02-2.74-30.1-2.7-45.22c-1.72,0.1-3.46-0.72-4.12-2.85c-0.03-0.11-0.07-0.22-0.12-0.33
	c-11.78-4.92-20.64-13.65-26.01-25.46c-1.3-2.9,2.19-6.12,4.99-5.29c11.11,3.28,20.15,10.51,25.59,20.32
	c0.3-7.04,0.86-14.09,1.66-21.14c-1.5-0.09-3-0.82-3.77-2.27c-9.31-5.98-16.86-14.09-22.12-23.95c-1.7-3.19,0.77-7.1,4.51-6.3
	c10.79,2.26,19.23,9.68,23.2,19.42c1.41-8.81,3.25-17.62,5.56-26.46c-3.02-13.12-1.92-26.13,3.02-38.71
	c1.12-2.88,5.83-2.87,7.24-0.27c6.94,13,6.45,28.62-2.08,40.79l-0.01,0.02c-1.5,5.72-2.8,11.49-3.9,17.29
	c3.27-5.09,7.47-9.62,12.41-13.46c3.12-2.45,6.83,1.29,6.3,4.51c-2.22,13.71-10.35,25.67-22.19,32.89
	c-0.69,6.69-1.14,13.39-1.38,20.11c5.36-9.06,12.59-16.63,21.46-22.52c3.27-2.16,6.81,1.1,6.31,4.53
	c-2.18,14.86-13.41,27.08-27.99,30.59c0.02,4.28,0.11,8.58,0.3,12.88c5.77-8.8,14.23-15.41,24.36-19.2
	c2.78-1.04,6.36,2.03,5.29,4.98c-4.57,12.57-13.98,22.14-26.61,26.34c0,0.02-0.01,0.04-0.02,0.06c-0.49,1.2-1.29,1.88-2.18,2.15
	c0.2,2.51,0.42,5.04,0.66,7.55c0.39,3.94,0.83,7.87,1.31,11.79c6.6-10.63,16.43-18.34,28.46-22.4c3.65-1.25,6.31,2.85,4.89,5.97
	c-6.07,13.59-17.62,23.6-31.79,27.72c2.91,19.53,7,38.87,11.75,58.12c3.66-6.47,8.54-12.01,14.71-16.61
	c2.42-1.82,6.65,0.33,6.41,3.43c-0.88,11.84-7.31,21.79-17.49,27.36c2.82,10.68,5.8,21.33,8.87,31.97
	c2.92-9.41,8.52-17.58,16.54-23.97c2.54-2.01,6.41,0.49,6.42,3.45c0.06,13.09-6.2,25.04-16.91,32.56c-0.33,0.22-0.66,0.41-0.98,0.51
	c-0.35,0.35-0.74,0.63-1.16,0.84c1.92,6.49,3.85,12.98,5.76,19.47c4.38-8.26,10.71-15.31,18.69-20.7c3.11-2.11,7.05,1.07,6.3,4.51
	c-2.76,12.9-9.93,24.07-20.31,31.99c2.92,9.97,5.82,19.94,8.58,29.92c4.52-11.42,11.24-23.78,17.94-18.15
	c4.82,4.07,1.47,12.75-0.42,17.56c-2.76,6.96-7.15,13.09-12.8,17.99c2.89,10.99,5.58,21.99,7.99,33.04
	c5.99-7.63,13.31-13.94,21.96-18.86c3.06-1.75,7.27,0.82,6.3,4.51c-3.35,12.81-12.42,22.39-25.04,26.42
	c-0.22,0.07-0.45,0.12-0.67,0.17c1.24,6.22,2.38,12.46,3.38,18.72c4.81-7.04,11.13-12.9,18.73-17.32c3.32-1.93,6.83,0.92,6.32,4.51
	c-1.92,13.12-9.99,24.16-21.94,29.88c-0.2,0.1-0.4,0.17-0.59,0.23c3.83,30.54,4.55,61.48,0.22,93.08c-0.75,5.34-8.89,3.36-8.15-1.94
	c1-7.27,1.71-14.57,2.16-21.87c-0.27-0.13-0.52-0.32-0.77-0.52c-7.75-6.52-15.15-13.49-21.9-21.07
	C972.11,2423.79,968.29,2416.74,975.3,2414.56z"/>
<path class="st0" d="M1066.49,2162.81c-44.99,25.01-58.65,78.9-57.86,126.91c1.02,61.09,20.72,124.43-2.55,183.71
	c-0.79,2.01,2.32,3.26,3.11,1.25c20.84-53.08,7.65-109.98,3.71-164.78c-3.76-52.26,4.18-115.8,54.94-144.02
	C1069.71,2164.84,1068.38,2161.76,1066.49,2162.81L1066.49,2162.81z"/>
<path class="st0" d="M971.78,2045.61c-28.42,48.95-16.62,107.96,0.32,158.59c9.42,28.14,20.51,55.78,27.71,84.62
	c6.93,27.75,10.27,56.46,9.15,85.07c-1.26,32.23-8.42,64.16-22.5,93.25c-1.12,2.31,2.33,4.34,3.45,2.02
	c24.17-49.92,28.03-107.09,18.13-161.15c-10.63-58.09-41.09-111.02-48.04-169.89c-3.65-30.91-0.65-63.15,15.22-90.48
	C976.53,2045.4,973.07,2043.38,971.78,2045.61L971.78,2045.61z"/>
<path class="st0" d="M975.19,1996.09c-46.72,44.86-71.98,110.6-67.81,175.21c4.8,74.44,52.49,135.6,69.11,206.81
	c8.91,38.18,9.17,80.12-12.01,114.46c-1.36,2.2,2.1,4.21,3.45,2.02c37.75-61.21,10.45-135.69-16.02-195.32
	c-15.25-34.34-31.45-68.89-37.95-106.18c-5.75-33.02-3.17-67.33,6.47-99.37c10.8-35.88,30.54-68.82,57.59-94.79
	C979.88,1997.13,977.05,1994.31,975.19,1996.09L975.19,1996.09z"/>
<path class="st0" d="M1900.63,2343.2c3.8,4.99-0.18,9.58-4.33,12.37c-7.64,5.14-16.16,9.3-24.3,13.74
	c-1.29,7.84-2.59,15.7-3.71,23.54c8.04-5.59,18.48-11.04,21.86-4.18c4.13,8.35-13.84,15.75-23.9,19.34
	c-0.8,6.56-1.44,13.13-1.87,19.68c6.86-8.89,15.45-16.68,21.45-10.49c9.52,9.8-11.97,22.79-22.13,28.53
	c-0.12,21.73,2.64,43.3,10.49,64.58c1.86,5.02-6.17,7.16-7.99,2.2c-3.48-9.4-5.93-18.86-7.58-28.38c-0.2-0.13-0.38-0.28-0.55-0.45
	c-12.53-3.73-21.25-14.79-22.54-27.78c-0.33-3.25,3.71-5.01,6.23-3.58c5.67,3.22,10.54,7.36,14.52,12.25
	c-0.33-5.01-0.48-10.03-0.48-15.05c-1.06-0.43-1.97-1.29-2.37-2.52c-0.65-0.17-1.31-0.55-1.89-1.16
	c-9.55-10.19-14.77-22.68-15.37-36.62c-0.12-2.54,2.75-4.91,5.24-4c5.62,2.04,8.6,5.88,10.87,11.35c1.66,3.98,3.05,8.11,4.33,12.28
	c0.48-6.32,1.13-12.66,1.92-19c-1.54-0.55-2.45-2.2-2.5-3.9c-4.69-5.4-21.57-20.75-10.89-27.43c7.05-4.39,12.61,3,16.29,10.87
	c0.99-6.35,2.06-12.7,3.13-19.06c-0.8-0.78-1.28-1.91-1.29-3.07c-9.61-7.61-17.49-16.69-23.77-27.24c-1.31-2.19-0.15-5.5,2.47-6.08
	c12.55-2.72,19.56,11.29,25.08,21.72c1.36-8.19,2.67-16.36,3.81-24.52c-0.02,0-0.02,0-0.02-0.02c-0.02-0.02-0.03-0.05-0.03-0.08
	c-0.13-0.15-0.23-0.31-0.31-0.48c-8.92-5.54-25.23-19.46-19.99-30.29c0.63-1.31,2.19-2.01,3.58-2.06
	c5.85-0.18,10.46,6.37,13.74,10.51c1.84,2.32,3.48,4.74,4.94,7.26c0.63-5.75,1.13-11.5,1.48-17.22c-1.44,0.22-2.95-0.32-3.9-1.97
	c-0.1-0.17-0.18-0.33-0.28-0.48c-8.42-1.71-15.68-11.74-19.21-18.55c-1.92-3.7,1.94-7.66,5.67-5.67c7.06,3.76,12.9,8.82,17.49,15.12
	c0.23-0.07,0.46-0.17,0.68-0.27c0.08-5.85-0.02-11.69-0.36-17.5c-0.45-0.08-0.88-0.25-1.29-0.5c-11.7-0.33-22.38-17.14-25.78-25.99
	c-1.29-3.38,3.22-6.58,6.08-4.67c7.48,4.92,13.99,10.69,19.64,17.42c-0.83-6.17-1.97-12.32-3.5-18.43
	c-0.63-0.56-1.26-1.09-1.91-1.62c-10.36-1.26-19.58-5.64-27.3-13c-3.17-3.02,0.17-7.72,4.03-6.93c7.69,1.57,14.8,4.41,21.28,8.4
	c-1.14-3.27-2.39-6.53-3.76-9.78c-1.01-0.38-1.82-1.26-2.11-2.7c-0.03-0.2-0.08-0.41-0.13-0.61c-9.4-7.01-16.31-16.28-20.54-27.35
	c-1.38-3.6,3.18-6.23,6.08-4.69c10.71,5.74,18.58,15.53,21.81,27.15c1.09,0.83,1.57,1.94,1.61,3.07c0.03,0.05,0.07,0.1,0.08,0.15
	c0.35,0.8,0.68,1.57,1.01,2.37c1.53-6.25,4.72-10.96,10.91-10.38c14.67,1.39,0.76,27.62-2.47,33.88c-0.2,0.36-0.41,0.68-0.65,0.94
	c0.99,4.24,1.81,8.5,2.47,12.76c0.05-0.17,0.12-0.33,0.18-0.5c2.2-5.54,7.41-15.58,14.39-15.65c7.76-0.08,6.66,8.47,4.33,13.33
	c-3.45,7.14-8.82,12.91-15.33,17.27c-0.5,0.81-1.06,1.56-1.74,2.24c0.23,3.51,0.38,7.06,0.43,10.59c2.6-4.53,6.48-9.15,12.18-8.87
	c5.35,0.25,8.16,5.04,6.61,9.95c-2.42,7.63-13,14.01-19,18.78c-0.08,0.07-0.15,0.12-0.23,0.17c-0.4,7.01-1.06,14.06-1.87,21.1
	c4.01-3.46,8.16-6.81,12.53-8.98c3.45-1.69,8.32-2.09,10.56,1.79c6.02,10.48-15.65,19.01-25.03,22.03
	c-0.81,5.69-1.69,11.39-2.62,17.09C1884.11,2342.12,1895.01,2335.82,1900.63,2343.2z"/>
<path class="st0" d="M1868.4,2526.31c-28.25-44.8-15.13-99.04-14.89-148.61c0.22-45.47-14.11-89.05-42.18-124.94
	c-1.31-1.68-3.64,0.68-2.34,2.34c31.43,40.18,43.16,88.13,40.75,138.49c-2.16,45.13-9.69,93.97,15.8,134.39
	C1866.67,2529.78,1869.54,2528.12,1868.4,2526.31L1868.4,2526.31z"/>
<path class="st0" d="M1890.04,2507.94c-35.55-41.86-23.47-100.02-5.75-146.72c9.35-24.63,20.46-48.62,28.23-73.83
	c7.61-24.71,10.8-49.93,9.31-75.75c-1.73-30.2-8.59-59.8-15.46-89.16c-0.49-2.08-3.68-1.2-3.2,0.88
	c6.56,28.06,13.14,56.32,15.14,85.14c1.99,28.75-1.86,56.56-10.88,83.89c-16.32,49.49-45.55,97.35-43.78,151.09
	c0.8,24.31,8.16,48.09,24.04,66.8C1889.08,2511.91,1891.41,2509.56,1890.04,2507.94L1890.04,2507.94z"/>
<path class="st0" d="M1884.79,2514.34c-23.97-79.64-1.97-166.42,57.14-224.88c1.52-1.5-0.83-3.85-2.34-2.34
	c-59.92,59.27-82.29,147.37-57.99,228.1C1882.21,2517.26,1885.41,2516.39,1884.79,2514.34L1884.79,2514.34z"/>
<path class="st0" d="M989.55,547.75c-6.15,1.58-13.53-6.15-17.08-10.14c-2.03-2.29-3.82-4.72-5.35-7.28
	c-0.34,6.1-0.5,12.22-0.51,18.33c0.51,0.1,1.03,0.33,1.56,0.69c11.64,8.23,19.65,19.7,23.09,33.57c1,4.02-4.13,6.94-7.05,3.96
	c-7.7-7.81-13.44-16.78-17.43-26.9c0.21,7.91,0.67,15.82,1.34,23.7c0.17,0.08,0.34,0.19,0.51,0.3c8.74,6.06,16.37,13.12,22.93,21.49
	c2.38,3.04,0.22,8.36-4.15,6.96c-6.56-2.09-12.41-5.41-17.29-9.84c0.35,2.73,0.71,5.45,1.09,8.18c0.13,0.85,0.24,1.69,0.38,2.53
	c0.31,0.08,0.62,0.19,0.92,0.35c11.97,6.06,21.33,15.28,27.61,27.14c1.63,3.09-1.21,7.3-4.82,6.09
	c-7.82-2.63-14.67-6.81-20.24-12.38c1.61,8.94,3.4,17.91,5.32,26.87c0.12,0.06,0.22,0.13,0.33,0.19c0.34,0.04,0.7,0.1,1.04,0.2
	c0.77,0.05,1.49,0.37,2.08,0.99l0.02,0.03c11.72,5.93,20.95,15.58,26.39,27.62c1.81,4-1.94,7.35-5.79,5.67
	c-7.81-3.41-14.54-8.62-19.72-15.15c2.11,9.09,4.3,18.2,6.54,27.32c0.61-0.17,1.3-0.19,2.03-0.05c10.32,2.12,19.62,6.97,27.43,14.01
	c3,2.71,0.18,6.78-3.09,7.12c-8.79,0.91-17.39-2.56-23.36-8.79c2.6,10.54,5.22,21.09,7.79,31.65c0.6-0.31,1.34-0.44,2.24-0.31
	c12.22,1.71,23.17,7.33,31.29,16.7c2.47,2.86,0.63,6.91-3.08,7.14c-10.16,0.6-19.85-3.06-27.14-9.71c1.87,7.94,3.68,15.88,5.4,23.83
	c0.34-0.1,0.7-0.18,1.1-0.21c15.63-1.14,30.23,6.3,39.13,19.05c2.32,3.3-1.62,6.68-4.8,6.09c-12.51-2.31-23.85-7.77-33.5-15.86
	c2.08,9.93,3.99,19.85,5.68,29.77c0.65-0.22,1.43-0.24,2.26-0.02c15.4,4.1,28.14,14.61,34.87,29.06c1.85,3.96-1.96,7.43-5.77,5.66
	c-11.36-5.23-21.29-12.7-29.36-22.11c1.24,8.24,2.29,16.49,3.13,24.75c1.07,0.06,2.11,0.55,2.84,1.65
	c12.34,2.54,22.8,10.95,27.83,22.54c1.4,3.22-1,7.17-4.8,6.09c-9.78-2.74-18.32-8.32-24.64-16c1.08,15.09,1.34,30.2,0.61,45.3
	c1.72-0.02,3.42,0.88,3.98,3.03c0.03,0.11,0.06,0.23,0.1,0.34c11.54,5.46,19.99,14.58,24.81,26.64c1.16,2.95-2.47,6.02-5.23,5.06
	c-10.95-3.79-19.64-11.42-24.62-21.48c-0.62,7.02-1.51,14.03-2.64,21.04c1.49,0.16,2.96,0.96,3.66,2.44
	c9.02,6.41,16.19,14.86,20.99,24.94c1.55,3.27-1.1,7.05-4.8,6.09c-10.67-2.76-18.76-10.56-22.28-20.47
	c-1.81,8.74-4.07,17.45-6.78,26.17c2.41,13.25,0.71,26.19-4.81,38.53c-1.25,2.82-5.96,2.6-7.24-0.07
	c-6.33-13.31-5.12-28.89,3.96-40.65l0.01-0.02c1.77-5.65,3.33-11.35,4.69-17.09c-3.5,4.93-7.9,9.26-13.02,12.87
	c-3.23,2.31-6.77-1.6-6.09-4.8c2.85-13.6,11.53-25.16,23.68-31.83c0.99-6.65,1.76-13.32,2.31-20.03
	c-5.77,8.81-13.34,16.03-22.48,21.51c-3.36,2.01-6.75-1.42-6.09-4.82c2.87-14.74,14.65-26.44,29.38-29.27
	c0.18-4.28,0.28-8.57,0.3-12.88c-6.17,8.53-14.93,14.74-25.22,18.05c-2.83,0.91-6.26-2.32-5.05-5.22
	c5.15-12.35,14.99-21.48,27.79-25.08c0-0.02,0.01-0.04,0.02-0.06c0.55-1.18,1.37-1.82,2.28-2.05c-0.09-2.52-0.19-5.05-0.31-7.58
	c-0.21-3.96-0.46-7.9-0.77-11.83c-7.08,10.31-17.26,17.56-29.47,21.07c-3.7,1.08-6.17-3.14-4.61-6.19
	c6.69-13.29,18.69-22.76,33.04-26.22c-2-19.64-5.2-39.16-9.06-58.6c-3.95,6.29-9.09,11.6-15.46,15.91
	c-2.51,1.71-6.62-0.64-6.25-3.72c1.42-11.78,8.31-21.43,18.74-26.52c-2.32-10.8-4.81-21.58-7.38-32.35
	c-3.36,9.27-9.32,17.17-17.63,23.18c-2.63,1.89-6.39-0.78-6.25-3.74c0.54-13.08,7.35-24.73,18.4-31.74
	c0.34-0.21,0.68-0.38,1.01-0.46c0.36-0.33,0.77-0.59,1.2-0.79c-1.61-6.57-3.24-13.14-4.86-19.71c-4.75,8.05-11.41,14.8-19.62,19.82
	c-3.2,1.97-6.99-1.39-6.09-4.8c3.35-12.76,11.03-23.58,21.76-31.02c-2.45-10.09-4.89-20.19-7.19-30.29
	c-5.04,11.2-12.33,23.24-18.76,17.3c-4.63-4.29-0.88-12.81,1.23-17.52c3.07-6.83,7.74-12.75,13.62-17.38
	c-2.38-11.11-4.56-22.23-6.45-33.38c-6.33,7.34-13.94,13.31-22.81,17.82c-3.14,1.61-7.22-1.16-6.09-4.8
	c3.93-12.64,13.44-21.79,26.23-25.24c0.23-0.06,0.46-0.1,0.67-0.14c-0.95-6.27-1.8-12.56-2.51-18.86
	c-5.13,6.81-11.71,12.37-19.51,16.44c-3.4,1.78-6.78-1.24-6.11-4.8c2.53-13.01,11.09-23.67,23.3-28.84c0.2-0.09,0.41-0.16,0.6-0.21
	c-2.42-30.68-1.7-61.63,4.08-92.99c0.99-5.3,9.04-2.95,8.05,2.32c-1.33,7.22-2.38,14.48-3.17,21.75c0.26,0.14,0.5,0.34,0.75,0.55
	c7.44,6.88,14.51,14.17,20.9,22.06C993.16,538.68,996.65,545.9,989.55,547.75z"/>
<path class="st0" d="M970.33,965.78c48.74-42.66,77.01-107.15,75.83-171.89c-1.36-74.58-46.17-137.88-59.49-209.78
	c-7.14-38.55-5.46-80.46,17.29-113.78c1.46-2.13-1.91-4.3-3.36-2.18c-40.54,59.4-16.71,135.06,6.99,195.85
	c13.64,35,28.24,70.27,33.01,107.82c4.22,33.25,0.06,67.4-11.05,98.96c-12.44,35.34-33.69,67.34-61.91,92.03
	C965.7,964.53,968.39,967.48,970.33,965.78L970.33,965.78z"/>
<path class="st0" d="M555.43,875.51c-6.15,1.58-13.53-6.15-17.08-10.14c-2.03-2.29-3.82-4.72-5.35-7.28
	c-0.34,6.1-0.5,12.22-0.51,18.33c0.51,0.1,1.03,0.33,1.56,0.69c11.64,8.23,19.65,19.7,23.09,33.57c1,4.02-4.13,6.94-7.05,3.96
	c-7.7-7.81-13.44-16.78-17.43-26.9c0.21,7.91,0.67,15.82,1.34,23.7c0.17,0.08,0.34,0.19,0.51,0.3c8.74,6.06,16.37,13.12,22.93,21.49
	c2.38,3.04,0.22,8.36-4.15,6.96c-6.56-2.09-12.41-5.41-17.29-9.84c0.35,2.73,0.71,5.45,1.09,8.18c0.13,0.85,0.24,1.69,0.38,2.53
	c0.31,0.08,0.62,0.19,0.92,0.35c11.97,6.06,21.33,15.28,27.61,27.14c1.63,3.09-1.21,7.3-4.82,6.09
	c-7.82-2.63-14.67-6.81-20.24-12.38c1.61,8.94,3.4,17.91,5.32,26.87c0.12,0.06,0.22,0.13,0.33,0.19c0.34,0.04,0.7,0.1,1.04,0.2
	c0.77,0.05,1.49,0.36,2.08,0.99l0.02,0.03c11.72,5.93,20.95,15.58,26.39,27.62c1.81,4-1.94,7.35-5.79,5.67
	c-7.81-3.41-14.54-8.62-19.72-15.15c2.11,9.09,4.3,18.2,6.54,27.32c0.61-0.17,1.3-0.19,2.03-0.05c10.32,2.12,19.62,6.97,27.43,14.01
	c3,2.71,0.18,6.78-3.09,7.12c-8.79,0.91-17.39-2.56-23.36-8.79c2.6,10.54,5.22,21.09,7.79,31.65c0.6-0.31,1.34-0.44,2.24-0.31
	c12.22,1.71,23.17,7.33,31.29,16.7c2.47,2.86,0.63,6.91-3.08,7.14c-10.16,0.6-19.85-3.06-27.14-9.71c1.87,7.94,3.68,15.88,5.4,23.83
	c0.34-0.1,0.7-0.18,1.1-0.21c15.63-1.14,30.23,6.3,39.13,19.05c2.32,3.3-1.62,6.68-4.8,6.09c-12.51-2.31-23.85-7.77-33.5-15.86
	c2.08,9.93,3.99,19.85,5.68,29.77c0.65-0.22,1.43-0.24,2.26-0.02c15.4,4.1,28.14,14.61,34.87,29.06c1.85,3.96-1.96,7.43-5.77,5.66
	c-11.36-5.23-21.29-12.7-29.36-22.11c1.24,8.24,2.29,16.49,3.13,24.75c1.07,0.06,2.11,0.55,2.84,1.65
	c12.34,2.54,22.8,10.95,27.83,22.54c1.4,3.22-1,7.17-4.8,6.09c-9.78-2.74-18.32-8.32-24.64-16c1.08,15.09,1.34,30.2,0.61,45.3
	c1.72-0.02,3.42,0.88,3.98,3.03c0.03,0.11,0.06,0.23,0.1,0.34c11.54,5.46,19.99,14.58,24.81,26.64c1.16,2.95-2.47,6.02-5.23,5.06
	c-10.95-3.79-19.64-11.42-24.62-21.48c-0.62,7.02-1.51,14.03-2.64,21.04c1.49,0.16,2.96,0.96,3.66,2.44
	c9.02,6.41,16.19,14.86,20.99,24.94c1.55,3.27-1.1,7.05-4.8,6.09c-10.67-2.76-18.76-10.56-22.28-20.47
	c-1.81,8.74-4.07,17.45-6.78,26.17c2.41,13.25,0.71,26.19-4.81,38.53c-1.25,2.82-5.96,2.6-7.24-0.07
	c-6.33-13.31-5.12-28.89,3.96-40.65l0.01-0.02c1.77-5.65,3.33-11.35,4.69-17.09c-3.5,4.93-7.9,9.26-13.02,12.87
	c-3.23,2.31-6.77-1.6-6.09-4.8c2.85-13.6,11.53-25.16,23.68-31.83c0.99-6.65,1.76-13.32,2.31-20.03
	c-5.77,8.81-13.34,16.03-22.48,21.51c-3.36,2.01-6.75-1.42-6.09-4.82c2.87-14.74,14.65-26.44,29.38-29.27
	c0.18-4.28,0.28-8.57,0.3-12.88c-6.17,8.53-14.93,14.74-25.22,18.05c-2.83,0.91-6.26-2.32-5.05-5.22
	c5.15-12.35,14.99-21.48,27.79-25.08c0-0.02,0.01-0.04,0.02-0.06c0.55-1.18,1.37-1.82,2.28-2.05c-0.09-2.52-0.19-5.05-0.31-7.58
	c-0.21-3.96-0.46-7.9-0.77-11.83c-7.08,10.31-17.26,17.56-29.47,21.07c-3.7,1.08-6.17-3.14-4.61-6.19
	c6.69-13.29,18.69-22.76,33.04-26.22c-2-19.64-5.2-39.16-9.06-58.6c-3.95,6.29-9.09,11.6-15.46,15.91
	c-2.51,1.71-6.62-0.64-6.25-3.72c1.42-11.78,8.31-21.43,18.74-26.52c-2.32-10.8-4.81-21.58-7.38-32.35
	c-3.36,9.27-9.32,17.17-17.63,23.18c-2.63,1.89-6.39-0.78-6.25-3.74c0.54-13.08,7.35-24.73,18.4-31.74
	c0.34-0.21,0.68-0.38,1.01-0.46c0.36-0.33,0.77-0.59,1.2-0.79c-1.61-6.57-3.24-13.14-4.86-19.71c-4.75,8.05-11.41,14.8-19.62,19.82
	c-3.2,1.97-6.99-1.39-6.09-4.8c3.35-12.76,11.03-23.58,21.76-31.02c-2.45-10.09-4.89-20.19-7.19-30.29
	c-5.04,11.2-12.33,23.24-18.76,17.3c-4.63-4.29-0.88-12.81,1.23-17.52c3.07-6.83,7.74-12.75,13.62-17.38
	c-2.38-11.11-4.56-22.23-6.45-33.38c-6.33,7.34-13.94,13.31-22.81,17.82c-3.14,1.61-7.22-1.16-6.09-4.8
	c3.93-12.64,13.44-21.79,26.23-25.24c0.23-0.06,0.46-0.1,0.67-0.14c-0.95-6.27-1.8-12.56-2.51-18.86
	c-5.13,6.81-11.71,12.37-19.51,16.44c-3.4,1.78-6.78-1.24-6.11-4.8c2.53-13.01,11.09-23.67,23.3-28.84c0.2-0.09,0.41-0.16,0.6-0.21
	c-2.42-30.68-1.7-61.63,4.08-92.99c0.99-5.3,9.04-2.95,8.05,2.32c-1.33,7.22-2.38,14.48-3.17,21.75c0.26,0.14,0.5,0.34,0.75,0.55
	c7.44,6.88,14.51,14.17,20.9,22.06C559.04,866.44,562.53,873.66,555.43,875.51z"/>
<path class="st0" d="M536.21,1293.54c48.74-42.66,77.01-107.15,75.83-171.89c-1.36-74.58-46.17-137.88-59.49-209.78
	c-7.14-38.55-5.46-80.46,17.29-113.78c1.46-2.13-1.91-4.3-3.36-2.18c-40.54,59.4-16.71,135.06,6.99,195.85
	c13.64,35,28.24,70.27,33.01,107.82c4.22,33.25,0.06,67.4-11.05,98.96c-12.44,35.34-33.69,67.34-61.91,92.03
	C531.57,1292.28,534.27,1295.24,536.21,1293.54L536.21,1293.54z"/>
<path class="st0" d="M532.17,890.02c-7.34,0.82-14.51-8.52-17.92-13.3c-1.94-2.74-3.59-5.6-4.91-8.57
	c-1.43,6.49-2.66,13.04-3.72,19.58c0.57,0.18,1.13,0.5,1.67,0.97c11.98,10.49,19.23,23.93,20.82,39.29
	c0.46,4.45-5.94,6.86-8.79,3.25c-7.52-9.48-12.59-19.91-15.44-31.33c-1.12,8.52-1.93,17.06-2.52,25.61c0.19,0.11,0.36,0.25,0.53,0.4
	c9.02,7.75,16.59,16.4,22.7,26.32c2.21,3.6-1.18,9-5.96,6.88c-7.19-3.17-13.35-7.57-18.2-13.02c-0.07,2.98-0.12,5.95-0.15,8.92
	c0,0.93-0.02,1.84,0.01,2.77c0.35,0.13,0.68,0.29,1,0.51c12.74,8.2,21.92,19.43,27.12,33.03c1.35,3.55-2.64,7.66-6.58,5.85
	c-8.55-3.94-15.71-9.39-21.17-16.16c0.32,9.82,0.84,19.69,1.52,29.58c0.13,0.08,0.23,0.17,0.34,0.25c0.38,0.09,0.79,0.21,1.16,0.37
	c0.88,0.16,1.65,0.6,2.23,1.36l0.02,0.03c12.46,8.03,21.44,19.7,25.63,33.38c1.4,4.55-3.49,7.61-7.63,5.25
	c-8.4-4.77-15.25-11.31-20.09-19.06c0.88,10.05,1.83,20.13,2.85,30.24c0.73-0.1,1.53-0.02,2.34,0.24
	c11.51,3.74,21.37,10.27,29.16,18.93c2.99,3.34-0.95,7.3-4.77,7.2c-10.27-0.27-19.57-5.22-25.37-12.75
	c1.19,11.67,2.4,23.37,3.55,35.06c0.74-0.24,1.62-0.28,2.63-0.01c13.76,3.57,25.39,11.16,33.14,22.36c2.35,3.42-0.46,7.5-4.77,7.22
	c-11.79-0.8-22.31-6.1-29.55-14.28c0.8,8.78,1.51,17.56,2.13,26.33c0.41-0.06,0.83-0.09,1.31-0.07c18.17,1,33.7,11.06,41.75,26
	c2.11,3.87-3.01,6.94-6.56,5.85c-13.99-4.26-26.1-11.72-35.82-21.78c0.7,10.94,1.2,21.86,1.43,32.74c0.79-0.14,1.68-0.05,2.6,0.3
	c17.01,6.59,29.87,19.67,35.14,36.13c1.45,4.51-3.52,7.69-7.61,5.25c-12.18-7.22-22.32-16.65-29.99-27.89
	c0.02,9.02-0.18,18.02-0.64,26.99c1.22,0.21,2.33,0.89,2.98,2.17c13.76,4.48,24.36,14.99,28.16,28.13c1.06,3.66-2.38,7.54-6.56,5.85
	c-10.79-4.33-19.65-11.53-25.6-20.67c-1.35,16.34-3.62,32.58-7.05,48.67c1.99,0.22,3.78,1.43,4.06,3.82
	c0.01,0.13,0.03,0.25,0.06,0.38c12.34,7.49,20.5,18.49,23.98,32.1c0.83,3.33-3.87,6.1-6.89,4.68
	c-11.95-5.63-20.64-15.05-24.65-26.54c-1.92,7.44-4.14,14.84-6.63,22.2c1.69,0.38,3.24,1.45,3.79,3.14
	c9.28,8.16,16.08,18.24,19.88,29.74c1.23,3.73-2.47,7.41-6.56,5.85c-11.8-4.48-19.78-13.99-22.12-25.12
	c-3.58,9.11-7.66,18.14-12.28,27.11c0.5,14.55-3.67,28.2-12.12,40.64c-1.93,2.85-7.3,1.94-8.32-1.1c-5-15.18-0.95-31.72,11.51-43.04
	l0.02-0.02c3-5.81,5.77-11.7,8.32-17.66c-4.87,4.79-10.67,8.81-17.18,11.96c-4.12,2.01-7.51-2.68-6.18-6.01
	c5.6-14.18,17.57-25.35,32.69-30.78c2.28-6.99,4.3-14.04,6.08-21.15c-8.14,8.63-18.09,15.3-29.54,19.87
	c-4.21,1.68-7.53-2.48-6.19-6.03c5.82-15.4,21.37-26.27,38.8-27.22c0.94-4.56,1.79-9.16,2.55-13.77
	c-8.56,8.27-19.7,13.69-32.1,15.78c-3.41,0.57-6.8-3.38-4.92-6.32c8.04-12.51,20.91-20.9,36.26-22.95c0-0.02,0.02-0.04,0.03-0.06
	c0.83-1.18,1.89-1.75,2.97-1.87c0.33-2.71,0.64-5.44,0.94-8.17c0.44-4.27,0.82-8.54,1.14-12.8c-9.91,10.06-22.85,16.38-37.5,18.41
	c-4.44,0.63-6.56-4.24-4.24-7.3c9.97-13.3,25.39-21.75,42.49-23.43c1.06-21.35,0.72-42.74-0.39-64.15
	c-5.62,6.18-12.44,11.15-20.51,14.87c-3.17,1.47-7.51-1.63-6.55-4.88c3.65-12.44,13.23-21.8,26.09-25.78
	c-0.82-11.91-1.84-23.83-2.96-35.75c-5.45,9.46-13.66,17.09-24.25,22.36c-3.35,1.66-7.21-1.75-6.55-4.9
	c2.86-13.95,12.69-25.48,26.6-31.43c0.43-0.17,0.85-0.31,1.24-0.35c0.48-0.31,0.98-0.53,1.52-0.67c-0.73-7.28-1.48-14.56-2.21-21.84
	c-6.84,7.96-15.65,14.25-25.96,18.46c-4.02,1.66-7.8-2.49-6.18-6.01c6.04-13.21,16.72-23.73,30.34-30.18
	c-1.09-11.17-2.17-22.35-3.09-33.51c-7.72,11.29-18.16,23.17-24.54,15.89c-4.59-5.26,1.18-13.86,4.41-18.62
	c4.7-6.89,11.09-12.57,18.64-16.7c-0.84-12.26-1.44-24.49-1.71-36.72c-8.54,6.97-18.32,12.3-29.28,15.87
	c-3.88,1.28-8.11-2.27-6.18-6.01c6.69-13,19.18-21.46,34.49-23.34c0.27-0.03,0.54-0.04,0.8-0.05c-0.02-6.87,0.08-13.72,0.34-20.58
	c-7.07,6.58-15.59,11.6-25.26,14.85c-4.22,1.42-7.58-2.29-6.2-6.01c5.13-13.6,16.81-23.81,31.74-27.62c0.25-0.06,0.5-0.11,0.73-0.13
	c2.47-33.26,8.59-66.34,20.6-99.16c2.05-5.54,10.9-1.87,8.87,3.63c-2.77,7.55-5.22,15.19-7.36,22.88c0.28,0.19,0.52,0.44,0.76,0.7
	c7.39,8.43,14.27,17.27,20.27,26.64C537.88,880.8,540.66,889.04,532.17,890.02z"/>
<path class="st0" d="M594.09,1292.06c43.46-48.03,64.05-115.37,55.36-179.53c-10.01-73.92-61.86-131.59-83.44-201.45
	c-11.57-37.46-14.76-79.28,3.96-115.02c1.2-2.29-2.39-4.05-3.59-1.77c-33.37,63.7-0.92,136.09,29.67,193.72
	c17.62,33.18,36.2,66.51,45.3,103.26c8.05,32.53,7.89,66.94,0.51,99.58c-8.26,36.55-25.64,70.79-50.8,98.6
	C589.34,1291.35,592.37,1293.97,594.09,1292.06L594.09,1292.06z"/>
<path class="st0" d="M432.67,1330.47c43.46-48.03,64.05-115.37,55.36-179.53c-10.01-73.92-61.86-131.59-83.44-201.45
	c-11.57-37.46-14.76-79.28,3.96-115.02c1.2-2.29-2.39-4.05-3.59-1.77c-33.37,63.7-0.92,136.09,29.67,193.72
	c17.62,33.18,36.2,66.51,45.3,103.26c8.05,32.53,7.89,66.94,0.51,99.58c-8.26,36.55-25.64,70.79-50.8,98.6
	C427.92,1329.76,430.94,1332.38,432.67,1330.47L432.67,1330.47z"/>
<path class="st0" d="M624.21,790.53c50.53,34.55,118.21,40.6,174.82,17.98c55.76-22.28,95.3-72.45,108.26-130.63
	c7.16-32.13,6.06-65.98-4.31-97.29c-0.81-2.43-4.67-1.39-3.86,1.06c18.08,54.57,7.31,116.48-25.67,163.23
	c-34.77,49.28-93.33,75.32-153.1,72.86c-33.51-1.38-66.4-11.7-94.13-30.67C624.1,785.62,622.09,789.09,624.21,790.53L624.21,790.53z
	"/>
<path class="st0" d="M938.45,552.12c2.65,63.18-9.02,129.46-47.95,180.89c-33.94,44.84-86.84,75.15-144.15,70.06
	c-31.07-2.76-61.12-15.7-82.8-38.39c-1.78-1.86-4.61,0.97-2.83,2.83c39.39,41.21,103.77,50.1,155.47,28.99
	c55.53-22.68,94.55-73.57,112.52-129.62c11.85-36.95,15.36-76.13,13.74-114.76C942.34,549.56,938.34,549.55,938.45,552.12
	L938.45,552.12z"/>
<path class="st0" d="M1825.89,738.55c10.97,67.54,39.04,132,80.82,186.18c11.97,15.52,25.03,30.15,39.08,43.81
	c1.85,1.8,4.68-1.03,2.83-2.83c-48.98-47.6-85.59-107.43-105.84-172.66c-5.65-18.19-9.97-36.77-13.03-55.57
	C1829.34,734.96,1825.48,736.03,1825.89,738.55L1825.89,738.55z"/>
<path class="st0" d="M1689.59,556.4c-43.8-65.95-57.99-149.76-40.39-226.78c5-21.9,12.59-43.12,22.66-63.2
	c1.15-2.29-2.3-4.32-3.45-2.02c-35.97,71.7-40.01,157.78-12.86,233.09c7.73,21.45,17.98,41.92,30.6,60.92
	C1687.55,560.55,1691.02,558.55,1689.59,556.4L1689.59,556.4z"/>
<path class="st0" d="M1683.72,521.45c-27.73-54.37-45.81-113.51-53.74-174.01c-7.84-59.83-5.95-120.98,5.92-180.15
	c6.7-33.4,16.59-66.12,29.55-97.62c0.98-2.38-2.89-3.42-3.86-1.06c-23.21,56.44-36.42,116.75-39.58,177.68
	c-3.17,61.17,3.76,122.93,20.65,181.81c9.44,32.91,22.04,64.87,37.6,95.37C1681.43,525.76,1684.88,523.74,1683.72,521.45
	L1683.72,521.45z"/>
<path class="st0" d="M1308.89,345.97c47.07-34.23,88.45-75.86,122.74-122.88c34.31-47.05,61.41-99.38,79.93-154.59
	c10.52-31.35,18.19-63.62,22.91-96.35c0.36-2.52-3.49-3.61-3.86-1.06c-8.26,57.32-25.69,113.18-51.22,165.16
	c-25.41,51.74-58.64,99.62-98.42,141.35c-22.7,23.81-47.5,45.58-74.11,64.93C1304.81,344.02,1306.81,347.49,1308.89,345.97
	L1308.89,345.97z"/>
<path class="st0" d="M1022.35,2479.85c65.25-7.4,133.83-14.87,196.54,9.71c16.38,6.42,31.89,15.06,45.71,25.97
	c2,1.58,4.85-1.23,2.83-2.83c-51.6-40.73-119.6-47.04-182.99-42.89c-20.76,1.36-41.43,3.7-62.1,6.04
	C1019.82,2476.14,1019.8,2480.14,1022.35,2479.85L1022.35,2479.85z"/>
<path class="st0" d="M1995.19,2304.87c-4.22-38.69,19.28-76.84,56.66-88.72c18.07-5.74,38.04-5.51,55.78,1.33
	c17.04,6.57,31.18,18.75,42.62,32.75c13.2,16.14,23.12,34.71,32.39,53.29c1.15,2.3,4.6,0.28,3.45-2.02
	c-16.89-33.82-37.67-70.87-74.11-86.53c-36.05-15.5-80.1-4.03-103.61,27.42c-13.29,17.78-19.61,40.4-17.2,62.48
	C1991.46,2307.41,1995.47,2307.43,1995.19,2304.87L1995.19,2304.87z"/>
<path class="st0" d="M2288.31,2319.74c-25.15-37.47-60.82-68.46-103.35-84.39c-40.54-15.19-85.9-14.5-125.52,3.28
	c-21.99,9.87-41.29,24.98-55.6,44.41c-1.53,2.07,1.94,4.07,3.45,2.02c25.15-34.15,66.4-53.53,108.22-56.28
	c42.91-2.83,84.8,12.69,118.63,38.58c19.79,15.15,36.84,33.73,50.71,54.4C2286.28,2323.89,2289.75,2321.89,2288.31,2319.74
	L2288.31,2319.74z"/>
</svg>
