<?xml version="1.0" encoding="utf-8"?>
<!-- Generator: Adobe Illustrator 23.0.2, SVG Export Plug-In . SVG Version: 6.00 Build 0)  -->
<svg version="1.1" id="Layer_4_-_Swimmer" xmlns="http://www.w3.org/2000/svg" xmlns:xlink="http://www.w3.org/1999/xlink" x="0px"
	 y="0px" viewBox="0 0 2796.94 3120.78" style="enable-background:new 0 0 2796.94 3120.78;" xml:space="preserve">
<style type="text/css">
	.st0{fill:#D5E3E3;}
	.st1{fill:#184449;}
	.st2{fill:#11313A;}
</style>
<path class="st0" d="M1414.84,1813.39c0,0-0.92,3.93,2.19,10.58c3.11,6.65,20.79,27.68,17.82,37.01c-2.97,9.34,2.1,9.68,10.73,4.87
	s11.21-23.7-8.04-38.28c-19.24-14.57-18.25-26.1-18.25-26.1L1414.84,1813.39z"/>
<path class="st0" d="M1459.96,1872.07c7.11,0,12.45,0.64,15.37-6.29c3.17-7.54,3.3-33.45-13.35-52.99
	c-14.47-16.99-10.24-7.67-8.85,2.18C1457.49,1845.89,1448.58,1872.07,1459.96,1872.07z"/>
<path class="st1" d="M1414.84,1815.83c0,0-0.92,3.93,2.19,10.58c3.11,6.65,18.25,27.31,15.28,36.65c-2.97,9.34,2.97,8.77,11.6,3.96
	c8.63-4.81,12.88-24.19-6.37-38.77c-19.24-14.57-18.25-24.34-18.25-24.34L1414.84,1815.83z"/>
<path class="st1" d="M1459.96,1874.51c7.11,0,14.04-1.33,15.37-8.73c1.33-7.4,3.3-31.01-13.35-50.56
	c-14.47-16.99-10.24-7.67-8.85,2.18C1457.49,1848.33,1448.58,1874.51,1459.96,1874.51z"/>
<path class="st0" d="M1378.16,1596.18c0,0-4.91-10.14-5.52-17.72c-0.61-7.58,1.71-13.69,11-15.4c9.29-1.71,13.22,2.14,15.26,7.83
	c2.04,5.69,16.17,21.68,20.7,39.53c4.52,17.84-0.36,15.26,2.36,28.33c2.16,10.37,8.74,16.69,8.74,16.69s-9.81-1.17-11.49-13.05
	c0,0,0.36,10.1,8.91,14.38c0,0-4.02,6.64-10.62,4.2C1410.89,1658.51,1378.16,1596.18,1378.16,1596.18z"/>
<path class="st1" d="M1378.16,1597.87c0,0-4.91-10.14-5.52-17.72c-0.61-7.58,1.71-13.69,11-15.4c9.29-1.71,13.22,2.14,15.26,7.83
	c2.04,5.69,15.18,22.23,19.7,40.08c4.52,17.84,0.46,15.28,3.18,28.35c2.16,10.37,8.92,14.42,8.92,14.42s-9.81,0.52-11.49-11.37
	c0,0,0.36,10.1,8.91,14.38c0,0-4.02,6.64-10.62,4.2C1410.89,1660.2,1378.16,1597.87,1378.16,1597.87z"/>
<path class="st2" d="M1390.52,1515.24c2.29,3.25,17.32,20.71,22.41,25.97s2.72,5.77,3.23,11.2s1.53,24.45,0.34,39.72
	c-1.19,15.28,2.72,21.39,2.72,30.05s-2.89,29.37,0,37.86c2.89,8.49,16.13,20.88,20.2,38.87s2.55,37.01,3.4,42.61
	c0.85,5.6,8.83,10.86,10.53,22.41c1.7,11.54,1.02,24.95,2.72,30.39c1.7,5.43,5.43,22.58,8.83,27.33c3.4,4.75,6.45,10.53,3.9,14.09
	s-5.94,5.26-8.49,4.24s-4.75-13.92-5.6-20.2c-0.85-6.28-8.15-19.86-12.22-31.07s-6.11-30.56-10.36-34.46
	c-4.24-3.9-17.49-42.44-20.2-41.59c-2.72,0.85,2.38,32.59,0.34,41.59c-2.04,9-2.21,14.6-0.17,20.88c2.04,6.28,5.26,18.33,7.81,29.54
	s4.58,13.75,7.98,16.13c3.4,2.38,10.53,12.22,9,15.45s-8.15,2.21-10.86-1.53s-7.81-8.32-10.19-16.13
	c-2.38-7.81-11.37-23.6-16.13-35.48c-4.75-11.88-2.04-22.75-6.62-33.44c-4.58-10.69-14.6-33.95-14.26-53.3
	c0.34-19.35,4.58-23.6,3.06-34.12c-1.53-10.53-2.95-28.12-5.49-28.12s-1.28,11.72-3.32,18.85c-2.04,7.13-9.88,25.2-8.26,30.77
	c1.62,5.58-1.2,10.14-1.71,11.55s-2.1-1.32-1.33-2.99c0.77-1.67,0-3.46-1.28-2.95s-4.43,5.96-4.3,9.93
	c0.13,3.97-1.72,4.56-1.85,4.17c-0.13-0.38-0.38-1.03-0.38-1.03s-0.8,2.28-1.7,2.02c-0.9-0.26,0.32-4.54,0.19-6.46
	s0.55-5.03,2.73-10.16c2.18-5.13,3.65-7.45,4.16-14.76c0.51-7.31,2.73-20.14,4.74-30.77c1.79-9.49,3.18-26.28,9.62-30
	c11.75-6.79,5.64-11.03,3.08-20.26c-2.56-9.23-5.27-21.69,5.8-25.54c10.23-3.56,13.92,1.87,15.62,4.58c1.7,2.72,1.53,6.62,3.56,7.98
	c0,0-0.51-10.69,0.34-17.82s1.87-11.03-1.02-14.26c-2.89-3.23-13.41-20.88-16.13-25.8c-2.72-4.92-3.9-5.26-6.79-5.26
	c-2.89,0-9-1.36-9.85-2.21c-0.85-0.85,1.72-2.01,4.24-1.19c2.34,0.76,5.06-0.26,4.58-1.36c-1.6-3.7-3.6-6.37-4.77-8.37
	c-1.18-2-5.23-6.35-4.05-7.58c1.18-1.23,2.51,0.72,2.51,0.72s-2.36-3.18-1.08-4s3.02,1.79,4.25,3.13c1.23,1.33,3.94,5.64,4.1,5.48
	s-4.92-6.97-5.33-7.58c-0.41-0.61-0.46-1.64,0.46-1.54c0.92,0.1,3.23,2.31,4.35,3.79c0,0-0.36-1.18,0.51-1.23
	c0.87-0.05,2.41,1.49,3.64,3.48c1.23,2,4.3,6.15,5.33,9.27C1388.06,1509.86,1388.93,1512.97,1390.52,1515.24z"/>
<path class="st1" d="M1401.72,1579.06c0,0,1.67,13.96-0.31,19.69s-5.83,5.93-5.83,5.93s-2.16-6.3,1.98-9.5
	c4.14-3.2,2.35-19.28,2.35-19.28L1401.72,1579.06z"/>
</svg>
