<?xml version="1.0" encoding="utf-8"?>
<!-- Generator: Adobe Illustrator 23.0.2, SVG Export Plug-In . SVG Version: 6.00 Build 0)  -->
<svg version="1.1" id="Layer_2_-_Top_Rocks" xmlns="http://www.w3.org/2000/svg" xmlns:xlink="http://www.w3.org/1999/xlink"
	 x="0px" y="0px" viewBox="0 0 2796.94 3120.78" style="enable-background:new 0 0 2796.94 3120.78;" xml:space="preserve">
<style type="text/css">
	.st0{fill:#1D2526;}
	.st1{fill:#171E1E;}
	.st2{fill:#222B2B;}
	.st3{fill:#AEC1C3;}
	.st4{fill:#3E4E51;}
	.st5{fill:#334042;}
	.st6{fill:#111414;}
	.st7{fill:#AD8C49;}
	.st8{fill:#C1A056;}
	.st9{fill:#DFE5E5;}
	.st10{fill:#F2F2F2;}
	.st11{clip-path:url(#SVGID_2_);fill:#D0D8D7;}
	.st12{clip-path:url(#SVGID_4_);fill:#D0D8D7;}
	.st13{clip-path:url(#SVGID_6_);fill:#D0D8D7;}
	.st14{clip-path:url(#SVGID_8_);fill:#D0D8D7;}
</style>
<path class="st0" d="M0.04-0.04v3120.78h2796.94V-0.04H0.04z M2033.99,2257.34l-249.55,29.23l-124.73,124.66l-509.79-112.41
	l-259.25,64.86l-92.99-704.76l139.3-443.2l250.22-263.73l293.61-304.92l63.39-256.81l98.61,420.67l32.26,314.63l176.46,149.06
	l42.2,270.91l149.25,231.69L2033.99,2257.34z"/>
<polygon class="st1" points="947.33,981.06 848.87,836.26 1172.47,407.69 1380.72,344.66 1408,418.76 1132.7,695.06 "/>
<polygon class="st2" points="2043.71,1785.28 2131.02,1895.04 2131.02,2298.87 2033.95,2257.38 "/>
<polygon class="st2" points="1784.4,2286.61 2033.95,2257.38 2117.67,2275.76 1912.75,2438.2 1832.08,2342.92 "/>
<path class="st2" d="M1758,2484.34c0.48,0.12,74.08-141.42,74.08-141.42l86.7,49.81l-6.03,45.47l-105.16,156.78L1758,2484.34z"/>
<polygon class="st2" points="1784.4,2286.61 1838.39,2309.55 1734.58,2468.95 1659.67,2411.28 "/>
<polygon class="st2" points="1149.88,2298.87 1659.67,2411.28 1707.43,2436.81 1166.77,2321.42 "/>
<path class="st2" d="M1383.18,2396.95c4.29,2.83,297.07,72.01,297.07,72.01l49.97,67.19l-77.26,42.52l-375.89-82.11l59.55-85.28
	L1383.18,2396.95z"/>
<polygon class="st2" points="1893.69,1545.57 1851.49,1274.66 1675.03,1125.6 1902.15,1257.56 1994.11,1527.35 1966.82,1568.41 
	1888.66,1292.75 1886.18,1322.07 1951.03,1560.39 "/>
<polygon class="st2" points="797.64,1658.96 936.94,1215.76 1187.17,952.03 896.54,1170.74 655.97,1676.39 721.32,1698.33 
	871.6,1304.23 872.44,1344.7 752.88,1689.23 "/>
<path class="st2" d="M1480.78,647.11l-280.84,290l230.67-339.49l67.47-338.51l42.73-10.72l-8.26,35.62l-69.5,299.83
	c0,0,8.46,42.89,5.53,38.29c-2.93-4.6,78.71-333.92,78.71-333.92l81.64-91.9l-84.78,193.99L1480.78,647.11z"/>
<polygon class="st2" points="1642.77,810.97 1704.93,1083.96 1675.03,1125.6 "/>
<polygon class="st2" points="2117.67,1828.55 1893.69,1545.57 1951.03,1560.39 2143.41,1838.43 "/>
<polygon class="st2" points="890.63,2363.72 797.64,1658.96 763.13,1931.78 869.51,2367.84 "/>
<path class="st2" d="M887.72,2416.42c3.53-2.98,262.16-117.55,262.16-117.55v68.97l-221.85,70.36L887.72,2416.42z"/>
<polygon class="st2" points="1619.88,713.3 1769.59,1116.01 1860.82,1182.8 2001.34,1199.74 1704.93,349.42 1642.77,307.52 
	1834.25,1054.78 1812.14,1049.52 1642.77,375.35 1576.22,316.95 1544.16,390.3 "/>
<polygon class="st2" points="947.33,981.06 1053.04,993.83 1212.22,879.75 1383.18,619.01 1408,418.76 1132.7,695.06 
	1348.71,439.75 1255.8,466.91 936.94,847.69 "/>
<polygon class="st2" points="2056.64,1117.38 2056.64,1579.07 2217.12,1890.9 2267.68,2101.15 2362.26,1771.37 2143.41,1458.77 
	2155.15,1369.12 2320.76,1676.39 2335.75,1412.8 2155.15,1077.86 "/>
<path class="st2" d="M810.17,899.46c0.91,9.95,59.25,178.4,59.25,178.4l-235.31,413.66l-114.74,119.46l38.44-336.32l205.32-225.14
	l2.8-67.13l-267.95,321.84l101.33-292.14L810.17,899.46z"/>
<path class="st2" d="M622.44,2024.43c7.78-0.22,219.07,470.99,219.07,470.99l315.73,20.69l211.89,202.27l-148.86,68.89
	l-597.84-167.72l21.39-82.75l322.94,73.55l-357.95-122.54l-66.12-429.83L622.44,2024.43z"/>
<polygon class="st3" points="1851.49,1274.66 1893.69,1545.57 2042.97,1777.22 1885.06,1539.17 "/>
<polygon class="st3" points="1675.03,1125.6 1642.77,810.97 1571.06,505.06 1636.41,831.14 "/>
<polygon class="st3" points="1149.88,2298.87 890.63,2363.72 797.64,1658.96 896.54,2348.65 "/>
<polygon class="st3" points="1564.96,2390.39 1659.67,2411.28 1784.4,2286.61 2033.95,2257.38 2037.75,2073.67 2028.18,2253.93 
	1792.38,2274.44 1658.82,2407.87 "/>
<path class="st1" d="M1730.21,2536.15l13.63,58.84l-89.79,70.65c0,0-408.78-104.15-406.83-107.09s29.83-61.99,29.83-61.99
	l375.89,82.11L1730.21,2536.15z"/>
<polygon class="st1" points="1734.58,2468.95 1743.85,2538.99 1830.67,2670.04 1977.79,2536.2 2282.88,2496.56 2131.02,2298.87 
	2103.97,2286.61 1807.59,2594.98 1758,2484.34 1832.08,2342.92 1823.36,2332.63 "/>
<polygon class="st1" points="2131.02,1895.04 2196.82,1993.29 2223.23,2330 2131.02,2298.87 "/>
<polygon class="st1" points="655.97,1676.39 621.09,1619.63 856.14,1155.39 1088.16,1026.54 896.54,1170.74 "/>
<polygon class="st1" points="783.62,1769.78 722.34,1829.86 694.14,1999.09 850.91,2392.73 869.51,2367.84 763.13,1931.78 "/>
<polygon class="st1" points="1966.82,1568.41 2028.15,1589.51 2038.53,1529.97 1930.61,1249.54 1675.03,1125.6 1902.15,1257.56 
	1994.11,1527.35 "/>
<polygon class="st1" points="2267.68,2101.15 2374.75,2177.88 2469.93,1785.28 2387.44,1660.37 2405.7,1406.57 2209.95,1054.78 
	2155.15,1077.86 2335.75,1412.8 2320.76,1676.39 2155.15,1369.12 2143.41,1458.77 2362.26,1771.37 "/>
<polygon class="st1" points="1369.13,2718.38 1353.59,2817.76 1216.94,2880.78 606.86,2694.23 521.15,2136.35 542.7,2057.98 
	608.82,2487.81 966.77,2610.35 643.83,2536.79 622.44,2619.54 1220.27,2787.27 "/>
<polygon class="st1" points="1430.61,597.63 1430.61,344.66 1495.54,185.84 1561.1,153.07 1540.81,248.39 1498.09,259.11 "/>
<polygon class="st1" points="1642.77,307.52 1706.09,211.05 1772.75,259.28 2028.15,1125.6 2001.34,1199.74 1704.93,349.42 "/>
<polygon class="st1" points="1576.22,316.95 1628.94,196.31 1695.94,256.63 1642.77,307.52 1834.25,1054.78 1812.14,1049.52 
	1642.77,375.35 "/>
<path class="st0" d="M2012.75,1749.96c-3.86,0.21-7.35-5.29-9-8.09c-0.94-1.61-1.72-3.27-2.33-4.99c-0.93,3.6-1.76,7.24-2.49,10.89
	c0.29,0.12,0.58,0.32,0.85,0.6c5.97,6.31,9.38,14.11,9.79,22.81c0.12,2.52-3.3,3.65-4.68,1.53c-3.67-5.59-6.03-11.63-7.2-18.15
	c-0.82,4.75-1.49,9.53-2.03,14.32c0.1,0.07,0.18,0.15,0.27,0.24c4.5,4.66,8.21,9.79,11.13,15.58c1.06,2.1-0.87,5.02-3.31,3.66
	c-3.67-2.03-6.77-4.71-9.15-7.94c-0.12,1.67-0.23,3.34-0.33,5.01c-0.02,0.52-0.06,1.04-0.07,1.56c0.18,0.08,0.35,0.19,0.51,0.32
	c6.43,5.05,10.92,11.67,13.26,19.5c0.6,2.04-1.59,4.22-3.6,3.07c-4.36-2.51-7.95-5.82-10.62-9.81c-0.11,5.53-0.11,11.1-0.03,16.69
	c0.06,0.05,0.12,0.11,0.17,0.15c0.2,0.06,0.41,0.14,0.59,0.25c0.46,0.12,0.85,0.4,1.13,0.84l0.01,0.02
	c6.29,4.94,10.66,11.81,12.47,19.65c0.6,2.61-2.04,4.16-4.13,2.69c-4.26-2.97-7.66-6.88-9.97-11.4c0.18,5.68,0.4,11.38,0.65,17.1
	c0.39-0.03,0.8,0.04,1.22,0.21c5.91,2.5,10.89,6.5,14.71,11.64c1.47,1.98-0.7,4.07-2.69,3.89c-5.36-0.5-10.08-3.6-12.91-8.04
	c0.3,6.61,0.6,13.22,0.88,19.84c0.39-0.11,0.85-0.1,1.37,0.08c7.09,2.48,12.96,7.14,16.7,13.71c1.13,2.01-0.45,4.2-2.69,3.9
	c-6.14-0.85-11.49-4.2-15.05-9.04c0.17,4.97,0.3,9.93,0.38,14.88c0.21-0.02,0.44-0.02,0.68,0.01c9.47,1.18,17.31,7.37,21.1,16.05
	c0.99,2.25-1.77,3.8-3.59,3.06c-7.2-2.87-13.32-7.48-18.12-13.47c0.06,6.18,0.02,12.33-0.16,18.46c0.42-0.05,0.88,0.03,1.35,0.26
	c8.71,4.29,15.06,12.08,17.36,21.52c0.63,2.58-2.05,4.2-4.12,2.69c-6.16-4.48-11.2-10.13-14.9-16.71
	c-0.24,5.07-0.6,10.13-1.09,15.16c0.63,0.16,1.19,0.58,1.5,1.32c7.07,2.99,12.31,9.26,13.93,16.78c0.45,2.09-1.45,4.16-3.59,3.06
	c-5.52-2.8-9.95-7.16-12.81-12.5c-1.16,9.14-2.8,18.2-5.04,27.13c1.03,0.19,1.94,0.93,2.02,2.29c0,0.07,0.01,0.14,0.02,0.21
	c6.24,4.64,10.2,11.1,11.64,18.87c0.34,1.9-2.19,3.3-3.73,2.4c-6.09-3.57-10.37-9.17-12.15-15.77c-1.21,4.12-2.58,8.2-4.09,12.25
	c0.87,0.27,1.65,0.93,1.9,1.9c4.62,4.9,7.9,10.81,9.56,17.4c0.54,2.14-1.5,4.08-3.59,3.06c-6.04-2.92-9.95-8.55-10.86-14.88
	c-2.13,5-4.51,9.94-7.17,14.82c-0.14,8.2-2.7,15.73-7.47,22.44c-1.09,1.54-3.87,0.84-4.32-0.9c-2.19-8.71,0.39-17.87,7.21-23.81
	l0.01-0.01c1.73-3.16,3.34-6.38,4.84-9.65c-2.68,2.53-5.82,4.59-9.31,6.14c-2.21,0.99-3.85-1.77-3.06-3.59
	c3.32-7.78,9.89-13.65,17.94-16.19c1.39-3.85,2.64-7.75,3.77-11.69c-4.5,4.57-9.88,7.98-15.99,10.16c-2.25,0.8-3.86-1.65-3.07-3.6
	c3.47-8.46,11.9-14.04,21.04-13.98c0.62-2.53,1.19-5.09,1.71-7.66c-4.7,4.36-10.68,7.02-17.22,7.78c-1.8,0.2-3.46-2.13-2.4-3.72
	c4.55-6.76,11.51-11.04,19.59-11.67c0-0.01,0.01-0.02,0.02-0.03c0.47-0.64,1.04-0.92,1.61-0.95c0.25-1.51,0.49-3.04,0.72-4.56
	c0.35-2.39,0.67-4.77,0.95-7.16c-5.46,5.32-12.4,8.43-20.12,9.07c-2.34,0.2-3.31-2.61-2.02-4.25c5.58-7.14,13.88-11.36,22.86-11.72
	c1.15-11.97,1.56-24.01,1.58-36.09c-3.11,3.29-6.81,5.84-11.13,7.66c-1.7,0.72-3.88-1.17-3.29-2.97
	c2.26-6.87,7.52-11.81,14.36-13.61c-0.1-6.73-0.3-13.46-0.55-20.2c-3.11,5.13-7.62,9.14-13.3,11.74c-1.8,0.82-3.72-1.23-3.29-2.98
	c1.88-7.75,7.34-13.89,14.78-16.76c0.23-0.08,0.45-0.15,0.66-0.16c0.26-0.16,0.53-0.26,0.81-0.33c-0.18-4.12-0.37-8.24-0.55-12.36
	c-3.8,4.24-8.58,7.48-14.09,9.5c-2.15,0.79-4.01-1.67-3.06-3.59c3.52-7.22,9.4-12.77,16.7-15.93c-0.26-6.32-0.51-12.64-0.68-18.95
	c-4.35,6.09-10.14,12.41-13.27,8.09c-2.25-3.11,1-7.76,2.82-10.32c2.65-3.71,6.15-6.69,10.21-8.76c-0.1-6.92-0.07-13.82,0.13-20.71
	c-4.66,3.63-9.92,6.29-15.75,7.93c-2.06,0.59-4.18-1.55-3.06-3.59c3.86-7.08,10.63-11.41,18.68-11.95c0.14-0.01,0.29,0,0.42,0
	c0.18-3.86,0.42-7.72,0.75-11.56c-3.88,3.46-8.47,5.99-13.62,7.49c-2.24,0.66-3.9-1.55-3.07-3.59c3.06-7.47,9.45-12.81,17.36-14.44
	c0.13-0.03,0.26-0.04,0.39-0.05c2.22-18.62,6.34-37.01,13.53-55.06c1.22-3.05,5.75-0.68,4.53,2.34c-1.66,4.15-3.15,8.37-4.49,12.61
	c0.14,0.12,0.26,0.26,0.38,0.42c3.63,5,6.98,10.2,9.85,15.67C2015.99,1744.97,2017.22,1749.7,2012.75,1749.96z"/>
<path class="st4" d="M995.58,476.98c41.06,36.48,37.24,95.75,26.24,144.47c-5.8,25.7-13.45,51-17.61,77.06
	c-4.08,25.54-3.7,50.95,1.38,76.31c5.94,29.66,16.88,58.01,27.79,86.12c0.77,1.99,3.81,0.67,3.04-1.32
	c-10.43-26.87-20.9-53.92-26.91-82.19c-6-28.18-6.07-56.27-0.97-84.59c9.24-51.29,31.47-102.77,22.2-155.73
	c-4.19-23.96-14.81-46.48-33.16-62.78C995.98,472.91,993.99,475.57,995.58,476.98L995.58,476.98z"/>
<path class="st0" d="M1938.25,1884.37c29.35-11.05,42.4-42.29,46.21-71.29c4.85-36.9-1.36-76.82,17.97-110.46
	c0.66-1.14-1.11-2.17-1.76-1.03c-17.3,30.12-14.44,65.58-16.97,98.95c-2.41,31.83-12.87,69.4-45.98,81.86
	C1936.49,1882.86,1937.02,1884.83,1938.25,1884.37L1938.25,1884.37z"/>
<path class="st5" d="M999.88,469.91c34.88,75.5,25.25,164.5-25.09,230.66c-1.29,1.7,1.36,3.69,2.65,1.99
	c51.03-67.07,60.85-157.43,25.48-233.98C1002.03,466.66,998.98,467.96,999.88,469.91L999.88,469.91z"/>
<path class="st5" d="M1008.16,641.58c-4.46-4.41-1.16-9.51,2.55-12.85c6.85-6.16,14.7-11.47,22.14-17.01
	c0.18-7.94,0.36-15.91,0.38-23.83c-7.18,6.66-16.76,13.52-21.06,7.2c-5.26-7.69,11.5-17.53,20.96-22.5
	c-0.13-6.61-0.41-13.2-0.9-19.74c-5.55,9.76-12.96,18.67-19.77,13.39c-10.79-8.37,8.66-24.24,17.92-31.35
	c-2.93-21.53-8.67-42.5-19.43-62.48c-2.54-4.71,5.1-7.95,7.6-3.3c4.76,8.82,8.52,17.85,11.47,27.04c0.22,0.1,0.42,0.23,0.6,0.37
	c12.93,1.94,23.11,11.67,26.21,24.35c0.78,3.17-2.98,5.48-5.67,4.42c-6.06-2.39-11.47-5.81-16.09-10.1
	c1.03,4.91,1.88,9.86,2.58,14.84c1.11,0.28,2.13,1,2.7,2.16c0.66,0.07,1.37,0.36,2.03,0.88c10.88,8.76,17.8,20.39,20.34,34.11
	c0.47,2.5-2.04,5.24-4.63,4.69c-5.85-1.23-9.34-4.62-12.36-9.72c-2.2-3.71-4.16-7.6-6-11.56c0.41,6.32,0.66,12.7,0.76,19.08
	c1.6,0.33,2.74,1.84,3.02,3.51c5.4,4.69,24.26,17.53,14.62,25.64c-6.36,5.34-12.91-1.2-17.66-8.49c-0.1,6.43-0.26,12.86-0.43,19.31
	c0.9,0.66,1.53,1.71,1.71,2.86c10.58,6.19,19.65,14.08,27.35,23.64c1.6,1.98,0.92,5.43-1.59,6.37
	c-12.04,4.45-20.95-8.44-27.87-17.99c-0.2,8.3-0.35,16.57-0.34,24.81c0.02,0,0.02,0,0.02,0.01c0.02,0.01,0.04,0.04,0.04,0.08
	c0.15,0.13,0.27,0.28,0.38,0.43c9.61,4.23,27.71,15.74,24.03,27.19c-0.44,1.38-1.89,2.29-3.26,2.54c-5.77,1-11.25-4.84-15.08-8.48
	c-2.15-2.04-4.11-4.21-5.91-6.5c0.18,5.78,0.49,11.55,0.95,17.26c1.4-0.42,2.97-0.1,4.13,1.41c0.12,0.15,0.23,0.3,0.35,0.44
	c8.58,0.51,17.17,9.43,21.62,15.68c2.42,3.39-0.85,7.85-4.82,6.41c-7.52-2.74-14-6.93-19.43-12.52c-0.22,0.1-0.44,0.23-0.64,0.36
	c0.74,5.81,1.65,11.57,2.81,17.28c0.45,0.02,0.9,0.12,1.35,0.31c11.63-1.31,24.56,13.84,29.16,22.13c1.75,3.17-2.26,6.97-5.37,5.48
	c-8.09-3.83-15.35-8.63-21.89-14.5c1.68,5.99,3.68,11.92,6.04,17.76c0.7,0.47,1.4,0.91,2.11,1.34c10.43-0.2,20.17,2.84,28.85,9.05
	c3.56,2.54,0.92,7.67-3.02,7.42c-7.84-0.48-15.27-2.29-22.25-5.34c1.59,3.07,3.28,6.13,5.1,9.16c1.05,0.24,1.98,0.99,2.46,2.38
	c0.06,0.19,0.14,0.4,0.22,0.59c10.29,5.63,18.43,13.83,24.17,24.21c1.87,3.37-2.28,6.62-5.37,5.5
	c-11.41-4.18-20.57-12.78-25.4-23.83c-1.2-0.67-1.83-1.7-2.02-2.81c-0.04-0.04-0.08-0.09-0.1-0.14c-0.46-0.74-0.89-1.46-1.33-2.21
	c-0.64,6.4-3.14,11.51-9.35,11.8c-14.72,0.68-4.62-27.24-2.3-33.89c0.15-0.39,0.32-0.73,0.51-1.03c-1.58-4.06-2.98-8.17-4.23-12.29
	c-0.03,0.17-0.07,0.34-0.11,0.52c-1.41,5.79-5.16,16.47-12.06,17.51c-7.67,1.17-7.78-7.45-6.15-12.59
	c2.41-7.56,6.92-14.02,12.76-19.25c0.38-0.87,0.83-1.69,1.41-2.46c-0.72-3.45-1.37-6.94-1.91-10.43
	c-1.94,4.85-5.14,9.97-10.82,10.49c-5.34,0.5-8.78-3.85-7.94-8.92c1.33-7.89,10.91-15.69,16.18-21.26c0.07-0.08,0.13-0.14,0.21-0.2
	c-0.59-7-0.92-14.07-1.1-21.16c-3.49,3.99-7.12,7.89-11.15,10.65c-3.18,2.16-7.95,3.23-10.71-0.29
	c-7.42-9.53,12.83-21.02,21.7-25.32c0.01-5.74,0.08-11.51,0.2-17.29C1024.66,640.33,1014.76,648.09,1008.16,641.58z"/>
<polygon class="st1" points="690.65,847.05 1005.75,535.79 1165.68,310.01 1271.3,313.6 1328.15,134.01 723.36,258.23 
	471.08,712.09 566.68,862.28 "/>
<polygon class="st2" points="690.65,847.05 1005.75,535.79 1165.68,310.01 1271.3,313.6 1411.44,198 1328.15,134.01 799.32,376.42 
	566.68,862.28 "/>
<path class="st5" d="M1088.3,488.06c1.93,0.76,2.65,2.35,1.87,4.28c-0.32,0.78-0.7,1.5-1.16,2.17c0.11,0.43,0.08,0.93-0.13,1.5
	c-1.41,3.69-4.3,6.29-8.26,6.93c-2.62,0.42-5.5-0.03-6.94-1.89c-1.46-0.48-2.35-1.75-2.05-3.46
	C1072.93,490.3,1081.33,485.35,1088.3,488.06z"/>
<path class="st5" d="M1004.82,585.32c1.29,2.4,0.53,4.64-2.1,5.96c-1.07,0.53-2.15,0.94-3.26,1.24c-0.29,0.54-0.8,1.03-1.56,1.42
	c-4.96,2.59-10.42,2.81-15.14,0.13c-3.12-1.78-5.69-4.67-5.43-7.79c-1.07-1.72-0.79-3.76,1.14-5.26
	C986.71,574.65,1000.12,576.67,1004.82,585.32z"/>
<path class="st5" d="M1412.22,2427.32c1.29,2.4,0.53,4.64-2.1,5.96c-1.07,0.53-2.15,0.94-3.26,1.24c-0.29,0.54-0.8,1.03-1.56,1.42
	c-4.96,2.59-10.42,2.81-15.14,0.13c-3.12-1.78-5.69-4.67-5.43-7.79c-1.07-1.72-0.79-3.76,1.14-5.26
	C1394.11,2416.66,1407.52,2418.67,1412.22,2427.32z"/>
<path class="st2" d="M928.03,2438.2l54.3,28.39l159.92,18.61l48.54,22.13h-50.18c0,0-290.41-18.5-288.36-19.09
	c2.05-0.59,35.47-71.82,35.47-71.82L928.03,2438.2z"/>
<path class="st5" d="M1372.78,2443.87c1.65,1.27,1.82,3.06,0.4,4.81c-0.58,0.7-1.2,1.33-1.88,1.89c-0.04,0.46-0.23,0.96-0.64,1.48
	c-2.64,3.36-6.37,5.23-10.5,4.84c-2.73-0.26-5.42-1.47-6.22-3.72c-1.28-0.86-1.73-2.37-0.86-4.02
	C1356.83,2442.12,1366.8,2439.32,1372.78,2443.87z"/>
<g>
	<path class="st6" d="M1002.7,2475.29c0,4.81-9.12,8.71-20.37,8.71c-11.24,0-20.36-3.9-20.36-8.71c0-0.61,0.15-1.21,0.43-1.78
		c-1.94,0.24-4,0.37-6.15,0.37c-11.35,0-20.55-3.61-20.55-8.08c0-4.46,9.2-8.08,20.55-8.08c11.34,0,20.54,3.62,20.54,8.08
		c0,0.38-0.07,0.77-0.2,1.14c1.82-0.23,3.75-0.35,5.74-0.35C993.58,2466.59,1002.7,2470.49,1002.7,2475.29z"/>
	<g>
		<path class="st7" d="M980.6,2458.08c0.8-10.94-9.45-7.99-19.97-6.9s-20.97,0.35-18.13,10.84c1.28,4.76,9.45,7.99,19.97,6.9
			C972.98,2467.83,980.24,2462.99,980.6,2458.08z"/>
		
			<ellipse transform="matrix(0.9947 -0.1028 0.1028 0.9947 -247.5337 111.8791)" class="st8" cx="961.16" cy="2456.36" rx="19.15" ry="8.92"/>
		<path class="st7" d="M958.28,2463.59c-2.94,0-5.67-0.39-7.94-1.14c-3.22-1.07-5.11-2.77-5.32-4.77c-0.21-2,1.3-4.05,4.23-5.76
			c2.89-1.68,6.84-2.85,11.11-3.3c4.28-0.44,8.38-0.1,11.55,0.95c3.22,1.07,5.11,2.77,5.32,4.77l0,0c0.42,4.07-6.46,8.14-15.34,9.06
			C960.67,2463.52,959.45,2463.59,958.28,2463.59z M963.98,2448.82c-1.17,0-2.37,0.06-3.58,0.19c-4.22,0.44-8.12,1.59-10.96,3.25
			c-2.8,1.63-4.23,3.54-4.04,5.38c0.19,1.84,1.99,3.42,5.06,4.44c3.12,1.04,7.17,1.37,11.39,0.94c8.67-0.9,15.4-4.77,15-8.63l0,0
			c-0.19-1.84-1.99-3.42-5.06-4.44C969.57,2449.2,966.88,2448.82,963.98,2448.82z"/>
		<path class="st7" d="M958.05,2462.4c-2.64,0-5.09-0.31-7.12-0.91c-3.03-0.89-4.79-2.33-4.97-4.06c-0.18-1.72,1.26-3.5,4.04-4.99
			c2.73-1.46,6.45-2.5,10.47-2.92c8.36-0.87,15.45,1.28,15.82,4.77l0,0c0.18,1.72-1.26,3.5-4.04,4.99
			c-2.73,1.46-6.45,2.5-10.47,2.92C960.5,2462.33,959.26,2462.4,958.05,2462.4z M964.19,2449.72c-1.19,0-2.42,0.06-3.69,0.19
			c-3.97,0.41-7.64,1.43-10.33,2.87c-2.63,1.41-3.99,3.05-3.83,4.61c0.16,1.56,1.83,2.88,4.69,3.72c2.92,0.86,6.72,1.11,10.69,0.7
			c3.97-0.41,7.64-1.43,10.33-2.87c2.63-1.41,3.99-3.05,3.83-4.61l0,0C975.6,2451.57,970.63,2449.72,964.19,2449.72z"/>
		<path class="st9" d="M966.45,2447.33c0,0,8.05,0.21,11.67,3.57c3.63,3.36,1.67,6.13,1.14,6.84c0,0,2.59-4.94-3.49-7.75
			C969.7,2447.17,966.45,2447.33,966.45,2447.33z"/>
		<path class="st9" d="M966.45,2448.47c0,0,8.91,0.21,10.62,4.78C977.07,2453.25,974.78,2448.88,966.45,2448.47z"/>
	</g>
	<ellipse class="st6" cx="1058.26" cy="2481.25" rx="21.31" ry="6.99"/>
	<g>
		<path class="st7" d="M1080.36,2477.18c0.8-10.94-9.45-7.99-19.97-6.9c-10.52,1.09-20.97,0.35-18.13,10.84
			c1.28,4.76,9.45,7.99,19.97,6.9C1072.75,2486.94,1080,2482.1,1080.36,2477.18z"/>
		
			<ellipse transform="matrix(0.9947 -0.1028 0.1028 0.9947 -248.9697 122.2406)" class="st8" cx="1060.93" cy="2475.47" rx="19.15" ry="8.92"/>
		<path class="st7" d="M1058.04,2482.69c-2.94,0-5.67-0.39-7.94-1.14c-3.22-1.07-5.11-2.77-5.32-4.77c-0.21-2,1.3-4.05,4.23-5.76
			c2.89-1.68,6.84-2.85,11.11-3.3c4.28-0.44,8.38-0.1,11.55,0.95c3.22,1.07,5.11,2.77,5.32,4.77l0,0c0.42,4.07-6.46,8.14-15.34,9.05
			C1060.43,2482.63,1059.22,2482.69,1058.04,2482.69z M1063.74,2467.92c-1.17,0-2.37,0.06-3.58,0.19
			c-4.22,0.44-8.12,1.59-10.96,3.25c-2.8,1.63-4.23,3.54-4.04,5.38c0.19,1.84,1.99,3.42,5.06,4.44c3.12,1.04,7.17,1.37,11.39,0.94
			c8.67-0.9,15.4-4.77,15-8.63l0,0c-0.19-1.84-1.99-3.42-5.06-4.44C1069.33,2468.3,1066.64,2467.92,1063.74,2467.92z"/>
		<path class="st7" d="M1057.81,2481.5c-2.64,0-5.09-0.31-7.12-0.91c-3.03-0.89-4.79-2.33-4.97-4.06c-0.18-1.72,1.26-3.5,4.04-4.99
			c2.73-1.46,6.45-2.5,10.47-2.92c8.36-0.87,15.45,1.28,15.82,4.77l0,0c0.18,1.72-1.26,3.5-4.04,4.99
			c-2.73,1.46-6.45,2.5-10.47,2.92C1060.27,2481.44,1059.02,2481.5,1057.81,2481.5z M1063.95,2468.83c-1.19,0-2.42,0.06-3.69,0.19
			c-3.97,0.41-7.64,1.43-10.33,2.87c-2.63,1.41-3.99,3.05-3.83,4.61c0.16,1.56,1.83,2.88,4.69,3.72c2.92,0.86,6.72,1.11,10.69,0.7
			c3.97-0.41,7.64-1.43,10.33-2.87c2.63-1.41,3.99-3.05,3.83-4.61l0,0C1075.36,2470.67,1070.39,2468.83,1063.95,2468.83z"/>
		<path class="st9" d="M1066.21,2466.43c0,0,8.05,0.21,11.67,3.57c3.63,3.36,1.67,6.13,1.14,6.84c0,0,2.59-4.94-3.49-7.75
			C1069.46,2466.28,1066.21,2466.43,1066.21,2466.43z"/>
		<path class="st9" d="M1066.21,2467.57c0,0,8.91,0.21,10.62,4.78C1076.83,2472.35,1074.54,2467.99,1066.21,2467.57z"/>
	</g>
	<g>
		<path class="st7" d="M1001.86,2475.21c6.03-9.16-4.36-11.58-14.08-15.76s-18.48-9.91-21.12,0.64c-1.2,4.78,4.36,11.58,14.08,15.76
			C990.46,2480.02,999.15,2479.33,1001.86,2475.21z"/>
		
			<ellipse transform="matrix(0.3947 -0.9188 0.9188 0.3947 -1667.5101 2397.1826)" class="st8" cx="985.73" cy="2464.25" rx="8.92" ry="19.15"/>
		<path class="st7" d="M979.69,2469.15c-2.56-1.43-4.77-3.1-6.37-4.86c-2.29-2.51-3.12-4.91-2.32-6.76c0.79-1.85,3.1-2.9,6.5-2.97
			c3.34-0.06,7.36,0.84,11.31,2.54c3.95,1.7,7.37,3.99,9.63,6.46c2.29,2.51,3.12,4.91,2.32,6.76l0,0
			c-1.62,3.76-9.61,3.96-17.81,0.43C981.8,2470.26,980.72,2469.72,979.69,2469.15z M991.86,2459.03c-1.02-0.57-2.1-1.1-3.22-1.58
			c-3.9-1.68-7.86-2.57-11.15-2.5c-3.23,0.06-5.42,1.03-6.15,2.73c-0.73,1.7,0.07,3.95,2.25,6.34c2.22,2.43,5.59,4.69,9.49,6.37
			c8.01,3.44,15.77,3.34,17.3-0.23l0,0c0.73-1.7-0.07-3.95-2.25-6.34C996.56,2462.09,994.39,2460.44,991.86,2459.03z"/>
		<path class="st7" d="M980.07,2468c-2.3-1.28-4.29-2.75-5.78-4.26c-2.21-2.25-3.05-4.37-2.37-5.97c0.68-1.59,2.8-2.44,5.96-2.39
			c3.1,0.05,6.85,0.96,10.56,2.55c7.72,3.32,12.88,8.64,11.49,11.87l0,0c-0.68,1.59-2.8,2.44-5.96,2.39
			c-3.1-0.05-6.85-0.96-10.56-2.55C982.24,2469.14,981.12,2468.59,980.07,2468z M991.6,2459.92c-1.04-0.58-2.15-1.13-3.32-1.63
			c-3.67-1.58-7.37-2.47-10.42-2.52c-2.99-0.05-4.97,0.72-5.59,2.16c-0.62,1.44,0.19,3.41,2.29,5.54c2.13,2.18,5.33,4.24,9,5.82
			c3.67,1.58,7.37,2.47,10.42,2.52c2.99,0.05,4.97-0.72,5.59-2.16l0,0C1000.67,2467.09,997.23,2463.06,991.6,2459.92z"/>
		<path class="st9" d="M994.74,2458.93c0,0,6.93,4.1,8.46,8.8c1.53,4.7-1.53,6.17-2.34,6.53c0,0,4.67-3.05,0.73-8.47
			S994.74,2458.93,994.74,2458.93z"/>
		<path class="st9" d="M994.19,2459.93c0,0,7.68,4.52,6.95,9.35C1001.14,2469.27,1001.26,2464.35,994.19,2459.93z"/>
	</g>
	<g>
		<g>
			<circle class="st9" cx="1011.1" cy="2468.83" r="5.43"/>
			
				<ellipse transform="matrix(0.5 -0.866 0.866 0.5 -1628.7299 2110.1885)" class="st10" cx="1013.11" cy="2465.62" rx="0.97" ry="1.68"/>
		</g>
		<ellipse class="st6" cx="1009.96" cy="2473.39" rx="4.93" ry="1.58"/>
		<g>
			<g>
				<defs>
					<circle id="SVGID_1_" cx="1011.1" cy="2468.83" r="5.43"/>
				</defs>
				<clipPath id="SVGID_2_">
					<use xlink:href="#SVGID_1_"  style="overflow:visible;"/>
				</clipPath>
				<path class="st11" d="M1007.69,2463.4c-0.41,0.38-2.23,5.25,1.42,7.47c3.65,2.23,8.2,0.29,8.51-2.94
					c0.3-3.24-0.71,6.34-0.71,6.34l-6.89,1.77l-4.36-2.77l-0.91-6.89L1007.69,2463.4z"/>
			</g>
		</g>
	</g>
	<g>
		<g>
			<circle class="st9" cx="949.35" cy="2468.92" r="5.43"/>
			
				<ellipse transform="matrix(0.5 -0.866 0.866 0.5 -1659.6813 2056.7576)" class="st10" cx="951.36" cy="2465.7" rx="0.97" ry="1.68"/>
		</g>
		<ellipse class="st6" cx="948.21" cy="2473.48" rx="4.93" ry="1.58"/>
		<g>
			<g>
				<defs>
					<circle id="SVGID_3_" cx="949.35" cy="2468.92" r="5.43"/>
				</defs>
				<clipPath id="SVGID_4_">
					<use xlink:href="#SVGID_3_"  style="overflow:visible;"/>
				</clipPath>
				<path class="st12" d="M945.95,2463.48c-0.41,0.38-2.23,5.25,1.42,7.47s8.2,0.29,8.51-2.94c0.3-3.24-0.71,6.34-0.71,6.34
					l-6.89,1.77l-4.36-2.77l-0.91-6.89L945.95,2463.48z"/>
			</g>
		</g>
	</g>
	<g>
		<g>
			<circle class="st9" cx="1073.44" cy="2485.2" r="5.43"/>
			
				<ellipse transform="matrix(0.5 -0.866 0.866 0.5 -1611.7407 2172.3611)" class="st10" cx="1075.45" cy="2481.99" rx="0.97" ry="1.68"/>
		</g>
		<ellipse class="st6" cx="1072.3" cy="2489.76" rx="4.93" ry="1.58"/>
		<g>
			<g>
				<defs>
					<circle id="SVGID_5_" cx="1073.44" cy="2485.2" r="5.43"/>
				</defs>
				<clipPath id="SVGID_6_">
					<use xlink:href="#SVGID_5_"  style="overflow:visible;"/>
				</clipPath>
				<path class="st13" d="M1070.03,2479.77c-0.41,0.38-2.23,5.25,1.42,7.47c3.65,2.23,8.2,0.29,8.51-2.94
					c0.3-3.24-0.71,6.34-0.71,6.34l-6.89,1.77l-4.36-2.77l-0.91-6.89L1070.03,2479.77z"/>
			</g>
		</g>
	</g>
	<g>
		<g>
			<circle class="st9" cx="1064.33" cy="2486.94" r="5.43"/>
			
				<ellipse transform="matrix(0.5 -0.866 0.866 0.5 -1617.7965 2165.343)" class="st10" cx="1066.34" cy="2483.72" rx="0.97" ry="1.68"/>
		</g>
		<ellipse class="st6" cx="1063.19" cy="2491.5" rx="4.93" ry="1.58"/>
		<g>
			<g>
				<defs>
					<circle id="SVGID_7_" cx="1064.33" cy="2486.94" r="5.43"/>
				</defs>
				<clipPath id="SVGID_8_">
					<use xlink:href="#SVGID_7_"  style="overflow:visible;"/>
				</clipPath>
				<path class="st14" d="M1060.93,2481.5c-0.41,0.38-2.23,5.25,1.42,7.47c3.65,2.23,8.2,0.29,8.51-2.94
					c0.3-3.24-0.71,6.34-0.71,6.34l-6.89,1.77l-4.36-2.77l-0.91-6.89L1060.93,2481.5z"/>
			</g>
		</g>
	</g>
</g>
<path class="st1" d="M1190.78,2507.33c0,0-6.79,34.32-7.86,33.3c-1.06-1.01-25.69-24.52-25.69-24.52l-304.99-19.55v-8.32
	L1190.78,2507.33z"/>
<polygon class="st1" points="1149.88,2367.84 1118.02,2411.24 945.14,2447.15 928.03,2438.2 "/>
</svg>
