<?xml version="1.0" encoding="utf-8"?>
<!-- Generator: Adobe Illustrator 23.0.2, SVG Export Plug-In . SVG Version: 6.00 Build 0)  -->
<svg version="1.1" id="Layer_6_-_sun" xmlns="http://www.w3.org/2000/svg" xmlns:xlink="http://www.w3.org/1999/xlink" x="0px"
	 y="0px" viewBox="0 0 2796.94 3120.78" style="enable-background:new 0 0 2796.94 3120.78;" xml:space="preserve">
<style type="text/css">
	.st0{fill:#F7F3F2;}
	.st1{fill:#DD8A8A;}
	.st2{fill:#D87D7D;}
</style>
<circle class="st0" cx="1158.34" cy="714.71" r="84.55"/>
<path class="st1" d="M0.83,2434.68v-632.39c0,0,621.94-203.13,747.24-291.2c125.29-88.07,314.28,91.05,472.53,65.87
	c158.25-25.18,260.6-168.87,383.29-131.97c122.68,36.9,1017.06,215.36,1191.61,194.19v1483.48H0.83V2434.68z"/>
<path class="st2" d="M0.83,2296.65c0,0,309.31,11.79,423.12-45.27c113.81-57.05,464.52-345.19,594.83-273.9
	s296.21,119.21,408.95,113.04s420.87-200.33,697.01-88.69c276.13,111.64,670.75,156.36,670.75,156.36v964.46H0.83V2296.65z"/>
</svg>
