<?xml version="1.0" encoding="utf-8"?>
<!-- Generator: Adobe Illustrator 23.0.2, SVG Export Plug-In . SVG Version: 6.00 Build 0)  -->
<svg version="1.1" id="Layer_6_-_sun" xmlns="http://www.w3.org/2000/svg" xmlns:xlink="http://www.w3.org/1999/xlink" x="0px"
	 y="0px" viewBox="0 0 2796.94 3120.78" style="enable-background:new 0 0 2796.94 3120.78;" xml:space="preserve">
<style type="text/css">
	.st0{fill:#F7F3F2;}
	.st1{fill:#DD8A8A;}
	.st2{fill:#D87D7D;}
</style>
<circle class="st0" cx="1158.34" cy="714.71" r="84.55"/>
<path class="st1" d="M204.62,2361.37v-547.86c0,0,538.81-175.98,647.36-252.27s272.27,78.88,409.37,57.07
	c137.1-21.81,225.77-146.3,332.06-114.33s881.11,186.57,1032.33,168.23v1285.18H204.62V2361.37z"/>
<path class="st2" d="M204.62,2241.79c0,0,267.97,10.21,366.57-39.22c98.6-49.43,402.43-299.05,515.32-237.29
	s256.61,103.27,354.29,97.93c97.68-5.34,364.62-173.55,603.84-76.84c239.22,96.71,581.09,135.46,581.09,135.46v835.54H204.62
	V2241.79z"/>
</svg>
