<?xml version="1.0" encoding="utf-8"?>
<!-- Generator: Adobe Illustrator 23.0.2, SVG Export Plug-In . SVG Version: 6.00 Build 0)  -->
<svg version="1.1" id="Layer_3_-_buildings" xmlns="http://www.w3.org/2000/svg" xmlns:xlink="http://www.w3.org/1999/xlink"
	 x="0px" y="0px" viewBox="0 0 2796.94 3120.78" style="enable-background:new 0 0 2796.94 3120.78;" xml:space="preserve">
<style type="text/css">
	.st0{fill:#B25D5D;}
	.st1{fill:#776A6A;}
	.st2{fill:#D6AB9A;}
	.st3{fill:#CE7676;}
	.st4{fill:#C18F8F;}
	.st5{fill:#7F5D65;}
	.st6{fill:#937079;}
	.st7{fill:#D86868;}
	.st8{fill:#F7563C;}
	.st9{fill:#6D5C60;}
	.st10{fill:#C9BAB8;}
</style>
<g>
	<rect x="878.04" y="1348.95" class="st0" width="412.09" height="1770.64"/>
	<g>
		<g>
			<rect x="1170.7" y="1385.95" class="st1" width="77.01" height="118.6"/>
			<rect x="1173.48" y="1385.95" class="st2" width="71.57" height="118.6"/>
			<rect x="1167.62" y="1501.41" class="st3" width="82.6" height="18.3"/>
			<rect x="1290.02" y="1501.41" class="st3" width="6.61" height="18.3"/>
			<rect x="1290.02" y="1714.32" class="st3" width="6.61" height="18.3"/>
			<rect x="1290.02" y="1926.6" class="st3" width="6.61" height="18.3"/>
			<rect x="1290.02" y="2138.87" class="st3" width="6.61" height="18.3"/>
			<rect x="1290.02" y="2351.14" class="st3" width="6.61" height="18.3"/>
			<rect x="1167.62" y="1378.4" class="st3" width="82.6" height="9.15"/>
			<rect x="1176.8" y="1443.38" class="st4" width="30.98" height="54.39"/>
			<rect x="1210.45" y="1443.38" class="st4" width="30.98" height="54.39"/>
			<rect x="1176.8" y="1390.4" class="st4" width="30.98" height="50.17"/>
			<rect x="1210.45" y="1390.4" class="st4" width="30.98" height="50.17"/>
		</g>
		<g>
			<rect x="1045.32" y="1385.95" class="st1" width="77.01" height="118.6"/>
			<rect x="1048.09" y="1385.95" class="st2" width="71.57" height="118.6"/>
			<rect x="1042.23" y="1501.41" class="st3" width="82.6" height="18.3"/>
			<rect x="1042.23" y="1378.4" class="st3" width="82.6" height="9.15"/>
			<rect x="1051.41" y="1443.38" class="st4" width="30.98" height="54.39"/>
			<rect x="1085.07" y="1443.38" class="st4" width="30.98" height="54.39"/>
			<rect x="1051.41" y="1390.4" class="st4" width="30.98" height="50.17"/>
			<rect x="1085.07" y="1390.4" class="st4" width="30.98" height="50.17"/>
		</g>
		<g>
			<rect x="919.93" y="1385.95" class="st1" width="77.01" height="118.6"/>
			<rect x="922.71" y="1385.95" class="st2" width="71.57" height="118.6"/>
			<rect x="916.85" y="1501.41" class="st3" width="82.6" height="18.3"/>
			<rect x="916.85" y="1378.4" class="st3" width="82.6" height="9.15"/>
			<rect x="926.03" y="1443.38" class="st4" width="30.98" height="54.39"/>
			<rect x="959.68" y="1443.38" class="st4" width="30.98" height="54.39"/>
			<rect x="926.03" y="1390.4" class="st4" width="30.98" height="50.17"/>
			<rect x="959.68" y="1390.4" class="st4" width="30.98" height="50.17"/>
		</g>
		<g>
			<rect x="1170.7" y="1598.86" class="st1" width="77.01" height="118.6"/>
			<rect x="1173.48" y="1598.86" class="st2" width="71.57" height="118.6"/>
			<rect x="1167.62" y="1714.32" class="st3" width="82.6" height="18.3"/>
			<rect x="1167.62" y="1591.31" class="st3" width="82.6" height="9.15"/>
			<rect x="1176.8" y="1656.29" class="st4" width="30.98" height="54.39"/>
			<rect x="1210.45" y="1656.29" class="st4" width="30.98" height="54.39"/>
			<rect x="1176.8" y="1603.32" class="st4" width="30.98" height="50.17"/>
			<rect x="1210.45" y="1603.32" class="st4" width="30.98" height="50.17"/>
		</g>
		<g>
			<rect x="1045.32" y="1598.22" class="st1" width="77.01" height="118.6"/>
			<rect x="1048.09" y="1598.22" class="st2" width="71.57" height="118.6"/>
			<rect x="1042.23" y="1713.68" class="st3" width="82.6" height="18.3"/>
			<rect x="1042.23" y="1590.67" class="st3" width="82.6" height="9.15"/>
			<rect x="1051.41" y="1655.65" class="st4" width="30.98" height="54.39"/>
			<rect x="1085.07" y="1655.65" class="st4" width="30.98" height="54.39"/>
			<rect x="1051.41" y="1602.67" class="st4" width="30.98" height="50.17"/>
			<rect x="1085.07" y="1602.67" class="st4" width="30.98" height="50.17"/>
		</g>
		<g>
			<rect x="919.93" y="1598.22" class="st1" width="77.01" height="118.6"/>
			<rect x="922.71" y="1598.22" class="st2" width="71.57" height="118.6"/>
			<rect x="916.85" y="1713.68" class="st3" width="82.6" height="18.3"/>
			<rect x="916.85" y="1590.67" class="st3" width="82.6" height="9.15"/>
			<rect x="926.03" y="1655.65" class="st4" width="30.98" height="54.39"/>
			<rect x="959.68" y="1655.65" class="st4" width="30.98" height="54.39"/>
			<rect x="926.03" y="1602.67" class="st4" width="30.98" height="50.17"/>
			<rect x="959.68" y="1602.67" class="st4" width="30.98" height="50.17"/>
		</g>
		<g>
			<rect x="1170.7" y="1811.14" class="st1" width="77.01" height="118.6"/>
			<rect x="1173.48" y="1811.14" class="st2" width="71.57" height="118.6"/>
			<rect x="1167.62" y="1926.6" class="st3" width="82.6" height="18.3"/>
			<rect x="1167.62" y="1803.58" class="st3" width="82.6" height="9.15"/>
			<rect x="1176.8" y="1868.56" class="st4" width="30.98" height="54.39"/>
			<rect x="1210.45" y="1868.56" class="st4" width="30.98" height="54.39"/>
			<rect x="1176.8" y="1815.59" class="st4" width="30.98" height="50.17"/>
			<rect x="1210.45" y="1815.59" class="st4" width="30.98" height="50.17"/>
		</g>
		<g>
			<rect x="1045.32" y="1811.14" class="st1" width="77.01" height="118.6"/>
			<rect x="1048.09" y="1811.14" class="st2" width="71.57" height="118.6"/>
			<rect x="1042.23" y="1926.6" class="st3" width="82.6" height="18.3"/>
			<rect x="1042.23" y="1803.58" class="st3" width="82.6" height="9.15"/>
			<rect x="1051.41" y="1868.56" class="st4" width="30.98" height="54.39"/>
			<rect x="1085.07" y="1868.56" class="st4" width="30.98" height="54.39"/>
			<rect x="1051.41" y="1815.59" class="st4" width="30.98" height="50.17"/>
			<rect x="1085.07" y="1815.59" class="st4" width="30.98" height="50.17"/>
		</g>
		<g>
			<rect x="919.93" y="1811.14" class="st1" width="77.01" height="118.6"/>
			<rect x="922.71" y="1811.14" class="st2" width="71.57" height="118.6"/>
			<rect x="916.85" y="1926.6" class="st3" width="82.6" height="18.3"/>
			<rect x="916.85" y="1803.58" class="st3" width="82.6" height="9.15"/>
			<rect x="926.03" y="1868.56" class="st4" width="30.98" height="54.39"/>
			<rect x="959.68" y="1868.56" class="st4" width="30.98" height="54.39"/>
			<rect x="926.03" y="1815.59" class="st4" width="30.98" height="50.17"/>
			<rect x="959.68" y="1815.59" class="st4" width="30.98" height="50.17"/>
		</g>
		<g>
			<rect x="1170.7" y="2024.05" class="st1" width="77.01" height="118.6"/>
			<rect x="1173.48" y="2024.05" class="st2" width="71.57" height="118.6"/>
			<rect x="1167.62" y="2139.51" class="st3" width="82.6" height="18.3"/>
			<rect x="1167.62" y="2016.5" class="st3" width="82.6" height="9.15"/>
			<rect x="1176.8" y="2081.47" class="st4" width="30.98" height="54.39"/>
			<rect x="1210.45" y="2081.47" class="st4" width="30.98" height="54.39"/>
			<rect x="1176.8" y="2028.5" class="st4" width="30.98" height="50.17"/>
			<rect x="1210.45" y="2028.5" class="st4" width="30.98" height="50.17"/>
		</g>
		<g>
			<rect x="1045.32" y="2024.05" class="st1" width="77.01" height="118.6"/>
			<rect x="1048.09" y="2024.05" class="st2" width="71.57" height="118.6"/>
			<rect x="1042.23" y="2139.51" class="st3" width="82.6" height="18.3"/>
			<rect x="1042.23" y="2016.5" class="st3" width="82.6" height="9.15"/>
			<rect x="1051.41" y="2081.47" class="st4" width="30.98" height="54.39"/>
			<rect x="1085.07" y="2081.47" class="st4" width="30.98" height="54.39"/>
			<rect x="1051.41" y="2028.5" class="st4" width="30.98" height="50.17"/>
			<rect x="1085.07" y="2028.5" class="st4" width="30.98" height="50.17"/>
		</g>
		<g>
			<rect x="919.93" y="2024.05" class="st1" width="77.01" height="118.6"/>
			<rect x="922.71" y="2024.05" class="st2" width="71.57" height="118.6"/>
			<rect x="916.85" y="2139.51" class="st3" width="82.6" height="18.3"/>
			<rect x="916.85" y="2016.5" class="st3" width="82.6" height="9.15"/>
			<rect x="926.03" y="2081.47" class="st4" width="30.98" height="54.39"/>
			<rect x="959.68" y="2081.47" class="st4" width="30.98" height="54.39"/>
			<rect x="926.03" y="2028.5" class="st4" width="30.98" height="50.17"/>
			<rect x="959.68" y="2028.5" class="st4" width="30.98" height="50.17"/>
		</g>
		<g>
			<rect x="1170.7" y="2236.96" class="st1" width="77.01" height="118.6"/>
			<rect x="1173.48" y="2236.96" class="st2" width="71.57" height="118.6"/>
			<rect x="1167.62" y="2352.42" class="st3" width="82.6" height="18.3"/>
			<rect x="1167.62" y="2229.41" class="st3" width="82.6" height="9.15"/>
			<rect x="1176.8" y="2294.38" class="st4" width="30.98" height="54.39"/>
			<rect x="1210.45" y="2294.38" class="st4" width="30.98" height="54.39"/>
			<rect x="1176.8" y="2241.41" class="st4" width="30.98" height="50.17"/>
			<rect x="1210.45" y="2241.41" class="st4" width="30.98" height="50.17"/>
		</g>
		<g>
			<rect x="1045.32" y="2236.96" class="st1" width="77.01" height="118.6"/>
			<rect x="1048.09" y="2236.96" class="st2" width="71.57" height="118.6"/>
			<rect x="1042.23" y="2352.42" class="st3" width="82.6" height="18.3"/>
			<rect x="1042.23" y="2229.41" class="st3" width="82.6" height="9.15"/>
			<rect x="1051.41" y="2294.38" class="st4" width="30.98" height="54.39"/>
			<rect x="1085.07" y="2294.38" class="st4" width="30.98" height="54.39"/>
			<rect x="1051.41" y="2241.41" class="st4" width="30.98" height="50.17"/>
			<rect x="1085.07" y="2241.41" class="st4" width="30.98" height="50.17"/>
		</g>
		<g>
			<rect x="919.93" y="2236.96" class="st1" width="77.01" height="118.6"/>
			<rect x="922.71" y="2236.96" class="st2" width="71.57" height="118.6"/>
			<rect x="916.85" y="2352.42" class="st3" width="82.6" height="18.3"/>
			<rect x="916.85" y="2229.41" class="st3" width="82.6" height="9.15"/>
			<rect x="926.03" y="2294.38" class="st4" width="30.98" height="54.39"/>
			<rect x="959.68" y="2294.38" class="st4" width="30.98" height="54.39"/>
			<rect x="926.03" y="2241.41" class="st4" width="30.98" height="50.17"/>
			<rect x="959.68" y="2241.41" class="st4" width="30.98" height="50.17"/>
		</g>
		<g>
			<rect x="1170.7" y="2454.96" class="st1" width="77.01" height="118.6"/>
			<rect x="1173.48" y="2454.96" class="st2" width="71.57" height="118.6"/>
			<rect x="1167.62" y="2570.42" class="st3" width="82.6" height="18.3"/>
			<rect x="1167.62" y="2447.41" class="st3" width="82.6" height="9.15"/>
			<rect x="1176.8" y="2512.39" class="st4" width="30.98" height="54.39"/>
			<rect x="1210.45" y="2512.39" class="st4" width="30.98" height="54.39"/>
			<rect x="1176.8" y="2459.41" class="st4" width="30.98" height="50.17"/>
			<rect x="1210.45" y="2459.41" class="st4" width="30.98" height="50.17"/>
		</g>
		<g>
			<rect x="1045.32" y="2454.96" class="st1" width="77.01" height="118.6"/>
			<rect x="1048.09" y="2454.96" class="st2" width="71.57" height="118.6"/>
			<rect x="1042.23" y="2570.42" class="st3" width="82.6" height="18.3"/>
			<rect x="1042.23" y="2447.41" class="st3" width="82.6" height="9.15"/>
			<rect x="1051.41" y="2512.39" class="st4" width="30.98" height="54.39"/>
			<rect x="1085.07" y="2512.39" class="st4" width="30.98" height="54.39"/>
			<rect x="1051.41" y="2459.41" class="st4" width="30.98" height="50.17"/>
			<rect x="1085.07" y="2459.41" class="st4" width="30.98" height="50.17"/>
		</g>
		<g>
			<rect x="919.93" y="2454.96" class="st1" width="77.01" height="118.6"/>
			<rect x="922.71" y="2454.96" class="st2" width="71.57" height="118.6"/>
			<rect x="916.85" y="2570.42" class="st3" width="82.6" height="18.3"/>
			<rect x="916.85" y="2447.41" class="st3" width="82.6" height="9.15"/>
			<rect x="926.03" y="2512.39" class="st4" width="30.98" height="54.39"/>
			<rect x="959.68" y="2512.39" class="st4" width="30.98" height="54.39"/>
			<rect x="926.03" y="2459.41" class="st4" width="30.98" height="50.17"/>
			<rect x="959.68" y="2459.41" class="st4" width="30.98" height="50.17"/>
		</g>
		<g>
			<rect x="1170.7" y="2673.13" class="st1" width="77.01" height="118.6"/>
			<rect x="1173.48" y="2673.13" class="st2" width="71.57" height="118.6"/>
			<rect x="1167.62" y="2788.59" class="st3" width="82.6" height="18.3"/>
			<rect x="1167.62" y="2665.58" class="st3" width="82.6" height="9.15"/>
			<rect x="1176.8" y="2730.56" class="st4" width="30.98" height="54.39"/>
			<rect x="1210.45" y="2730.56" class="st4" width="30.98" height="54.39"/>
			<rect x="1176.8" y="2677.58" class="st4" width="30.98" height="50.17"/>
			<rect x="1210.45" y="2677.58" class="st4" width="30.98" height="50.17"/>
		</g>
		<g>
			<rect x="1045.32" y="2673.13" class="st1" width="77.01" height="118.6"/>
			<rect x="1048.09" y="2673.13" class="st2" width="71.57" height="118.6"/>
			<rect x="1042.23" y="2788.59" class="st3" width="82.6" height="18.3"/>
			<rect x="1042.23" y="2665.58" class="st3" width="82.6" height="9.15"/>
			<rect x="1051.41" y="2730.56" class="st4" width="30.98" height="54.39"/>
			<rect x="1085.07" y="2730.56" class="st4" width="30.98" height="54.39"/>
			<rect x="1051.41" y="2677.58" class="st4" width="30.98" height="50.17"/>
			<rect x="1085.07" y="2677.58" class="st4" width="30.98" height="50.17"/>
		</g>
		<g>
			<rect x="919.93" y="2673.13" class="st1" width="77.01" height="118.6"/>
			<rect x="922.71" y="2673.13" class="st2" width="71.57" height="118.6"/>
			<rect x="916.85" y="2788.59" class="st3" width="82.6" height="18.3"/>
			<rect x="916.85" y="2665.58" class="st3" width="82.6" height="9.15"/>
			<rect x="926.03" y="2730.56" class="st4" width="30.98" height="54.39"/>
			<rect x="959.68" y="2730.56" class="st4" width="30.98" height="54.39"/>
			<rect x="926.03" y="2677.58" class="st4" width="30.98" height="50.17"/>
			<rect x="959.68" y="2677.58" class="st4" width="30.98" height="50.17"/>
		</g>
		<g>
			<rect x="1170.7" y="2890.92" class="st1" width="77.01" height="118.6"/>
			<rect x="1173.48" y="2890.92" class="st2" width="71.57" height="118.6"/>
			<rect x="1167.62" y="3006.38" class="st3" width="82.6" height="18.3"/>
			<rect x="1167.62" y="2883.37" class="st3" width="82.6" height="9.15"/>
			<rect x="1176.8" y="2948.35" class="st4" width="30.98" height="54.39"/>
			<rect x="1210.45" y="2948.35" class="st4" width="30.98" height="54.39"/>
			<rect x="1176.8" y="2895.38" class="st4" width="30.98" height="50.17"/>
			<rect x="1210.45" y="2895.38" class="st4" width="30.98" height="50.17"/>
		</g>
		<g>
			<rect x="1045.32" y="2890.92" class="st1" width="77.01" height="118.6"/>
			<rect x="1048.09" y="2890.92" class="st2" width="71.57" height="118.6"/>
			<rect x="1042.23" y="3006.38" class="st3" width="82.6" height="18.3"/>
			<rect x="1042.23" y="2883.37" class="st3" width="82.6" height="9.15"/>
			<rect x="1051.41" y="2948.35" class="st4" width="30.98" height="54.39"/>
			<rect x="1085.07" y="2948.35" class="st4" width="30.98" height="54.39"/>
			<rect x="1051.41" y="2895.38" class="st4" width="30.98" height="50.17"/>
			<rect x="1085.07" y="2895.38" class="st4" width="30.98" height="50.17"/>
		</g>
		<g>
			<rect x="919.93" y="2890.92" class="st1" width="77.01" height="118.6"/>
			<rect x="922.71" y="2890.92" class="st2" width="71.57" height="118.6"/>
			<rect x="916.85" y="3006.38" class="st3" width="82.6" height="18.3"/>
			<rect x="916.85" y="2883.37" class="st3" width="82.6" height="9.15"/>
			<rect x="926.03" y="2948.35" class="st4" width="30.98" height="54.39"/>
			<rect x="959.68" y="2948.35" class="st4" width="30.98" height="54.39"/>
			<rect x="926.03" y="2895.38" class="st4" width="30.98" height="50.17"/>
			<rect x="959.68" y="2895.38" class="st4" width="30.98" height="50.17"/>
		</g>
	</g>
	<rect x="866.4" y="1320.6" class="st2" width="433.07" height="20.55"/>
	<rect x="858.68" y="1328.45" class="st3" width="448.85" height="20.79"/>
	<rect x="883.47" y="1353.97" class="st1" width="403.02" height="3.95"/>
	<rect x="875.79" y="1316.48" class="st1" width="413.2" height="4.09"/>
	<g>
		
			<rect x="1242.45" y="1450.1" transform="matrix(6.123234e-17 -1 1 6.123234e-17 -112.1663 2789.696)" class="st5" width="192.63" height="1.66"/>
		
			<rect x="1201.21" y="1450.1" transform="matrix(6.123234e-17 -1 1 6.123234e-17 -153.4087 2748.4536)" class="st5" width="192.63" height="1.66"/>
		<rect x="1295.92" y="1532.33" class="st5" width="44.53" height="7.53"/>
		<rect x="1295.92" y="1515.13" class="st5" width="44.53" height="7.53"/>
		<rect x="1295.92" y="1497.92" class="st5" width="44.53" height="7.53"/>
		<rect x="1295.92" y="1480.72" class="st5" width="44.53" height="7.53"/>
		<rect x="1295.92" y="1463.51" class="st5" width="44.53" height="7.53"/>
		<rect x="1295.92" y="1446.31" class="st5" width="44.53" height="7.53"/>
		<rect x="1295.92" y="1429.11" class="st5" width="44.53" height="7.53"/>
		<rect x="1295.92" y="1411.9" class="st5" width="44.53" height="7.53"/>
		<rect x="1295.92" y="1394.7" class="st5" width="44.53" height="7.53"/>
		<rect x="1295.92" y="1377.49" class="st5" width="44.53" height="7.53"/>
		<rect x="1290.02" y="1547.25" class="st6" width="63.57" height="3.22"/>
		<rect x="1290.13" y="1489.46" class="st6" width="66.81" height="1.68"/>
		
			<rect x="1270.98" y="1517.51" transform="matrix(6.123234e-17 -1 1 6.123234e-17 -218.4826 2818.2253)" class="st6" width="57.78" height="1.69"/>
		
			<rect x="1280.02" y="1517.51" transform="matrix(6.123234e-17 -1 1 6.123234e-17 -209.4392 2827.2688)" class="st6" width="57.78" height="1.69"/>
		
			<rect x="1289.07" y="1517.51" transform="matrix(6.123234e-17 -1 1 6.123234e-17 -200.3958 2836.3123)" class="st6" width="57.78" height="1.69"/>
		
			<rect x="1298.11" y="1517.51" transform="matrix(6.123234e-17 -1 1 6.123234e-17 -191.3525 2845.3557)" class="st6" width="57.78" height="1.69"/>
		
			<rect x="1307.15" y="1517.51" transform="matrix(6.123234e-17 -1 1 6.123234e-17 -182.3091 2854.3989)" class="st6" width="57.78" height="1.69"/>
		
			<rect x="1316.2" y="1517.51" transform="matrix(6.123234e-17 -1 1 6.123234e-17 -173.2657 2863.4424)" class="st6" width="57.78" height="1.69"/>
		<rect x="1290.02" y="1353.72" class="st6" width="63.57" height="3.22"/>
		
			<rect x="1320.2" y="1517.07" transform="matrix(6.123234e-17 -1 1 6.123234e-17 -166.7029 2870.6626)" class="st6" width="63.57" height="3.22"/>
		
			<rect x="1338.47" y="1365.7" transform="matrix(6.123234e-17 -1 1 6.123234e-17 -15.3334 2719.2932)" class="st6" width="27.01" height="3.22"/>
	</g>
	<g>
		
			<rect x="1242.45" y="1662.37" transform="matrix(6.123234e-17 -1 1 6.123234e-17 -324.4376 3001.9673)" class="st5" width="192.63" height="1.66"/>
		
			<rect x="1201.21" y="1662.37" transform="matrix(6.123234e-17 -1 1 6.123234e-17 -365.68 2960.7249)" class="st5" width="192.63" height="1.66"/>
		<rect x="1295.92" y="1744.6" class="st5" width="44.53" height="7.53"/>
		<rect x="1295.92" y="1727.4" class="st5" width="44.53" height="7.53"/>
		<rect x="1295.92" y="1710.19" class="st5" width="44.53" height="7.53"/>
		<rect x="1295.92" y="1692.99" class="st5" width="44.53" height="7.53"/>
		<rect x="1295.92" y="1675.79" class="st5" width="44.53" height="7.53"/>
		<rect x="1295.92" y="1658.58" class="st5" width="44.53" height="7.53"/>
		<rect x="1295.92" y="1641.38" class="st5" width="44.53" height="7.53"/>
		<rect x="1295.92" y="1624.17" class="st5" width="44.53" height="7.53"/>
		<rect x="1295.92" y="1606.97" class="st5" width="44.53" height="7.53"/>
		<rect x="1295.92" y="1589.76" class="st5" width="44.53" height="7.53"/>
		<rect x="1290.02" y="1759.52" class="st6" width="63.57" height="3.22"/>
		<rect x="1290.13" y="1701.73" class="st6" width="66.81" height="1.68"/>
		
			<rect x="1270.98" y="1729.78" transform="matrix(3.203566e-14 -1 1 3.203566e-14 -430.7539 3030.4968)" class="st6" width="57.78" height="1.69"/>
		
			<rect x="1280.02" y="1729.78" transform="matrix(6.123234e-17 -1 1 6.123234e-17 -421.7105 3039.54)" class="st6" width="57.78" height="1.69"/>
		
			<rect x="1289.07" y="1729.78" transform="matrix(6.123234e-17 -1 1 6.123234e-17 -412.6671 3048.5835)" class="st6" width="57.78" height="1.69"/>
		
			<rect x="1298.11" y="1729.78" transform="matrix(6.123234e-17 -1 1 6.123234e-17 -403.6237 3057.627)" class="st6" width="57.78" height="1.69"/>
		
			<rect x="1307.15" y="1729.78" transform="matrix(1.604844e-14 -1 1 1.604844e-14 -394.5804 3066.6704)" class="st6" width="57.78" height="1.69"/>
		
			<rect x="1316.2" y="1729.78" transform="matrix(6.123234e-17 -1 1 6.123234e-17 -385.537 3075.7136)" class="st6" width="57.78" height="1.69"/>
		<rect x="1290.02" y="1565.99" class="st6" width="63.57" height="3.22"/>
		
			<rect x="1320.2" y="1729.34" transform="matrix(-2.836048e-14 -1 1 -2.836048e-14 -378.9741 3082.9338)" class="st6" width="63.57" height="3.22"/>
		
			<rect x="1338.47" y="1577.97" transform="matrix(6.123234e-17 -1 1 6.123234e-17 -227.6047 2931.5645)" class="st6" width="27.01" height="3.22"/>
	</g>
	<g>
		
			<rect x="1242.45" y="1874.64" transform="matrix(6.123234e-17 -1 1 6.123234e-17 -536.7089 3214.2385)" class="st5" width="192.63" height="1.66"/>
		
			<rect x="1201.21" y="1874.64" transform="matrix(6.123234e-17 -1 1 6.123234e-17 -577.9512 3172.9963)" class="st5" width="192.63" height="1.66"/>
		<rect x="1295.92" y="1956.87" class="st5" width="44.53" height="7.53"/>
		<rect x="1295.92" y="1939.67" class="st5" width="44.53" height="7.53"/>
		<rect x="1295.92" y="1922.47" class="st5" width="44.53" height="7.53"/>
		<rect x="1295.92" y="1905.26" class="st5" width="44.53" height="7.53"/>
		<rect x="1295.92" y="1888.06" class="st5" width="44.53" height="7.53"/>
		<rect x="1295.92" y="1870.85" class="st5" width="44.53" height="7.53"/>
		<rect x="1295.92" y="1853.65" class="st5" width="44.53" height="7.53"/>
		<rect x="1295.92" y="1836.44" class="st5" width="44.53" height="7.53"/>
		<rect x="1295.92" y="1819.24" class="st5" width="44.53" height="7.53"/>
		<rect x="1295.92" y="1802.03" class="st5" width="44.53" height="7.53"/>
		<rect x="1290.02" y="1971.79" class="st6" width="63.57" height="3.22"/>
		<rect x="1290.13" y="1914.01" class="st6" width="66.81" height="1.68"/>
		
			<rect x="1270.98" y="1942.05" transform="matrix(-4.701222e-14 -1 1 -4.701222e-14 -643.0252 3242.7681)" class="st6" width="57.78" height="1.69"/>
		
			<rect x="1280.02" y="1942.05" transform="matrix(6.123234e-17 -1 1 6.123234e-17 -633.9818 3251.8115)" class="st6" width="57.78" height="1.69"/>
		
			<rect x="1289.07" y="1942.05" transform="matrix(6.123234e-17 -1 1 6.123234e-17 -624.9384 3260.8547)" class="st6" width="57.78" height="1.69"/>
		
			<rect x="1298.11" y="1942.05" transform="matrix(6.123234e-17 -1 1 6.123234e-17 -615.895 3269.8982)" class="st6" width="57.78" height="1.69"/>
		
			<rect x="1307.15" y="1942.05" transform="matrix(-4.701222e-14 -1 1 -4.701222e-14 -606.8516 3278.9417)" class="st6" width="57.78" height="1.69"/>
		
			<rect x="1316.2" y="1942.05" transform="matrix(6.123234e-17 -1 1 6.123234e-17 -597.8082 3287.9851)" class="st6" width="57.78" height="1.69"/>
		<rect x="1290.02" y="1778.26" class="st6" width="63.57" height="3.22"/>
		
			<rect x="1320.2" y="1941.61" transform="matrix(6.123234e-17 -1 1 6.123234e-17 -591.2454 3295.2051)" class="st6" width="63.57" height="3.22"/>
		
			<rect x="1338.47" y="1790.25" transform="matrix(6.123234e-17 -1 1 6.123234e-17 -439.8759 3143.8357)" class="st6" width="27.01" height="3.22"/>
	</g>
	<g>
		
			<rect x="1242.45" y="2086.92" transform="matrix(6.123234e-17 -1 1 6.123234e-17 -748.9802 3426.5098)" class="st5" width="192.63" height="1.66"/>
		
			<rect x="1201.21" y="2086.92" transform="matrix(6.123234e-17 -1 1 6.123234e-17 -790.2225 3385.2676)" class="st5" width="192.63" height="1.66"/>
		<rect x="1295.92" y="2169.15" class="st5" width="44.53" height="7.53"/>
		<rect x="1295.92" y="2151.94" class="st5" width="44.53" height="7.53"/>
		<rect x="1295.92" y="2134.74" class="st5" width="44.53" height="7.53"/>
		<rect x="1295.92" y="2117.53" class="st5" width="44.53" height="7.53"/>
		<rect x="1295.92" y="2100.33" class="st5" width="44.53" height="7.53"/>
		<rect x="1295.92" y="2083.12" class="st5" width="44.53" height="7.53"/>
		<rect x="1295.92" y="2065.92" class="st5" width="44.53" height="7.53"/>
		<rect x="1295.92" y="2048.71" class="st5" width="44.53" height="7.53"/>
		<rect x="1295.92" y="2031.51" class="st5" width="44.53" height="7.53"/>
		<rect x="1295.92" y="2014.31" class="st5" width="44.53" height="7.53"/>
		<rect x="1290.02" y="2184.06" class="st6" width="63.57" height="3.22"/>
		<rect x="1290.13" y="2126.28" class="st6" width="66.81" height="1.68"/>
		
			<rect x="1270.98" y="2154.32" transform="matrix(6.123234e-17 -1 1 6.123234e-17 -855.2965 3455.0393)" class="st6" width="57.78" height="1.69"/>
		
			<rect x="1280.02" y="2154.32" transform="matrix(6.123234e-17 -1 1 6.123234e-17 -846.2531 3464.0828)" class="st6" width="57.78" height="1.69"/>
		
			<rect x="1289.07" y="2154.32" transform="matrix(6.123234e-17 -1 1 6.123234e-17 -837.2097 3473.1262)" class="st6" width="57.78" height="1.69"/>
		
			<rect x="1298.11" y="2154.32" transform="matrix(6.123234e-17 -1 1 6.123234e-17 -828.1663 3482.1694)" class="st6" width="57.78" height="1.69"/>
		
			<rect x="1307.15" y="2154.32" transform="matrix(6.123234e-17 -1 1 6.123234e-17 -819.1229 3491.2129)" class="st6" width="57.78" height="1.69"/>
		
			<rect x="1316.2" y="2154.32" transform="matrix(6.123234e-17 -1 1 6.123234e-17 -810.0795 3500.2563)" class="st6" width="57.78" height="1.69"/>
		<rect x="1290.02" y="1990.53" class="st6" width="63.57" height="3.22"/>
		
			<rect x="1320.2" y="2153.89" transform="matrix(2.848294e-14 -1 1 2.848294e-14 -803.5167 3507.4763)" class="st6" width="63.57" height="3.22"/>
		
			<rect x="1338.47" y="2002.52" transform="matrix(6.123234e-17 -1 1 6.123234e-17 -652.1472 3356.1072)" class="st6" width="27.01" height="3.22"/>
	</g>
	<g>
		
			<rect x="1242.45" y="2299.19" transform="matrix(6.123234e-17 -1 1 6.123234e-17 -961.2515 3638.7812)" class="st5" width="192.63" height="1.66"/>
		
			<rect x="1201.21" y="2299.19" transform="matrix(6.123234e-17 -1 1 6.123234e-17 -1002.4938 3597.5388)" class="st5" width="192.63" height="1.66"/>
		<rect x="1295.92" y="2381.42" class="st5" width="44.53" height="7.53"/>
		<rect x="1295.92" y="2364.21" class="st5" width="44.53" height="7.53"/>
		<rect x="1295.92" y="2347.01" class="st5" width="44.53" height="7.53"/>
		<rect x="1295.92" y="2329.8" class="st5" width="44.53" height="7.53"/>
		<rect x="1295.92" y="2312.6" class="st5" width="44.53" height="7.53"/>
		<rect x="1295.92" y="2295.39" class="st5" width="44.53" height="7.53"/>
		<rect x="1295.92" y="2278.19" class="st5" width="44.53" height="7.53"/>
		<rect x="1295.92" y="2260.99" class="st5" width="44.53" height="7.53"/>
		<rect x="1295.92" y="2243.78" class="st5" width="44.53" height="7.53"/>
		<rect x="1295.92" y="2226.58" class="st5" width="44.53" height="7.53"/>
		<rect x="1290.02" y="2396.33" class="st6" width="63.57" height="3.22"/>
		<rect x="1290.13" y="2338.55" class="st6" width="66.81" height="1.68"/>
		
			<rect x="1270.98" y="2366.59" transform="matrix(6.123234e-17 -1 1 6.123234e-17 -1067.5677 3667.3105)" class="st6" width="57.78" height="1.69"/>
		
			<rect x="1280.02" y="2366.59" transform="matrix(6.123234e-17 -1 1 6.123234e-17 -1058.5244 3676.354)" class="st6" width="57.78" height="1.69"/>
		
			<rect x="1289.07" y="2366.59" transform="matrix(6.123234e-17 -1 1 6.123234e-17 -1049.481 3685.3975)" class="st6" width="57.78" height="1.69"/>
		
			<rect x="1298.11" y="2366.59" transform="matrix(6.123234e-17 -1 1 6.123234e-17 -1040.4376 3694.4407)" class="st6" width="57.78" height="1.69"/>
		
			<rect x="1307.15" y="2366.59" transform="matrix(6.123234e-17 -1 1 6.123234e-17 -1031.3942 3703.4841)" class="st6" width="57.78" height="1.69"/>
		
			<rect x="1316.2" y="2366.59" transform="matrix(6.123234e-17 -1 1 6.123234e-17 -1022.3508 3712.5276)" class="st6" width="57.78" height="1.69"/>
		<rect x="1290.02" y="2202.8" class="st6" width="63.57" height="3.22"/>
		
			<rect x="1320.2" y="2366.16" transform="matrix(6.123234e-17 -1 1 6.123234e-17 -1015.788 3719.7476)" class="st6" width="63.57" height="3.22"/>
		
			<rect x="1338.47" y="2214.79" transform="matrix(6.123234e-17 -1 1 6.123234e-17 -864.4185 3568.3784)" class="st6" width="27.01" height="3.22"/>
	</g>
	<g>
		
			<rect x="1242.45" y="2510.42" transform="matrix(6.123234e-17 -1 1 6.123234e-17 -1172.4841 3850.0139)" class="st5" width="192.63" height="1.66"/>
		
			<rect x="1201.21" y="2510.42" transform="matrix(6.123234e-17 -1 1 6.123234e-17 -1213.7266 3808.7715)" class="st5" width="192.63" height="1.66"/>
		<rect x="1295.92" y="2592.65" class="st5" width="44.53" height="7.53"/>
		<rect x="1295.92" y="2575.44" class="st5" width="44.53" height="7.53"/>
		<rect x="1295.92" y="2558.24" class="st5" width="44.53" height="7.53"/>
		<rect x="1295.92" y="2541.04" class="st5" width="44.53" height="7.53"/>
		<rect x="1295.92" y="2523.83" class="st5" width="44.53" height="7.53"/>
		<rect x="1295.92" y="2506.63" class="st5" width="44.53" height="7.53"/>
		<rect x="1295.92" y="2489.42" class="st5" width="44.53" height="7.53"/>
		<rect x="1295.92" y="2472.22" class="st5" width="44.53" height="7.53"/>
		<rect x="1295.92" y="2455.01" class="st5" width="44.53" height="7.53"/>
		<rect x="1295.92" y="2437.81" class="st5" width="44.53" height="7.53"/>
		<rect x="1290.02" y="2607.56" class="st6" width="63.57" height="3.22"/>
		<rect x="1290.13" y="2549.78" class="st6" width="66.81" height="1.68"/>
		
			<rect x="1270.98" y="2577.83" transform="matrix(6.123234e-17 -1 1 6.123234e-17 -1278.8005 3878.5432)" class="st6" width="57.78" height="1.69"/>
		
			<rect x="1280.02" y="2577.83" transform="matrix(6.123234e-17 -1 1 6.123234e-17 -1269.7571 3887.5867)" class="st6" width="57.78" height="1.69"/>
		
			<rect x="1289.07" y="2577.83" transform="matrix(6.123234e-17 -1 1 6.123234e-17 -1260.7137 3896.6301)" class="st6" width="57.78" height="1.69"/>
		
			<rect x="1298.11" y="2577.83" transform="matrix(6.123234e-17 -1 1 6.123234e-17 -1251.6703 3905.6736)" class="st6" width="57.78" height="1.69"/>
		
			<rect x="1307.15" y="2577.83" transform="matrix(6.123234e-17 -1 1 6.123234e-17 -1242.627 3914.7168)" class="st6" width="57.78" height="1.69"/>
		
			<rect x="1316.2" y="2577.83" transform="matrix(6.123234e-17 -1 1 6.123234e-17 -1233.5835 3923.7603)" class="st6" width="57.78" height="1.69"/>
		<rect x="1290.02" y="2414.04" class="st6" width="63.57" height="3.22"/>
		
			<rect x="1320.2" y="2577.39" transform="matrix(6.123234e-17 -1 1 6.123234e-17 -1227.0208 3930.9805)" class="st6" width="63.57" height="3.22"/>
		
			<rect x="1338.47" y="2426.02" transform="matrix(6.123234e-17 -1 1 6.123234e-17 -1075.6512 3779.6111)" class="st6" width="27.01" height="3.22"/>
	</g>
	<g>
		
			<rect x="1242.45" y="2722.78" transform="matrix(6.123234e-17 -1 1 6.123234e-17 -1384.8405 4062.3701)" class="st5" width="192.63" height="1.66"/>
		
			<rect x="1201.21" y="2722.78" transform="matrix(6.123234e-17 -1 1 6.123234e-17 -1426.0829 4021.1279)" class="st5" width="192.63" height="1.66"/>
		<rect x="1295.92" y="2805.01" class="st5" width="44.53" height="7.53"/>
		<rect x="1295.92" y="2787.8" class="st5" width="44.53" height="7.53"/>
		<rect x="1295.92" y="2770.6" class="st5" width="44.53" height="7.53"/>
		<rect x="1295.92" y="2753.39" class="st5" width="44.53" height="7.53"/>
		<rect x="1295.92" y="2736.19" class="st5" width="44.53" height="7.53"/>
		<rect x="1295.92" y="2718.98" class="st5" width="44.53" height="7.53"/>
		<rect x="1295.92" y="2701.78" class="st5" width="44.53" height="7.53"/>
		<rect x="1295.92" y="2684.57" class="st5" width="44.53" height="7.53"/>
		<rect x="1295.92" y="2667.37" class="st5" width="44.53" height="7.53"/>
		<rect x="1295.92" y="2650.17" class="st5" width="44.53" height="7.53"/>
		<rect x="1290.02" y="2819.92" class="st6" width="63.57" height="3.22"/>
		<rect x="1290.13" y="2762.14" class="st6" width="66.81" height="1.68"/>
		
			<rect x="1270.98" y="2790.18" transform="matrix(6.123234e-17 -1 1 6.123234e-17 -1491.1569 4090.8997)" class="st6" width="57.78" height="1.69"/>
		
			<rect x="1280.02" y="2790.18" transform="matrix(6.123234e-17 -1 1 6.123234e-17 -1482.1134 4099.9429)" class="st6" width="57.78" height="1.69"/>
		
			<rect x="1289.07" y="2790.18" transform="matrix(6.123234e-17 -1 1 6.123234e-17 -1473.0701 4108.9863)" class="st6" width="57.78" height="1.69"/>
		
			<rect x="1298.11" y="2790.18" transform="matrix(6.123234e-17 -1 1 6.123234e-17 -1464.0266 4118.0298)" class="st6" width="57.78" height="1.69"/>
		
			<rect x="1307.15" y="2790.18" transform="matrix(6.123234e-17 -1 1 6.123234e-17 -1454.9833 4127.0732)" class="st6" width="57.78" height="1.69"/>
		
			<rect x="1316.2" y="2790.18" transform="matrix(6.123234e-17 -1 1 6.123234e-17 -1445.9398 4136.1167)" class="st6" width="57.78" height="1.69"/>
		<rect x="1290.02" y="2626.39" class="st6" width="63.57" height="3.22"/>
		
			<rect x="1320.2" y="2789.75" transform="matrix(6.123234e-17 -1 1 6.123234e-17 -1439.3771 4143.3369)" class="st6" width="63.57" height="3.22"/>
		
			<rect x="1338.47" y="2638.38" transform="matrix(6.123234e-17 -1 1 6.123234e-17 -1288.0076 3991.9675)" class="st6" width="27.01" height="3.22"/>
	</g>
	<g>
		
			<rect x="1242.45" y="2934.95" transform="matrix(6.123234e-17 -1 1 6.123234e-17 -1597.0112 4274.541)" class="st5" width="192.63" height="1.66"/>
		
			<rect x="1201.21" y="2934.95" transform="matrix(6.123234e-17 -1 1 6.123234e-17 -1638.2535 4233.2983)" class="st5" width="192.63" height="1.66"/>
		<rect x="1295.92" y="3017.18" class="st5" width="44.53" height="7.53"/>
		<rect x="1295.92" y="2999.97" class="st5" width="44.53" height="7.53"/>
		<rect x="1295.92" y="2982.77" class="st5" width="44.53" height="7.53"/>
		<rect x="1295.92" y="2965.56" class="st5" width="44.53" height="7.53"/>
		<rect x="1295.92" y="2948.36" class="st5" width="44.53" height="7.53"/>
		<rect x="1295.92" y="2931.15" class="st5" width="44.53" height="7.53"/>
		<rect x="1295.92" y="2913.95" class="st5" width="44.53" height="7.53"/>
		<rect x="1295.92" y="2896.75" class="st5" width="44.53" height="7.53"/>
		<rect x="1295.92" y="2879.54" class="st5" width="44.53" height="7.53"/>
		<rect x="1295.92" y="2862.34" class="st5" width="44.53" height="7.53"/>
		<rect x="1290.02" y="3032.09" class="st6" width="63.57" height="3.22"/>
		<rect x="1290.13" y="2974.31" class="st6" width="66.81" height="1.68"/>
		
			<rect x="1270.98" y="3002.35" transform="matrix(6.123234e-17 -1 1 6.123234e-17 -1703.3275 4303.0703)" class="st6" width="57.78" height="1.69"/>
		
			<rect x="1280.02" y="3002.35" transform="matrix(6.123234e-17 -1 1 6.123234e-17 -1694.2841 4312.1138)" class="st6" width="57.78" height="1.69"/>
		
			<rect x="1289.07" y="3002.35" transform="matrix(6.123234e-17 -1 1 6.123234e-17 -1685.2407 4321.1572)" class="st6" width="57.78" height="1.69"/>
		
			<rect x="1298.11" y="3002.35" transform="matrix(6.123234e-17 -1 1 6.123234e-17 -1676.1973 4330.2007)" class="st6" width="57.78" height="1.69"/>
		
			<rect x="1307.15" y="3002.35" transform="matrix(6.123234e-17 -1 1 6.123234e-17 -1667.1539 4339.2437)" class="st6" width="57.78" height="1.69"/>
		
			<rect x="1316.2" y="3002.35" transform="matrix(6.123234e-17 -1 1 6.123234e-17 -1658.1105 4348.2871)" class="st6" width="57.78" height="1.69"/>
		<rect x="1290.02" y="2838.56" class="st6" width="63.57" height="3.22"/>
		
			<rect x="1320.2" y="3001.92" transform="matrix(6.123234e-17 -1 1 6.123234e-17 -1651.5477 4355.5073)" class="st6" width="63.57" height="3.22"/>
		
			<rect x="1338.47" y="2850.55" transform="matrix(6.123234e-17 -1 1 6.123234e-17 -1500.1782 4204.1382)" class="st6" width="27.01" height="3.22"/>
	</g>
</g>
<g>
	<rect x="1547.47" y="1386.8" class="st7" width="412.09" height="1732.79"/>
	<g>
		<g>
			<rect x="1840.12" y="1423.8" class="st1" width="77.01" height="118.6"/>
			<rect x="1842.9" y="1423.8" class="st2" width="71.57" height="118.6"/>
			<rect x="1837.04" y="1539.26" class="st8" width="82.6" height="18.3"/>
			<rect x="1959.45" y="1539.26" class="st8" width="6.61" height="18.3"/>
			<rect x="1959.45" y="1752.17" class="st8" width="6.61" height="18.3"/>
			<rect x="1959.45" y="1964.44" class="st8" width="6.61" height="18.3"/>
			<rect x="1959.45" y="2176.71" class="st8" width="6.61" height="18.3"/>
			<rect x="1959.45" y="2388.99" class="st8" width="6.61" height="18.3"/>
			<rect x="1837.04" y="1416.25" class="st8" width="82.6" height="9.15"/>
			<rect x="1846.22" y="1481.22" class="st4" width="30.98" height="54.39"/>
			<rect x="1879.87" y="1481.22" class="st4" width="30.98" height="54.39"/>
			<rect x="1846.22" y="1428.25" class="st4" width="30.98" height="50.17"/>
			<rect x="1879.87" y="1428.25" class="st4" width="30.98" height="50.17"/>
		</g>
		<g>
			<rect x="1714.74" y="1423.8" class="st1" width="77.01" height="118.6"/>
			<rect x="1717.52" y="1423.8" class="st2" width="71.57" height="118.6"/>
			<rect x="1711.66" y="1539.26" class="st8" width="82.6" height="18.3"/>
			<rect x="1711.66" y="1416.25" class="st8" width="82.6" height="9.15"/>
			<rect x="1720.84" y="1481.22" class="st4" width="30.98" height="54.39"/>
			<rect x="1754.49" y="1481.22" class="st4" width="30.98" height="54.39"/>
			<rect x="1720.84" y="1428.25" class="st4" width="30.98" height="50.17"/>
			<rect x="1754.49" y="1428.25" class="st4" width="30.98" height="50.17"/>
		</g>
		<g>
			<rect x="1589.35" y="1423.8" class="st1" width="77.01" height="118.6"/>
			<rect x="1592.13" y="1423.8" class="st2" width="71.57" height="118.6"/>
			<rect x="1586.27" y="1539.26" class="st8" width="82.6" height="18.3"/>
			<rect x="1586.27" y="1416.25" class="st8" width="82.6" height="9.15"/>
			<rect x="1595.45" y="1481.22" class="st4" width="30.98" height="54.39"/>
			<rect x="1629.11" y="1481.22" class="st4" width="30.98" height="54.39"/>
			<rect x="1595.45" y="1428.25" class="st4" width="30.98" height="50.17"/>
			<rect x="1629.11" y="1428.25" class="st4" width="30.98" height="50.17"/>
		</g>
		<g>
			<rect x="1840.12" y="1636.71" class="st1" width="77.01" height="118.6"/>
			<rect x="1842.9" y="1636.71" class="st2" width="71.57" height="118.6"/>
			<rect x="1837.04" y="1752.17" class="st8" width="82.6" height="18.3"/>
			<rect x="1837.04" y="1629.16" class="st8" width="82.6" height="9.15"/>
			<rect x="1846.22" y="1694.14" class="st4" width="30.98" height="54.39"/>
			<rect x="1879.87" y="1694.14" class="st4" width="30.98" height="54.39"/>
			<rect x="1846.22" y="1641.16" class="st4" width="30.98" height="50.17"/>
			<rect x="1879.87" y="1641.16" class="st4" width="30.98" height="50.17"/>
		</g>
		<g>
			<rect x="1714.74" y="1636.07" class="st1" width="77.01" height="118.6"/>
			<rect x="1717.52" y="1636.07" class="st2" width="71.57" height="118.6"/>
			<rect x="1711.66" y="1751.53" class="st8" width="82.6" height="18.3"/>
			<rect x="1711.66" y="1628.52" class="st8" width="82.6" height="9.15"/>
			<rect x="1720.84" y="1693.5" class="st4" width="30.98" height="54.39"/>
			<rect x="1754.49" y="1693.5" class="st4" width="30.98" height="54.39"/>
			<rect x="1720.84" y="1640.52" class="st4" width="30.98" height="50.17"/>
			<rect x="1754.49" y="1640.52" class="st4" width="30.98" height="50.17"/>
		</g>
		<g>
			<rect x="1589.35" y="1636.07" class="st1" width="77.01" height="118.6"/>
			<rect x="1592.13" y="1636.07" class="st2" width="71.57" height="118.6"/>
			<rect x="1586.27" y="1751.53" class="st8" width="82.6" height="18.3"/>
			<rect x="1586.27" y="1628.52" class="st8" width="82.6" height="9.15"/>
			<rect x="1595.45" y="1693.5" class="st4" width="30.98" height="54.39"/>
			<rect x="1629.11" y="1693.5" class="st4" width="30.98" height="54.39"/>
			<rect x="1595.45" y="1640.52" class="st4" width="30.98" height="50.17"/>
			<rect x="1629.11" y="1640.52" class="st4" width="30.98" height="50.17"/>
		</g>
		<g>
			<rect x="1840.12" y="1848.98" class="st1" width="77.01" height="118.6"/>
			<rect x="1842.9" y="1848.98" class="st2" width="71.57" height="118.6"/>
			<rect x="1837.04" y="1964.44" class="st8" width="82.6" height="18.3"/>
			<rect x="1837.04" y="1841.43" class="st8" width="82.6" height="9.15"/>
			<rect x="1846.22" y="1906.41" class="st4" width="30.98" height="54.39"/>
			<rect x="1879.87" y="1906.41" class="st4" width="30.98" height="54.39"/>
			<rect x="1846.22" y="1853.43" class="st4" width="30.98" height="50.17"/>
			<rect x="1879.87" y="1853.43" class="st4" width="30.98" height="50.17"/>
		</g>
		<g>
			<rect x="1714.74" y="1848.98" class="st1" width="77.01" height="118.6"/>
			<rect x="1717.52" y="1848.98" class="st2" width="71.57" height="118.6"/>
			<rect x="1711.66" y="1964.44" class="st8" width="82.6" height="18.3"/>
			<rect x="1711.66" y="1841.43" class="st8" width="82.6" height="9.15"/>
			<rect x="1720.84" y="1906.41" class="st4" width="30.98" height="54.39"/>
			<rect x="1754.49" y="1906.41" class="st4" width="30.98" height="54.39"/>
			<rect x="1720.84" y="1853.43" class="st4" width="30.98" height="50.17"/>
			<rect x="1754.49" y="1853.43" class="st4" width="30.98" height="50.17"/>
		</g>
		<g>
			<rect x="1589.35" y="1848.98" class="st1" width="77.01" height="118.6"/>
			<rect x="1592.13" y="1848.98" class="st2" width="71.57" height="118.6"/>
			<rect x="1586.27" y="1964.44" class="st8" width="82.6" height="18.3"/>
			<rect x="1586.27" y="1841.43" class="st8" width="82.6" height="9.15"/>
			<rect x="1595.45" y="1906.41" class="st4" width="30.98" height="54.39"/>
			<rect x="1629.11" y="1906.41" class="st4" width="30.98" height="54.39"/>
			<rect x="1595.45" y="1853.43" class="st4" width="30.98" height="50.17"/>
			<rect x="1629.11" y="1853.43" class="st4" width="30.98" height="50.17"/>
		</g>
		<g>
			<rect x="1840.12" y="2061.9" class="st1" width="77.01" height="118.6"/>
			<rect x="1842.9" y="2061.9" class="st2" width="71.57" height="118.6"/>
			<rect x="1837.04" y="2177.36" class="st8" width="82.6" height="18.3"/>
			<rect x="1837.04" y="2054.34" class="st8" width="82.6" height="9.15"/>
			<rect x="1846.22" y="2119.32" class="st4" width="30.98" height="54.39"/>
			<rect x="1879.87" y="2119.32" class="st4" width="30.98" height="54.39"/>
			<rect x="1846.22" y="2066.35" class="st4" width="30.98" height="50.17"/>
			<rect x="1879.87" y="2066.35" class="st4" width="30.98" height="50.17"/>
		</g>
		<g>
			<rect x="1714.74" y="2061.9" class="st1" width="77.01" height="118.6"/>
			<rect x="1717.52" y="2061.9" class="st2" width="71.57" height="118.6"/>
			<rect x="1711.66" y="2177.36" class="st8" width="82.6" height="18.3"/>
			<rect x="1711.66" y="2054.34" class="st8" width="82.6" height="9.15"/>
			<rect x="1720.84" y="2119.32" class="st4" width="30.98" height="54.39"/>
			<rect x="1754.49" y="2119.32" class="st4" width="30.98" height="54.39"/>
			<rect x="1720.84" y="2066.35" class="st4" width="30.98" height="50.17"/>
			<rect x="1754.49" y="2066.35" class="st4" width="30.98" height="50.17"/>
		</g>
		<g>
			<rect x="1589.35" y="2061.9" class="st1" width="77.01" height="118.6"/>
			<rect x="1592.13" y="2061.9" class="st2" width="71.57" height="118.6"/>
			<rect x="1586.27" y="2177.36" class="st8" width="82.6" height="18.3"/>
			<rect x="1586.27" y="2054.34" class="st8" width="82.6" height="9.15"/>
			<rect x="1595.45" y="2119.32" class="st4" width="30.98" height="54.39"/>
			<rect x="1629.11" y="2119.32" class="st4" width="30.98" height="54.39"/>
			<rect x="1595.45" y="2066.35" class="st4" width="30.98" height="50.17"/>
			<rect x="1629.11" y="2066.35" class="st4" width="30.98" height="50.17"/>
		</g>
		<g>
			<rect x="1840.12" y="2274.81" class="st1" width="77.01" height="118.6"/>
			<rect x="1842.9" y="2274.81" class="st2" width="71.57" height="118.6"/>
			<rect x="1837.04" y="2390.27" class="st8" width="82.6" height="18.3"/>
			<rect x="1837.04" y="2267.25" class="st8" width="82.6" height="9.15"/>
			<rect x="1846.22" y="2332.23" class="st4" width="30.98" height="54.39"/>
			<rect x="1879.87" y="2332.23" class="st4" width="30.98" height="54.39"/>
			<rect x="1846.22" y="2279.26" class="st4" width="30.98" height="50.17"/>
			<rect x="1879.87" y="2279.26" class="st4" width="30.98" height="50.17"/>
		</g>
		<g>
			<rect x="1714.74" y="2274.81" class="st1" width="77.01" height="118.6"/>
			<rect x="1717.52" y="2274.81" class="st2" width="71.57" height="118.6"/>
			<rect x="1711.66" y="2390.27" class="st8" width="82.6" height="18.3"/>
			<rect x="1711.66" y="2267.25" class="st8" width="82.6" height="9.15"/>
			<rect x="1720.84" y="2332.23" class="st4" width="30.98" height="54.39"/>
			<rect x="1754.49" y="2332.23" class="st4" width="30.98" height="54.39"/>
			<rect x="1720.84" y="2279.26" class="st4" width="30.98" height="50.17"/>
			<rect x="1754.49" y="2279.26" class="st4" width="30.98" height="50.17"/>
		</g>
		<g>
			<rect x="1589.35" y="2274.81" class="st1" width="77.01" height="118.6"/>
			<rect x="1592.13" y="2274.81" class="st2" width="71.57" height="118.6"/>
			<rect x="1586.27" y="2390.27" class="st8" width="82.6" height="18.3"/>
			<rect x="1586.27" y="2267.25" class="st8" width="82.6" height="9.15"/>
			<rect x="1595.45" y="2332.23" class="st4" width="30.98" height="54.39"/>
			<rect x="1629.11" y="2332.23" class="st4" width="30.98" height="54.39"/>
			<rect x="1595.45" y="2279.26" class="st4" width="30.98" height="50.17"/>
			<rect x="1629.11" y="2279.26" class="st4" width="30.98" height="50.17"/>
		</g>
		<g>
			<rect x="1840.12" y="2492.81" class="st1" width="77.01" height="118.6"/>
			<rect x="1842.9" y="2492.81" class="st2" width="71.57" height="118.6"/>
			<rect x="1837.04" y="2608.27" class="st8" width="82.6" height="18.3"/>
			<rect x="1837.04" y="2485.26" class="st8" width="82.6" height="9.15"/>
			<rect x="1846.22" y="2550.23" class="st4" width="30.98" height="54.39"/>
			<rect x="1879.87" y="2550.23" class="st4" width="30.98" height="54.39"/>
			<rect x="1846.22" y="2497.26" class="st4" width="30.98" height="50.17"/>
			<rect x="1879.87" y="2497.26" class="st4" width="30.98" height="50.17"/>
		</g>
		<g>
			<rect x="1714.74" y="2492.81" class="st1" width="77.01" height="118.6"/>
			<rect x="1717.52" y="2492.81" class="st2" width="71.57" height="118.6"/>
			<rect x="1711.66" y="2608.27" class="st8" width="82.6" height="18.3"/>
			<rect x="1711.66" y="2485.26" class="st8" width="82.6" height="9.15"/>
			<rect x="1720.84" y="2550.23" class="st4" width="30.98" height="54.39"/>
			<rect x="1754.49" y="2550.23" class="st4" width="30.98" height="54.39"/>
			<rect x="1720.84" y="2497.26" class="st4" width="30.98" height="50.17"/>
			<rect x="1754.49" y="2497.26" class="st4" width="30.98" height="50.17"/>
		</g>
		<g>
			<rect x="1589.35" y="2492.81" class="st1" width="77.01" height="118.6"/>
			<rect x="1592.13" y="2492.81" class="st2" width="71.57" height="118.6"/>
			<rect x="1586.27" y="2608.27" class="st8" width="82.6" height="18.3"/>
			<rect x="1586.27" y="2485.26" class="st8" width="82.6" height="9.15"/>
			<rect x="1595.45" y="2550.23" class="st4" width="30.98" height="54.39"/>
			<rect x="1629.11" y="2550.23" class="st4" width="30.98" height="54.39"/>
			<rect x="1595.45" y="2497.26" class="st4" width="30.98" height="50.17"/>
			<rect x="1629.11" y="2497.26" class="st4" width="30.98" height="50.17"/>
		</g>
		<g>
			<rect x="1840.12" y="2710.98" class="st1" width="77.01" height="118.6"/>
			<rect x="1842.9" y="2710.98" class="st2" width="71.57" height="118.6"/>
			<rect x="1837.04" y="2826.44" class="st8" width="82.6" height="18.3"/>
			<rect x="1837.04" y="2703.43" class="st8" width="82.6" height="9.15"/>
			<rect x="1846.22" y="2768.4" class="st4" width="30.98" height="54.39"/>
			<rect x="1879.87" y="2768.4" class="st4" width="30.98" height="54.39"/>
			<rect x="1846.22" y="2715.43" class="st4" width="30.98" height="50.17"/>
			<rect x="1879.87" y="2715.43" class="st4" width="30.98" height="50.17"/>
		</g>
		<g>
			<rect x="1714.74" y="2710.98" class="st1" width="77.01" height="118.6"/>
			<rect x="1717.52" y="2710.98" class="st2" width="71.57" height="118.6"/>
			<rect x="1711.66" y="2826.44" class="st8" width="82.6" height="18.3"/>
			<rect x="1711.66" y="2703.43" class="st8" width="82.6" height="9.15"/>
			<rect x="1720.84" y="2768.4" class="st4" width="30.98" height="54.39"/>
			<rect x="1754.49" y="2768.4" class="st4" width="30.98" height="54.39"/>
			<rect x="1720.84" y="2715.43" class="st4" width="30.98" height="50.17"/>
			<rect x="1754.49" y="2715.43" class="st4" width="30.98" height="50.17"/>
		</g>
		<g>
			<rect x="1589.35" y="2710.98" class="st1" width="77.01" height="118.6"/>
			<rect x="1592.13" y="2710.98" class="st2" width="71.57" height="118.6"/>
			<rect x="1586.27" y="2826.44" class="st8" width="82.6" height="18.3"/>
			<rect x="1586.27" y="2703.43" class="st8" width="82.6" height="9.15"/>
			<rect x="1595.45" y="2768.4" class="st4" width="30.98" height="54.39"/>
			<rect x="1629.11" y="2768.4" class="st4" width="30.98" height="54.39"/>
			<rect x="1595.45" y="2715.43" class="st4" width="30.98" height="50.17"/>
			<rect x="1629.11" y="2715.43" class="st4" width="30.98" height="50.17"/>
		</g>
		<g>
			<rect x="1840.12" y="2929.55" class="st1" width="77.01" height="118.6"/>
			<rect x="1842.9" y="2929.55" class="st2" width="71.57" height="118.6"/>
			<rect x="1837.04" y="3045.01" class="st8" width="82.6" height="18.3"/>
			<rect x="1837.04" y="2922" class="st8" width="82.6" height="9.15"/>
			<rect x="1846.22" y="2986.97" class="st4" width="30.98" height="54.39"/>
			<rect x="1879.87" y="2986.97" class="st4" width="30.98" height="54.39"/>
			<rect x="1846.22" y="2934" class="st4" width="30.98" height="50.17"/>
			<rect x="1879.87" y="2934" class="st4" width="30.98" height="50.17"/>
		</g>
		<g>
			<rect x="1714.74" y="2929.55" class="st1" width="77.01" height="118.6"/>
			<rect x="1717.52" y="2929.55" class="st2" width="71.57" height="118.6"/>
			<rect x="1711.66" y="3045.01" class="st8" width="82.6" height="18.3"/>
			<rect x="1711.66" y="2922" class="st8" width="82.6" height="9.15"/>
			<rect x="1720.84" y="2986.97" class="st4" width="30.98" height="54.39"/>
			<rect x="1754.49" y="2986.97" class="st4" width="30.98" height="54.39"/>
			<rect x="1720.84" y="2934" class="st4" width="30.98" height="50.17"/>
			<rect x="1754.49" y="2934" class="st4" width="30.98" height="50.17"/>
		</g>
		<g>
			<rect x="1589.35" y="2929.55" class="st1" width="77.01" height="118.6"/>
			<rect x="1592.13" y="2929.55" class="st2" width="71.57" height="118.6"/>
			<rect x="1586.27" y="3045.01" class="st8" width="82.6" height="18.3"/>
			<rect x="1586.27" y="2922" class="st8" width="82.6" height="9.15"/>
			<rect x="1595.45" y="2986.97" class="st4" width="30.98" height="54.39"/>
			<rect x="1629.11" y="2986.97" class="st4" width="30.98" height="54.39"/>
			<rect x="1595.45" y="2934" class="st4" width="30.98" height="50.17"/>
			<rect x="1629.11" y="2934" class="st4" width="30.98" height="50.17"/>
		</g>
	</g>
	<rect x="1535.82" y="1358.45" class="st2" width="433.07" height="20.55"/>
	<rect x="1528.1" y="1366.3" class="st8" width="448.85" height="20.79"/>
	<rect x="1552.9" y="1391.82" class="st1" width="403.02" height="3.95"/>
	<rect x="1545.22" y="1354.33" class="st1" width="413.2" height="4.09"/>
</g>
<g>
	<path class="st9" d="M1354.15,2213.37c65.4,3.52,131.51-1.86,193.67-15.75c1.21-0.27,0.69-1.55-0.53-1.28
		c-62.01,13.85-127.9,19.21-193.14,15.7C1352.86,2211.98,1352.87,2213.3,1354.15,2213.37L1354.15,2213.37z"/>
	<path class="st9" d="M1352.89,2160.64c60.01,21.14,131.93,25.78,196.98,12.68c1.23-0.25,0.7-1.52-0.53-1.28
		c-64.54,13-135.88,8.43-195.44-12.55C1352.76,2159.1,1351.75,2160.24,1352.89,2160.64L1352.89,2160.64z"/>
	<path class="st9" d="M1352.67,2436.9c64.07,12.75,132.2,15.71,198.33,8.67c1.27-0.14,0.73-1.38-0.53-1.25
		c-65.77,7.01-133.56,4.02-197.27-8.67C1351.97,2435.4,1351.44,2436.65,1352.67,2436.9L1352.67,2436.9z"/>
	<path class="st9" d="M1353.15,1582.95c62.56,13.44,130.61,17.52,196.71,11.87c1.26-0.11,0.72-1.2-0.53-1.09
		c-65.74,5.62-133.45,1.48-195.66-11.87C1352.48,1581.6,1351.96,1582.7,1353.15,1582.95L1353.15,1582.95z"/>
	<path class="st9" d="M1504.21,1621.4c-4.63,2.21-9.45,0.65-12.42-0.28c-1.42-0.44-2.81-0.36-2.81-0.36l-0.25-12.54
		c0,0,1.12-0.34,1.83-2.95c0.53-1.98-0.8-4.61-1.48-5.76c0.73-0.27,1.51-0.4,2.33-0.37c0,0,1.31,1.81,4.44,1.51
		c3.14-0.3,3.27-1.71,3.27-1.71c0.8-0.04,1.55,0.02,2.26,0.19c-0.39,1.25-0.21,6.06,0.64,6.98c0.92,0.98,0.92,0.98,0.92,0.98
		L1504.21,1621.4z"/>
	
		<rect x="1499.98" y="1596.39" transform="matrix(1 -6.817816e-03 6.817816e-03 1 -10.8604 10.2671)" class="st10" width="0.99" height="3.32"/>
	
		<rect x="1434.55" y="1593.11" transform="matrix(1 -6.817816e-03 6.817816e-03 1 -10.8395 9.821)" class="st10" width="0.99" height="3.32"/>
	
		<rect x="1489.56" y="1596.47" transform="matrix(1 -6.817816e-03 6.817816e-03 1 -10.8611 10.1961)" class="st10" width="0.99" height="3.32"/>
	
		<rect x="1368.96" y="1583.64" transform="matrix(0.993 0.118 -0.118 0.993 196.6184 -150.5099)" class="st10" width="0.99" height="3.32"/>
	
		<rect x="1436.87" y="1593.09" transform="matrix(1 -6.817816e-03 6.817816e-03 1 -10.8393 9.8367)" class="st10" width="0.99" height="3.32"/>
	<path class="st9" d="M1368.11,1587.44l0.66-0.54c0,0,1.08-0.39,1.51,0.54c0.43,0.94-0.21,7.79,0,9.45
		c0.16,1.28,0.71,3.08,0.95,3.85c0.07,0.21-0.05,0.42-0.25,0.49c-0.35,0.12-0.87,0.32-1.26,0.51c-0.14,0.07-0.3-0.01-0.34-0.16
		c-0.27-1.12-1.33-4.94-3.36-4.43c-2.38,0.6-1.96,0.47-1.96,0.47s-0.94-1.53,0-2.64
		C1364.06,1594.97,1368.28,1593.35,1368.11,1587.44z"/>
	<path class="st9" d="M1509.83,1597.8c0,0,12.99,1.86,16.78,1.09c3.79-0.77,5.27-2.76,8.74-2.44l1.09,27.07c0,0-6.88,0.71-8.55,2.12
		c-1.67,1.41-12.47,1.54-17.17-0.51C1510.73,1625.12,1511.69,1602.49,1509.83,1597.8z"/>
	
		<rect x="1532.42" y="1594.27" transform="matrix(0.9879 -0.1549 0.1549 0.9879 -228.6675 256.6571)" class="st10" width="0.99" height="3.32"/>
	
		<rect x="1511.4" y="1595.15" transform="matrix(1 -6.817816e-03 6.817816e-03 1 -10.8516 10.3449)" class="st10" width="0.99" height="3.32"/>
	<path class="st9" d="M1372.47,2237.54c-4.74,1.96-9.47,0.14-12.39-0.95c-1.39-0.52-2.79-0.51-2.79-0.51l0.43-12.53
		c0,0,1.14-0.28,1.99-2.85c0.64-1.95-0.55-4.65-1.17-5.83c0.74-0.23,1.53-0.32,2.35-0.24c0,0,1.21,1.88,4.35,1.75
		c3.15-0.13,3.36-1.53,3.36-1.53c0.8,0,1.55,0.1,2.25,0.31c-0.46,1.23-0.54,6.04,0.26,7c0.87,1.03,0.87,1.03,0.87,1.03
		L1372.47,2237.54z"/>
	
		<rect x="1369.51" y="2212.36" transform="matrix(0.9989 0.0474 -0.0474 0.9989 106.5463 -62.4838)" class="st10" width="0.99" height="3.32"/>
	
		<rect x="1511.7" y="2176.69" transform="matrix(0.99 -0.141 0.141 0.99 -292.0334 234.9754)" class="st10" width="0.99" height="3.32"/>
	
		<rect x="1359.11" y="2211.87" transform="matrix(0.9989 0.0474 -0.0474 0.9989 106.5111 -61.991)" class="st10" width="0.99" height="3.32"/>
	<path class="st9" d="M1379.36,2214.27c0,0,12.87,2.57,16.7,2c3.83-0.56,5.41-2.47,8.86-1.97l-0.38,27.09c0,0-6.91,0.33-8.65,1.65
		c-1.75,1.32-12.54,0.86-17.11-1.44C1378.78,2241.6,1380.97,2219.06,1379.36,2214.27z"/>
	
		<rect x="1402.01" y="2212" transform="matrix(0.9949 -0.1011 0.1011 0.9949 -216.5333 153.0714)" class="st10" width="0.99" height="3.32"/>
	
		<rect x="1380.98" y="2211.74" transform="matrix(0.9989 0.0474 -0.0474 0.9989 106.5297 -63.0284)" class="st10" width="0.99" height="3.32"/>
	
		<rect x="1459.37" y="2178" transform="matrix(0.9989 0.0474 -0.0474 0.9989 105.0177 -66.7843)" class="st10" width="0.99" height="3.32"/>
	
		<rect x="1457.26" y="2178" transform="matrix(0.9989 0.0474 -0.0474 0.9989 105.0153 -66.6842)" class="st10" width="0.99" height="3.32"/>
	<path class="st9" d="M1454.08,2450.06c0,0,19.76,0.14,21.18,0c1.42-0.14,4.13-0.69,5.01,0.06s2.69,1.02,2.69,1.02l0.09,3.05
		c0.01,0.34,0.24,0.64,0.57,0.73l0.66-0.56l-0.15-3.96c0,0,0.74-0.68,3.25-0.07c2.5,0.61,12.79-0.6,12.79-0.6s5.82-0.35,6.22,1.14
		c0.41,1.49,0,2.91,0,2.91s-2.71,0.81-3.25,0.88c-0.54,0.07,0-1.15-0.68-1.15c-0.68,0-7.1,1.35-8.8,1.15
		c-1.69-0.2-2.71,1.15-2.64,1.76s0.14,14.14,0.14,14.14s-0.41,2.71-4.26,2.57c-3.86-0.14-10.22-3.32-11.5-2.98
		c-1.29,0.34,1.42-13.87,0.68-14.68c-0.74-0.81-16.44-1.76-17.39-1.89c-0.95-0.14-3.59-0.61-4.6-0.41
		C1453.07,2453.37,1454.08,2450.06,1454.08,2450.06z"/>
	
		<rect x="1477.05" y="2447.64" transform="matrix(0.9989 0.0474 -0.0474 0.9989 117.8257 -67.3194)" class="st10" width="0.99" height="3.32"/>
	
		<rect x="1459.61" y="2447.25" transform="matrix(0.9989 0.0474 -0.0474 0.9989 117.7876 -66.4927)" class="st10" width="0.99" height="3.32"/>
	<rect x="1485.24" y="2447.25" class="st10" width="0.99" height="3.32"/>
	<rect x="1501.08" y="2447.25" class="st10" width="0.99" height="3.32"/>
	<rect x="1534.71" y="2444.81" class="st10" width="0.99" height="3.32"/>
	<path class="st9" d="M1435.32,2448.22c0,0,6.06,1.23,8.03,0.96s4.17,0.04,4.17,0.04s0.94,9.75-0.81,11.32c0,0-2.87-0.67-4.26-0.36
		s-7.41-0.36-7.41-0.36S1436.22,2450.53,1435.32,2448.22z"/>
	
		<rect x="1445.09" y="2446.56" transform="matrix(0.9989 0.0474 -0.0474 0.9989 117.7385 -65.8048)" class="st10" width="0.99" height="3.32"/>
	
		<rect x="1436.97" y="2445.73" transform="matrix(0.9989 0.0474 -0.0474 0.9989 117.6903 -65.4205)" class="st10" width="0.99" height="3.32"/>
</g>
</svg>
