<?xml version="1.0" encoding="utf-8"?>
<!-- Generator: Adobe Illustrator 23.0.2, SVG Export Plug-In . SVG Version: 6.00 Build 0)  -->
<svg version="1.1" id="Layer_4_-_building_silhouettes"
	 xmlns="http://www.w3.org/2000/svg" xmlns:xlink="http://www.w3.org/1999/xlink" x="0px" y="0px" viewBox="0 0 2796.94 3120.78"
	 style="enable-background:new 0 0 2796.94 3120.78;" xml:space="preserve">
<style type="text/css">
	.st0{opacity:0.69;fill:#9E6D79;}
	.st1{opacity:0.46;fill:#BF606B;}
	.st2{opacity:0.36;fill:#BF606B;}
</style>
<polygon class="st0" points="1124.02,1171.11 1124.02,1182.93 1104.59,1182.93 1104.59,1209.35 1094.21,1209.35 1094.21,3119.59 
	659.65,3119.59 659.65,1209.35 649.26,1209.35 649.26,1182.93 627.29,1182.93 627.29,1171.11 649.26,1171.11 649.26,1144.69 
	659.65,1144.69 659.65,1135.85 1094.21,1135.85 1094.21,1144.69 1104.59,1144.69 1104.59,1171.11 "/>
<polygon class="st0" points="1978.16,900.26 1978.16,3120.78 1663.4,3120.78 1663.4,2989.48 1638.31,2989.48 1638.31,2977.2 
	1663.4,2977.2 1663.4,2832.16 1638.31,2832.16 1638.31,2819.88 1663.4,2819.88 1663.4,2674.86 1638.31,2674.86 1638.31,2662.56 
	1663.4,2662.56 1663.4,2517.54 1638.31,2517.54 1638.31,2505.25 1663.4,2505.25 1663.4,2360.22 1638.31,2360.22 1638.31,2347.94 
	1663.4,2347.94 1663.4,2202.91 1638.31,2202.91 1638.31,2190.62 1663.4,2190.62 1663.4,2045.59 1638.31,2045.59 1638.31,2033.31 
	1663.4,2033.31 1663.4,1888.28 1638.31,1888.28 1638.31,1875.99 1663.4,1875.99 1663.4,1730.97 1638.31,1730.97 1638.31,1718.68 
	1663.4,1718.68 1663.4,1573.65 1638.31,1573.65 1638.31,1561.36 1663.4,1561.36 1663.4,1416.34 1638.31,1416.34 1638.31,1404.05 
	1663.4,1404.05 1663.4,1259.02 1638.31,1259.02 1638.31,1246.74 1663.4,1246.74 1663.4,1101.7 1638.31,1101.7 1638.31,1089.42 
	1663.4,1089.42 1663.4,944.39 1638.31,944.39 1638.31,932.1 1663.4,932.1 1663.4,900.26 "/>
<path class="st1" d="M1918.61,1585.7v1535.08h-421.7v-268.35c-25.55,6.43-51.55,11.57-77.87,15.33
	c-93.08,13.31-189.4,9.78-280.62-10.44c-2.82-0.63-1.61-1.42,1.22-0.79c25.64,5.68,51.67,10.09,77.98,13.13
	c93.07,10.76,188.79,4.49,278.63-18.15c0.24-0.07,0.47-0.09,0.67-0.09v-606.23c-22.07,11.22-45.24,20.88-69.15,29.17
	c-91.29,31.59-190.23,42.57-287.68,53.32c-2.55,0.28-3.11-0.59-0.6-0.86c28.36-3.14,56.74-6.27,85.01-9.92
	c94.41-12.2,189.62-30.84,271.56-72.87c0.3-0.15,0.59-0.24,0.86-0.28v-185.28c-25.15,4.35-50.55,7.7-76.1,10.01
	c-93.41,8.43-188.5,2.85-279.53-16.27c-2.84-0.6-1.62-1.4,1.2-0.8c25.31,5.32,50.91,9.62,76.73,12.83
	c91.94,11.43,186.27,9.11,277.24-6.69c0.16-0.03,0.32-0.05,0.47-0.05v-409.31c-26.34,7.9-53.1,14.82-80.24,20.65
	c-48.25,10.38-97.69,17.63-147.41,21.05c-44.01,3.02-90.6,2.8-129.83-15.78c-2.53-1.2-0.25-2.56,2.3-1.36
	c22.22,10.52,47.3,15.45,72.73,16.93c46.94,2.73,95.25-3.41,141.25-10.57c48.05-7.48,95.28-18.26,141.2-32.08v-61.32H1918.61z"/>
<rect x="841.23" y="1179.96" class="st2" width="371.1" height="1940.82"/>
</svg>
