<?xml version="1.0" encoding="utf-8"?>
<!-- Generator: Adobe Illustrator 23.0.2, SVG Export Plug-In . SVG Version: 6.00 Build 0)  -->
<svg version="1.1" id="Layer_5_-_clouds" xmlns="http://www.w3.org/2000/svg" xmlns:xlink="http://www.w3.org/1999/xlink" x="0px"
	 y="0px" viewBox="0 0 2796.94 3120.78" style="enable-background:new 0 0 2796.94 3120.78;" xml:space="preserve">
<style type="text/css">
	.st0{opacity:0.18;}
	.st1{fill:#FFFFFF;}
</style>
<g class="st0">
	<path class="st1" d="M1707.38,936.9c9.85,0.65,19.71,1.08,29.58,1.24c54.75,0.89,108.36,3.71,163.32,1.94
		c124.03-4.01,253.49-8.78,377,3.66c28.31,2.85,54.47,11.92,82.28,15.38c24.04,2.99,44.8-8.87,68.74-12.81
		c22.5-3.7,56.88,2.94,77.3-7.45c20.59-10.48,10.13-10.12-3.14-15.58c-17.92-7.38-19.15-8.89-33.22-23.91
		c-27.77-29.64-48.59-11.95-80.43-18.31c-38.38-7.67-59.94-60.17-98.09-74.32c-93.59-34.73-158.39,39.64-243.16,57.67
		c-63.05,13.42-128.5-23.36-193.5-18.01c-28.42,2.34-45.8,6.83-68.11,22.76c-16.07,11.47-29.3,20.19-50.78,18.16
		c-17.75-1.69-32.95-13.72-52.23-10.25c-18.3,3.3-25.19,17.61-39.75,26.12c-15.76,9.22-30.69,5.89-47.11,9.41
		c-5.38,1.15-14.25-3.33-16.74,3.56c-2.99,8.27,11.35,13.23,16.75,13.36L1707.38,936.9z"/>
</g>
<g class="st0">
	<path class="st1" d="M558.33,838.06c9.85,0.65,19.71,1.08,29.58,1.24c54.75,0.89,108.36,3.71,163.32,1.94
		c124.03-4.01,253.49-8.78,377,3.66c28.31,2.85,54.47,11.92,82.28,15.38c24.04,2.99,44.8-8.87,68.74-12.81
		c22.5-3.7,56.88,2.94,77.3-7.45c20.59-10.48,10.13-10.12-3.14-15.58c-17.92-7.38-19.14-8.89-33.22-23.91
		c-27.77-29.64-48.59-11.95-80.43-18.31c-38.38-7.67-59.94-60.17-98.09-74.32c-93.59-34.73-158.39,39.64-243.16,57.67
		c-63.05,13.42-128.5-23.36-193.5-18.01c-28.42,2.34-45.8,6.83-68.11,22.76c-16.07,11.47-29.3,20.19-50.78,18.16
		c-17.75-1.69-32.95-13.72-52.23-10.25c-18.3,3.3-25.19,17.61-39.75,26.12c-15.76,9.22-30.69,5.89-47.11,9.41
		c-5.38,1.15-14.25-3.33-16.74,3.56c-2.99,8.27,11.35,13.23,16.75,13.36L558.33,838.06z"/>
</g>
<g class="st0">
	<path class="st1" d="M1250,413.63c9.85,0.65,19.71,1.08,29.58,1.24c54.75,0.89,108.36,3.71,163.32,1.94
		c124.03-4.01,253.49-8.78,377,3.66c28.31,2.85,54.47,11.92,82.28,15.38c24.04,2.99,44.8-8.87,68.74-12.81
		c22.5-3.7,56.88,2.94,77.3-7.45c20.59-10.48,10.13-10.12-3.14-15.58c-17.92-7.38-19.14-8.89-33.22-23.91
		c-27.77-29.64-48.59-11.95-80.43-18.31c-38.38-7.67-59.94-60.17-98.09-74.32c-93.59-34.73-158.39,39.64-243.16,57.67
		c-63.05,13.42-128.5-23.36-193.5-18.01c-28.42,2.34-45.8,6.83-68.11,22.76c-16.07,11.47-29.3,20.19-50.78,18.16
		c-17.75-1.69-32.95-13.72-52.23-10.25c-18.3,3.3-25.19,17.61-39.75,26.12c-15.76,9.22-30.69,5.89-47.11,9.41
		c-5.38,1.15-14.25-3.33-16.74,3.56c-2.99,8.27,11.35,13.23,16.75,13.36L1250,413.63z"/>
</g>
<g class="st0">
	<path class="st1" d="M2216.97,1046.27c-131.49,0-261.97-6.18-393.93-2.17c-113.2,3.44-225,8.85-336.77-2.26
		c-18.82-1.87-82.2,1.52-87.59-16.4c10.16-0.54,23.23,1.96,32.5-2.34c16.77-7.77,18.16-17.85,39.2-19.13
		c14.35-0.88,30.33,2.66,44.41,0c18.84-3.56,19.24-9.65,31.66-24.15c28.4-33.18,61.77-26.89,96-44.42
		c31.24-16,56.13-50.69,88.09-62.27c47.24-17.12,54.84,25.53,92.25,37.12c49.13,15.22,100.17-8.91,143.41,31.52
		c13.4,12.53,21.94,29.94,40.06,37.38c26.75,10.99,45.39-5.2,66.8-18.27c22.63-13.81,34.3-8.6,57.78-11.83
		c18.41-2.53,32.5-18.25,50.14-23.94c58.28-18.78,62.24,54.79,114.31,63.79c34.08,5.89,64.01-2.18,91.08,23.85
		c12.12,11.65,9.35,11.69,24.93,16.6c12.51,3.94,21.45-2.57,27.88,12.82c-20.46,6.54-84.6,9.82-124.9,6.63L2216.97,1046.27z"/>
</g>
<g class="st0">
	<path class="st1" d="M981.71,1172.24c-131.49,0-261.97-6.18-393.93-2.17c-113.2,3.44-225,8.85-336.77-2.26
		c-18.82-1.87-82.2,1.52-87.59-16.4c10.16-0.54,23.23,1.96,32.5-2.34c16.77-7.77,18.16-17.85,39.2-19.13
		c14.35-0.88,30.33,2.66,44.41,0c18.84-3.56,19.25-9.65,31.66-24.15c28.4-33.18,61.77-26.89,96-44.42
		c31.24-16,56.13-50.69,88.09-62.27c47.24-17.12,54.84,25.53,92.25,37.12c49.13,15.22,100.17-8.91,143.41,31.52
		c13.4,12.53,21.94,29.94,40.06,37.38c26.75,10.99,45.39-5.2,66.8-18.27c22.63-13.81,34.3-8.6,57.78-11.83
		c18.41-2.53,32.5-18.25,50.14-23.94c58.28-18.78,62.24,54.79,114.31,63.79c34.08,5.89,64.01-2.18,91.08,23.85
		c12.12,11.65,9.35,11.69,24.93,16.6c12.51,3.94,21.45-2.57,27.88,12.82c-20.46,6.54-84.6,9.82-124.9,6.63L981.71,1172.24z"/>
</g>
</svg>
