<?xml version="1.0" encoding="utf-8"?>
<!-- Generator: Adobe Illustrator 23.0.2, SVG Export Plug-In . SVG Version: 6.00 Build 0)  -->
<svg version="1.1" id="Layer_2_-_fog" xmlns="http://www.w3.org/2000/svg" xmlns:xlink="http://www.w3.org/1999/xlink" x="0px"
	 y="0px" viewBox="0 0 2796.94 3120.78" style="enable-background:new 0 0 2796.94 3120.78;" xml:space="preserve">
<style type="text/css">
	.st0{opacity:0.09;}
	.st1{fill:#FFFFFF;}
	.st2{opacity:0.18;}
</style>
<g class="st0">
	<path class="st1" d="M2230.13,1874.31c-160.21,0-319.21-10.05-480-3.53c-137.93,5.59-274.16,14.38-410.34-3.67
		c-22.93-3.04-100.16,2.46-106.73-26.66c12.38-0.87,28.3,3.18,39.6-3.8c20.43-12.64,22.13-29.01,47.76-31.1
		c17.48-1.43,36.96,4.32,54.11,0c22.96-5.78,23.45-15.68,38.57-39.25c34.6-53.93,75.26-43.71,116.97-72.2
		c38.06-26,68.39-82.39,107.33-101.22c57.57-27.83,66.82,41.5,112.4,60.35c59.86,24.75,122.06-14.48,174.74,51.23
		c16.33,20.37,26.74,48.67,48.81,60.77c32.6,17.87,55.31-8.46,81.4-29.7c27.57-22.45,41.8-13.98,70.41-19.22
		c22.43-4.11,39.6-29.67,61.1-38.91c71.01-30.52,75.83,89.06,139.29,103.69c41.53,9.58,77.99-3.54,110.98,38.77
		c14.77,18.94,11.4,19,30.37,26.98c15.24,6.41,26.13-4.18,33.97,20.83c-24.92,10.63-103.09,15.97-152.18,10.78L2230.13,1874.31z"/>
</g>
<g class="st0">
	<path class="st1" d="M1387.2,2497.59c-181.24,0-361.1-11.37-542.99-3.99c-156.04,6.33-310.14,16.27-464.2-4.16
		c-25.94-3.44-113.3,2.79-120.74-30.16c14.01-0.99,32.02,3.6,44.79-4.3c23.12-14.3,25.03-32.81,54.03-35.18
		c19.78-1.61,41.81,4.89,61.21,0c25.97-6.54,26.53-17.74,43.64-44.4c39.14-61,85.14-49.45,132.32-81.68
		c43.06-29.41,77.37-93.21,121.42-114.5c65.12-31.48,75.59,46.95,127.15,68.27c67.71,27.99,138.08-16.38,197.68,57.96
		c18.48,23.05,30.24,55.06,55.21,68.74c36.88,20.21,62.57-9.57,92.08-33.59c31.19-25.39,47.28-15.82,79.65-21.74
		c25.38-4.65,44.8-33.56,69.12-44.02c80.33-34.53,85.78,100.74,157.57,117.3c46.98,10.84,88.23-4,125.55,43.86
		c16.71,21.43,12.89,21.49,34.36,30.52c17.24,7.25,29.56-4.73,38.42,23.57c-28.2,12.03-116.62,18.06-172.15,12.19L1387.2,2497.59z"
		/>
</g>
<g class="st2">
	<path class="st1" d="M170.64,1364.01c15.37,1.02,30.78,1.68,46.18,1.93c85.47,1.39,169.16,5.8,254.95,3.02
		c193.61-6.25,395.72-13.71,588.53,5.71c44.2,4.45,85.03,18.61,128.45,24.01c37.53,4.66,69.94-13.85,107.3-19.99
		c35.12-5.77,88.8,4.6,120.67-11.63c32.14-16.37,15.81-15.8-4.9-24.33c-27.98-11.52-29.89-13.87-51.86-37.33
		c-43.35-46.27-75.85-18.65-125.55-28.58c-59.92-11.97-93.57-93.93-153.12-116.02c-146.11-54.22-247.26,61.87-379.6,90.03
		c-98.43,20.94-200.59-36.47-302.07-28.12c-44.37,3.65-71.49,10.66-106.32,35.52c-25.09,17.91-45.74,31.53-79.27,28.34
		c-27.71-2.63-51.44-21.43-81.53-16c-28.57,5.15-39.32,27.49-62.05,40.78c-24.61,14.39-47.9,9.2-73.55,14.69
		c-8.39,1.8-22.24-5.2-26.13,5.56c-4.67,12.91,17.73,20.66,26.14,20.86L170.64,1364.01z"/>
</g>
</svg>
