<?xml version="1.0" encoding="utf-8"?>
<!-- Generator: Adobe Illustrator 23.0.2, SVG Export Plug-In . SVG Version: 6.00 Build 0)  -->
<svg version="1.1" id="Layer_3_-_buildings" xmlns="http://www.w3.org/2000/svg" xmlns:xlink="http://www.w3.org/1999/xlink"
	 x="0px" y="0px" viewBox="0 0 2796.94 3120.78" style="enable-background:new 0 0 2796.94 3120.78;" xml:space="preserve">
<style type="text/css">
	.st0{fill:#B25D5D;}
	.st1{fill:#776A6A;}
	.st2{fill:#D6AB9A;}
	.st3{fill:#CE7676;}
	.st4{fill:#C18F8F;}
	.st5{fill:#7F5D65;}
	.st6{fill:#937079;}
	.st7{fill:#D86868;}
	.st8{fill:#F7563C;}
	.st9{fill:#6D5C60;}
	.st10{fill:#C9BAB8;}
</style>
<g>
	<rect x="878.04" y="1245.42" class="st0" width="412.09" height="1784.39"/>
	<g>
		<g>
			<rect x="1170.7" y="1282.42" class="st1" width="77.01" height="118.6"/>
			<rect x="1173.48" y="1282.42" class="st2" width="71.57" height="118.6"/>
			<rect x="1167.62" y="1397.88" class="st3" width="82.6" height="18.3"/>
			<rect x="1290.02" y="1397.88" class="st3" width="6.61" height="18.3"/>
			<rect x="1290.02" y="1610.79" class="st3" width="6.61" height="18.3"/>
			<rect x="1290.02" y="1823.06" class="st3" width="6.61" height="18.3"/>
			<rect x="1290.02" y="2035.34" class="st3" width="6.61" height="18.3"/>
			<rect x="1290.02" y="2247.61" class="st3" width="6.61" height="18.3"/>
			<rect x="1167.62" y="1274.87" class="st3" width="82.6" height="9.15"/>
			<rect x="1176.8" y="1339.85" class="st4" width="30.98" height="54.39"/>
			<rect x="1210.45" y="1339.85" class="st4" width="30.98" height="54.39"/>
			<rect x="1176.8" y="1286.87" class="st4" width="30.98" height="50.17"/>
			<rect x="1210.45" y="1286.87" class="st4" width="30.98" height="50.17"/>
		</g>
		<g>
			<rect x="1045.32" y="1282.42" class="st1" width="77.01" height="118.6"/>
			<rect x="1048.09" y="1282.42" class="st2" width="71.57" height="118.6"/>
			<rect x="1042.23" y="1397.88" class="st3" width="82.6" height="18.3"/>
			<rect x="1042.23" y="1274.87" class="st3" width="82.6" height="9.15"/>
			<rect x="1051.41" y="1339.85" class="st4" width="30.98" height="54.39"/>
			<rect x="1085.07" y="1339.85" class="st4" width="30.98" height="54.39"/>
			<rect x="1051.41" y="1286.87" class="st4" width="30.98" height="50.17"/>
			<rect x="1085.07" y="1286.87" class="st4" width="30.98" height="50.17"/>
		</g>
		<g>
			<rect x="919.93" y="1282.42" class="st1" width="77.01" height="118.6"/>
			<rect x="922.71" y="1282.42" class="st2" width="71.57" height="118.6"/>
			<rect x="916.85" y="1397.88" class="st3" width="82.6" height="18.3"/>
			<rect x="916.85" y="1274.87" class="st3" width="82.6" height="9.15"/>
			<rect x="926.03" y="1339.85" class="st4" width="30.98" height="54.39"/>
			<rect x="959.68" y="1339.85" class="st4" width="30.98" height="54.39"/>
			<rect x="926.03" y="1286.87" class="st4" width="30.98" height="50.17"/>
			<rect x="959.68" y="1286.87" class="st4" width="30.98" height="50.17"/>
		</g>
		<g>
			<rect x="1170.7" y="1495.33" class="st1" width="77.01" height="118.6"/>
			<rect x="1173.48" y="1495.33" class="st2" width="71.57" height="118.6"/>
			<rect x="1167.62" y="1610.79" class="st3" width="82.6" height="18.3"/>
			<rect x="1167.62" y="1487.78" class="st3" width="82.6" height="9.15"/>
			<rect x="1176.8" y="1552.76" class="st4" width="30.98" height="54.39"/>
			<rect x="1210.45" y="1552.76" class="st4" width="30.98" height="54.39"/>
			<rect x="1176.8" y="1499.78" class="st4" width="30.98" height="50.17"/>
			<rect x="1210.45" y="1499.78" class="st4" width="30.98" height="50.17"/>
		</g>
		<g>
			<rect x="1045.32" y="1494.69" class="st1" width="77.01" height="118.6"/>
			<rect x="1048.09" y="1494.69" class="st2" width="71.57" height="118.6"/>
			<rect x="1042.23" y="1610.15" class="st3" width="82.6" height="18.3"/>
			<rect x="1042.23" y="1487.14" class="st3" width="82.6" height="9.15"/>
			<rect x="1051.41" y="1552.12" class="st4" width="30.98" height="54.39"/>
			<rect x="1085.07" y="1552.12" class="st4" width="30.98" height="54.39"/>
			<rect x="1051.41" y="1499.14" class="st4" width="30.98" height="50.17"/>
			<rect x="1085.07" y="1499.14" class="st4" width="30.98" height="50.17"/>
		</g>
		<g>
			<rect x="919.93" y="1494.69" class="st1" width="77.01" height="118.6"/>
			<rect x="922.71" y="1494.69" class="st2" width="71.57" height="118.6"/>
			<rect x="916.85" y="1610.15" class="st3" width="82.6" height="18.3"/>
			<rect x="916.85" y="1487.14" class="st3" width="82.6" height="9.15"/>
			<rect x="926.03" y="1552.12" class="st4" width="30.98" height="54.39"/>
			<rect x="959.68" y="1552.12" class="st4" width="30.98" height="54.39"/>
			<rect x="926.03" y="1499.14" class="st4" width="30.98" height="50.17"/>
			<rect x="959.68" y="1499.14" class="st4" width="30.98" height="50.17"/>
		</g>
		<g>
			<rect x="1170.7" y="1707.6" class="st1" width="77.01" height="118.6"/>
			<rect x="1173.48" y="1707.6" class="st2" width="71.57" height="118.6"/>
			<rect x="1167.62" y="1823.06" class="st3" width="82.6" height="18.3"/>
			<rect x="1167.62" y="1700.05" class="st3" width="82.6" height="9.15"/>
			<rect x="1176.8" y="1765.03" class="st4" width="30.98" height="54.39"/>
			<rect x="1210.45" y="1765.03" class="st4" width="30.98" height="54.39"/>
			<rect x="1176.8" y="1712.06" class="st4" width="30.98" height="50.17"/>
			<rect x="1210.45" y="1712.06" class="st4" width="30.98" height="50.17"/>
		</g>
		<g>
			<rect x="1045.32" y="1707.6" class="st1" width="77.01" height="118.6"/>
			<rect x="1048.09" y="1707.6" class="st2" width="71.57" height="118.6"/>
			<rect x="1042.23" y="1823.06" class="st3" width="82.6" height="18.3"/>
			<rect x="1042.23" y="1700.05" class="st3" width="82.6" height="9.15"/>
			<rect x="1051.41" y="1765.03" class="st4" width="30.98" height="54.39"/>
			<rect x="1085.07" y="1765.03" class="st4" width="30.98" height="54.39"/>
			<rect x="1051.41" y="1712.06" class="st4" width="30.98" height="50.17"/>
			<rect x="1085.07" y="1712.06" class="st4" width="30.98" height="50.17"/>
		</g>
		<g>
			<rect x="919.93" y="1707.6" class="st1" width="77.01" height="118.6"/>
			<rect x="922.71" y="1707.6" class="st2" width="71.57" height="118.6"/>
			<rect x="916.85" y="1823.06" class="st3" width="82.6" height="18.3"/>
			<rect x="916.85" y="1700.05" class="st3" width="82.6" height="9.15"/>
			<rect x="926.03" y="1765.03" class="st4" width="30.98" height="54.39"/>
			<rect x="959.68" y="1765.03" class="st4" width="30.98" height="54.39"/>
			<rect x="926.03" y="1712.06" class="st4" width="30.98" height="50.17"/>
			<rect x="959.68" y="1712.06" class="st4" width="30.98" height="50.17"/>
		</g>
		<g>
			<rect x="1170.7" y="1920.52" class="st1" width="77.01" height="118.6"/>
			<rect x="1173.48" y="1920.52" class="st2" width="71.57" height="118.6"/>
			<rect x="1167.62" y="2035.98" class="st3" width="82.6" height="18.3"/>
			<rect x="1167.62" y="1912.96" class="st3" width="82.6" height="9.15"/>
			<rect x="1176.8" y="1977.94" class="st4" width="30.98" height="54.39"/>
			<rect x="1210.45" y="1977.94" class="st4" width="30.98" height="54.39"/>
			<rect x="1176.8" y="1924.97" class="st4" width="30.98" height="50.17"/>
			<rect x="1210.45" y="1924.97" class="st4" width="30.98" height="50.17"/>
		</g>
		<g>
			<rect x="1045.32" y="1920.52" class="st1" width="77.01" height="118.6"/>
			<rect x="1048.09" y="1920.52" class="st2" width="71.57" height="118.6"/>
			<rect x="1042.23" y="2035.98" class="st3" width="82.6" height="18.3"/>
			<rect x="1042.23" y="1912.96" class="st3" width="82.6" height="9.15"/>
			<rect x="1051.41" y="1977.94" class="st4" width="30.98" height="54.39"/>
			<rect x="1085.07" y="1977.94" class="st4" width="30.98" height="54.39"/>
			<rect x="1051.41" y="1924.97" class="st4" width="30.98" height="50.17"/>
			<rect x="1085.07" y="1924.97" class="st4" width="30.98" height="50.17"/>
		</g>
		<g>
			<rect x="919.93" y="1920.52" class="st1" width="77.01" height="118.6"/>
			<rect x="922.71" y="1920.52" class="st2" width="71.57" height="118.6"/>
			<rect x="916.85" y="2035.98" class="st3" width="82.6" height="18.3"/>
			<rect x="916.85" y="1912.96" class="st3" width="82.6" height="9.15"/>
			<rect x="926.03" y="1977.94" class="st4" width="30.98" height="54.39"/>
			<rect x="959.68" y="1977.94" class="st4" width="30.98" height="54.39"/>
			<rect x="926.03" y="1924.97" class="st4" width="30.98" height="50.17"/>
			<rect x="959.68" y="1924.97" class="st4" width="30.98" height="50.17"/>
		</g>
		<g>
			<rect x="1170.7" y="2133.43" class="st1" width="77.01" height="118.6"/>
			<rect x="1173.48" y="2133.43" class="st2" width="71.57" height="118.6"/>
			<rect x="1167.62" y="2248.89" class="st3" width="82.6" height="18.3"/>
			<rect x="1167.62" y="2125.88" class="st3" width="82.6" height="9.15"/>
			<rect x="1176.8" y="2190.85" class="st4" width="30.98" height="54.39"/>
			<rect x="1210.45" y="2190.85" class="st4" width="30.98" height="54.39"/>
			<rect x="1176.8" y="2137.88" class="st4" width="30.98" height="50.17"/>
			<rect x="1210.45" y="2137.88" class="st4" width="30.98" height="50.17"/>
		</g>
		<g>
			<rect x="1045.32" y="2133.43" class="st1" width="77.01" height="118.6"/>
			<rect x="1048.09" y="2133.43" class="st2" width="71.57" height="118.6"/>
			<rect x="1042.23" y="2248.89" class="st3" width="82.6" height="18.3"/>
			<rect x="1042.23" y="2125.88" class="st3" width="82.6" height="9.15"/>
			<rect x="1051.41" y="2190.85" class="st4" width="30.98" height="54.39"/>
			<rect x="1085.07" y="2190.85" class="st4" width="30.98" height="54.39"/>
			<rect x="1051.41" y="2137.88" class="st4" width="30.98" height="50.17"/>
			<rect x="1085.07" y="2137.88" class="st4" width="30.98" height="50.17"/>
		</g>
		<g>
			<rect x="919.93" y="2133.43" class="st1" width="77.01" height="118.6"/>
			<rect x="922.71" y="2133.43" class="st2" width="71.57" height="118.6"/>
			<rect x="916.85" y="2248.89" class="st3" width="82.6" height="18.3"/>
			<rect x="916.85" y="2125.88" class="st3" width="82.6" height="9.15"/>
			<rect x="926.03" y="2190.85" class="st4" width="30.98" height="54.39"/>
			<rect x="959.68" y="2190.85" class="st4" width="30.98" height="54.39"/>
			<rect x="926.03" y="2137.88" class="st4" width="30.98" height="50.17"/>
			<rect x="959.68" y="2137.88" class="st4" width="30.98" height="50.17"/>
		</g>
		<g>
			<rect x="1170.7" y="2351.43" class="st1" width="77.01" height="118.6"/>
			<rect x="1173.48" y="2351.43" class="st2" width="71.57" height="118.6"/>
			<rect x="1167.62" y="2466.89" class="st3" width="82.6" height="18.3"/>
			<rect x="1167.62" y="2343.88" class="st3" width="82.6" height="9.15"/>
			<rect x="1176.8" y="2408.85" class="st4" width="30.98" height="54.39"/>
			<rect x="1210.45" y="2408.85" class="st4" width="30.98" height="54.39"/>
			<rect x="1176.8" y="2355.88" class="st4" width="30.98" height="50.17"/>
			<rect x="1210.45" y="2355.88" class="st4" width="30.98" height="50.17"/>
		</g>
		<g>
			<rect x="1045.32" y="2351.43" class="st1" width="77.01" height="118.6"/>
			<rect x="1048.09" y="2351.43" class="st2" width="71.57" height="118.6"/>
			<rect x="1042.23" y="2466.89" class="st3" width="82.6" height="18.3"/>
			<rect x="1042.23" y="2343.88" class="st3" width="82.6" height="9.15"/>
			<rect x="1051.41" y="2408.85" class="st4" width="30.98" height="54.39"/>
			<rect x="1085.07" y="2408.85" class="st4" width="30.98" height="54.39"/>
			<rect x="1051.41" y="2355.88" class="st4" width="30.98" height="50.17"/>
			<rect x="1085.07" y="2355.88" class="st4" width="30.98" height="50.17"/>
		</g>
		<g>
			<rect x="919.93" y="2351.43" class="st1" width="77.01" height="118.6"/>
			<rect x="922.71" y="2351.43" class="st2" width="71.57" height="118.6"/>
			<rect x="916.85" y="2466.89" class="st3" width="82.6" height="18.3"/>
			<rect x="916.85" y="2343.88" class="st3" width="82.6" height="9.15"/>
			<rect x="926.03" y="2408.85" class="st4" width="30.98" height="54.39"/>
			<rect x="959.68" y="2408.85" class="st4" width="30.98" height="54.39"/>
			<rect x="926.03" y="2355.88" class="st4" width="30.98" height="50.17"/>
			<rect x="959.68" y="2355.88" class="st4" width="30.98" height="50.17"/>
		</g>
		<g>
			<rect x="1170.7" y="2569.6" class="st1" width="77.01" height="118.6"/>
			<rect x="1173.48" y="2569.6" class="st2" width="71.57" height="118.6"/>
			<rect x="1167.62" y="2685.06" class="st3" width="82.6" height="18.3"/>
			<rect x="1167.62" y="2562.05" class="st3" width="82.6" height="9.15"/>
			<rect x="1176.8" y="2627.02" class="st4" width="30.98" height="54.39"/>
			<rect x="1210.45" y="2627.02" class="st4" width="30.98" height="54.39"/>
			<rect x="1176.8" y="2574.05" class="st4" width="30.98" height="50.17"/>
			<rect x="1210.45" y="2574.05" class="st4" width="30.98" height="50.17"/>
		</g>
		<g>
			<rect x="1045.32" y="2569.6" class="st1" width="77.01" height="118.6"/>
			<rect x="1048.09" y="2569.6" class="st2" width="71.57" height="118.6"/>
			<rect x="1042.23" y="2685.06" class="st3" width="82.6" height="18.3"/>
			<rect x="1042.23" y="2562.05" class="st3" width="82.6" height="9.15"/>
			<rect x="1051.41" y="2627.02" class="st4" width="30.98" height="54.39"/>
			<rect x="1085.07" y="2627.02" class="st4" width="30.98" height="54.39"/>
			<rect x="1051.41" y="2574.05" class="st4" width="30.98" height="50.17"/>
			<rect x="1085.07" y="2574.05" class="st4" width="30.98" height="50.17"/>
		</g>
		<g>
			<rect x="919.93" y="2569.6" class="st1" width="77.01" height="118.6"/>
			<rect x="922.71" y="2569.6" class="st2" width="71.57" height="118.6"/>
			<rect x="916.85" y="2685.06" class="st3" width="82.6" height="18.3"/>
			<rect x="916.85" y="2562.05" class="st3" width="82.6" height="9.15"/>
			<rect x="926.03" y="2627.02" class="st4" width="30.98" height="54.39"/>
			<rect x="959.68" y="2627.02" class="st4" width="30.98" height="54.39"/>
			<rect x="926.03" y="2574.05" class="st4" width="30.98" height="50.17"/>
			<rect x="959.68" y="2574.05" class="st4" width="30.98" height="50.17"/>
		</g>
		<g>
			<rect x="1170.7" y="2787.39" class="st1" width="77.01" height="118.6"/>
			<rect x="1173.48" y="2787.39" class="st2" width="71.57" height="118.6"/>
			<rect x="1167.62" y="2902.85" class="st3" width="82.6" height="18.3"/>
			<rect x="1167.62" y="2779.84" class="st3" width="82.6" height="9.15"/>
			<rect x="1176.8" y="2844.82" class="st4" width="30.98" height="54.39"/>
			<rect x="1210.45" y="2844.82" class="st4" width="30.98" height="54.39"/>
			<rect x="1176.8" y="2791.84" class="st4" width="30.98" height="50.17"/>
			<rect x="1210.45" y="2791.84" class="st4" width="30.98" height="50.17"/>
		</g>
		<g>
			<rect x="1045.32" y="2787.39" class="st1" width="77.01" height="118.6"/>
			<rect x="1048.09" y="2787.39" class="st2" width="71.57" height="118.6"/>
			<rect x="1042.23" y="2902.85" class="st3" width="82.6" height="18.3"/>
			<rect x="1042.23" y="2779.84" class="st3" width="82.6" height="9.15"/>
			<rect x="1051.41" y="2844.82" class="st4" width="30.98" height="54.39"/>
			<rect x="1085.07" y="2844.82" class="st4" width="30.98" height="54.39"/>
			<rect x="1051.41" y="2791.84" class="st4" width="30.98" height="50.17"/>
			<rect x="1085.07" y="2791.84" class="st4" width="30.98" height="50.17"/>
		</g>
		<g>
			<rect x="919.93" y="2787.39" class="st1" width="77.01" height="118.6"/>
			<rect x="922.71" y="2787.39" class="st2" width="71.57" height="118.6"/>
			<rect x="916.85" y="2902.85" class="st3" width="82.6" height="18.3"/>
			<rect x="916.85" y="2779.84" class="st3" width="82.6" height="9.15"/>
			<rect x="926.03" y="2844.82" class="st4" width="30.98" height="54.39"/>
			<rect x="959.68" y="2844.82" class="st4" width="30.98" height="54.39"/>
			<rect x="926.03" y="2791.84" class="st4" width="30.98" height="50.17"/>
			<rect x="959.68" y="2791.84" class="st4" width="30.98" height="50.17"/>
		</g>
	</g>
	<rect x="866.4" y="1217.07" class="st2" width="433.07" height="20.55"/>
	<rect x="858.68" y="1224.92" class="st3" width="448.85" height="20.79"/>
	<rect x="883.47" y="1250.44" class="st1" width="403.02" height="3.95"/>
	<rect x="875.79" y="1212.95" class="st1" width="413.2" height="4.09"/>
	<g>
		
			<rect x="1242.45" y="1346.57" transform="matrix(6.123234e-17 -1 1 6.123234e-17 -8.6352 2686.1648)" class="st5" width="192.63" height="1.66"/>
		
			<rect x="1201.21" y="1346.57" transform="matrix(6.123234e-17 -1 1 6.123234e-17 -49.8775 2644.9226)" class="st5" width="192.63" height="1.66"/>
		<rect x="1295.92" y="1428.8" class="st5" width="44.53" height="7.53"/>
		<rect x="1295.92" y="1411.6" class="st5" width="44.53" height="7.53"/>
		<rect x="1295.92" y="1394.39" class="st5" width="44.53" height="7.53"/>
		<rect x="1295.92" y="1377.19" class="st5" width="44.53" height="7.53"/>
		<rect x="1295.92" y="1359.98" class="st5" width="44.53" height="7.53"/>
		<rect x="1295.92" y="1342.78" class="st5" width="44.53" height="7.53"/>
		<rect x="1295.92" y="1325.57" class="st5" width="44.53" height="7.53"/>
		<rect x="1295.92" y="1308.37" class="st5" width="44.53" height="7.53"/>
		<rect x="1295.92" y="1291.17" class="st5" width="44.53" height="7.53"/>
		<rect x="1295.92" y="1273.96" class="st5" width="44.53" height="7.53"/>
		<rect x="1290.02" y="1443.71" class="st6" width="63.57" height="3.22"/>
		<rect x="1290.13" y="1385.93" class="st6" width="66.81" height="1.68"/>
		
			<rect x="1270.98" y="1413.98" transform="matrix(6.123234e-17 -1 1 6.123234e-17 -114.9515 2714.6943)" class="st6" width="57.78" height="1.69"/>
		
			<rect x="1280.02" y="1413.98" transform="matrix(6.123234e-17 -1 1 6.123234e-17 -105.9081 2723.7378)" class="st6" width="57.78" height="1.69"/>
		
			<rect x="1289.07" y="1413.98" transform="matrix(6.123234e-17 -1 1 6.123234e-17 -96.8647 2732.781)" class="st6" width="57.78" height="1.69"/>
		
			<rect x="1298.11" y="1413.98" transform="matrix(6.123234e-17 -1 1 6.123234e-17 -87.8213 2741.8245)" class="st6" width="57.78" height="1.69"/>
		
			<rect x="1307.15" y="1413.98" transform="matrix(6.123234e-17 -1 1 6.123234e-17 -78.7779 2750.8679)" class="st6" width="57.78" height="1.69"/>
		
			<rect x="1316.2" y="1413.98" transform="matrix(6.123234e-17 -1 1 6.123234e-17 -69.7345 2759.9114)" class="st6" width="57.78" height="1.69"/>
		<rect x="1290.02" y="1250.19" class="st6" width="63.57" height="3.22"/>
		
			<rect x="1320.2" y="1413.54" transform="matrix(6.123234e-17 -1 1 6.123234e-17 -63.1717 2767.1313)" class="st6" width="63.57" height="3.22"/>
		
			<rect x="1338.47" y="1262.17" transform="matrix(6.123234e-17 -1 1 6.123234e-17 88.1978 2615.762)" class="st6" width="27.01" height="3.22"/>
	</g>
	<g>
		
			<rect x="1242.45" y="1558.84" transform="matrix(6.123234e-17 -1 1 6.123234e-17 -220.9065 2898.4363)" class="st5" width="192.63" height="1.66"/>
		
			<rect x="1201.21" y="1558.84" transform="matrix(6.123234e-17 -1 1 6.123234e-17 -262.1488 2857.1938)" class="st5" width="192.63" height="1.66"/>
		<rect x="1295.92" y="1641.07" class="st5" width="44.53" height="7.53"/>
		<rect x="1295.92" y="1623.87" class="st5" width="44.53" height="7.53"/>
		<rect x="1295.92" y="1606.66" class="st5" width="44.53" height="7.53"/>
		<rect x="1295.92" y="1589.46" class="st5" width="44.53" height="7.53"/>
		<rect x="1295.92" y="1572.25" class="st5" width="44.53" height="7.53"/>
		<rect x="1295.92" y="1555.05" class="st5" width="44.53" height="7.53"/>
		<rect x="1295.92" y="1537.85" class="st5" width="44.53" height="7.53"/>
		<rect x="1295.92" y="1520.64" class="st5" width="44.53" height="7.53"/>
		<rect x="1295.92" y="1503.44" class="st5" width="44.53" height="7.53"/>
		<rect x="1295.92" y="1486.23" class="st5" width="44.53" height="7.53"/>
		<rect x="1290.02" y="1655.99" class="st6" width="63.57" height="3.22"/>
		<rect x="1290.13" y="1598.2" class="st6" width="66.81" height="1.68"/>
		
			<rect x="1270.98" y="1626.25" transform="matrix(3.203566e-14 -1 1 3.203566e-14 -327.2228 2926.9656)" class="st6" width="57.78" height="1.69"/>
		
			<rect x="1280.02" y="1626.25" transform="matrix(6.123234e-17 -1 1 6.123234e-17 -318.1794 2936.009)" class="st6" width="57.78" height="1.69"/>
		
			<rect x="1289.07" y="1626.25" transform="matrix(6.123234e-17 -1 1 6.123234e-17 -309.136 2945.0525)" class="st6" width="57.78" height="1.69"/>
		
			<rect x="1298.11" y="1626.25" transform="matrix(6.123234e-17 -1 1 6.123234e-17 -300.0926 2954.0957)" class="st6" width="57.78" height="1.69"/>
		
			<rect x="1307.15" y="1626.25" transform="matrix(1.604844e-14 -1 1 1.604844e-14 -291.0492 2963.1392)" class="st6" width="57.78" height="1.69"/>
		
			<rect x="1316.2" y="1626.25" transform="matrix(6.123234e-17 -1 1 6.123234e-17 -282.0058 2972.1826)" class="st6" width="57.78" height="1.69"/>
		<rect x="1290.02" y="1462.46" class="st6" width="63.57" height="3.22"/>
		
			<rect x="1320.2" y="1625.81" transform="matrix(-2.836048e-14 -1 1 -2.836048e-14 -275.443 2979.4026)" class="st6" width="63.57" height="3.22"/>
		
			<rect x="1338.47" y="1474.44" transform="matrix(6.123234e-17 -1 1 6.123234e-17 -124.0735 2828.0334)" class="st6" width="27.01" height="3.22"/>
	</g>
	<g>
		
			<rect x="1242.45" y="1771.11" transform="matrix(6.123234e-17 -1 1 6.123234e-17 -433.1778 3110.7075)" class="st5" width="192.63" height="1.66"/>
		
			<rect x="1201.21" y="1771.11" transform="matrix(6.123234e-17 -1 1 6.123234e-17 -474.4201 3069.4651)" class="st5" width="192.63" height="1.66"/>
		<rect x="1295.92" y="1853.34" class="st5" width="44.53" height="7.53"/>
		<rect x="1295.92" y="1836.14" class="st5" width="44.53" height="7.53"/>
		<rect x="1295.92" y="1818.93" class="st5" width="44.53" height="7.53"/>
		<rect x="1295.92" y="1801.73" class="st5" width="44.53" height="7.53"/>
		<rect x="1295.92" y="1784.53" class="st5" width="44.53" height="7.53"/>
		<rect x="1295.92" y="1767.32" class="st5" width="44.53" height="7.53"/>
		<rect x="1295.92" y="1750.12" class="st5" width="44.53" height="7.53"/>
		<rect x="1295.92" y="1732.91" class="st5" width="44.53" height="7.53"/>
		<rect x="1295.92" y="1715.71" class="st5" width="44.53" height="7.53"/>
		<rect x="1295.92" y="1698.5" class="st5" width="44.53" height="7.53"/>
		<rect x="1290.02" y="1868.26" class="st6" width="63.57" height="3.22"/>
		<rect x="1290.13" y="1810.47" class="st6" width="66.81" height="1.68"/>
		
			<rect x="1270.98" y="1838.52" transform="matrix(-4.701222e-14 -1 1 -4.701222e-14 -539.4941 3139.2368)" class="st6" width="57.78" height="1.69"/>
		
			<rect x="1280.02" y="1838.52" transform="matrix(6.123234e-17 -1 1 6.123234e-17 -530.4507 3148.2803)" class="st6" width="57.78" height="1.69"/>
		
			<rect x="1289.07" y="1838.52" transform="matrix(6.123234e-17 -1 1 6.123234e-17 -521.4073 3157.3237)" class="st6" width="57.78" height="1.69"/>
		
			<rect x="1298.11" y="1838.52" transform="matrix(6.123234e-17 -1 1 6.123234e-17 -512.3639 3166.3672)" class="st6" width="57.78" height="1.69"/>
		
			<rect x="1307.15" y="1838.52" transform="matrix(-4.701222e-14 -1 1 -4.701222e-14 -503.3205 3175.4104)" class="st6" width="57.78" height="1.69"/>
		
			<rect x="1316.2" y="1838.52" transform="matrix(6.123234e-17 -1 1 6.123234e-17 -494.2771 3184.4539)" class="st6" width="57.78" height="1.69"/>
		<rect x="1290.02" y="1674.73" class="st6" width="63.57" height="3.22"/>
		
			<rect x="1320.2" y="1838.08" transform="matrix(6.123234e-17 -1 1 6.123234e-17 -487.7143 3191.6738)" class="st6" width="63.57" height="3.22"/>
		
			<rect x="1338.47" y="1686.71" transform="matrix(6.123234e-17 -1 1 6.123234e-17 -336.3448 3040.3047)" class="st6" width="27.01" height="3.22"/>
	</g>
	<g>
		
			<rect x="1242.45" y="1983.39" transform="matrix(6.123234e-17 -1 1 6.123234e-17 -645.449 3322.9788)" class="st5" width="192.63" height="1.66"/>
		
			<rect x="1201.21" y="1983.39" transform="matrix(6.123234e-17 -1 1 6.123234e-17 -686.6913 3281.7363)" class="st5" width="192.63" height="1.66"/>
		<rect x="1295.92" y="2065.61" class="st5" width="44.53" height="7.53"/>
		<rect x="1295.92" y="2048.41" class="st5" width="44.53" height="7.53"/>
		<rect x="1295.92" y="2031.21" class="st5" width="44.53" height="7.53"/>
		<rect x="1295.92" y="2014" class="st5" width="44.53" height="7.53"/>
		<rect x="1295.92" y="1996.8" class="st5" width="44.53" height="7.53"/>
		<rect x="1295.92" y="1979.59" class="st5" width="44.53" height="7.53"/>
		<rect x="1295.92" y="1962.39" class="st5" width="44.53" height="7.53"/>
		<rect x="1295.92" y="1945.18" class="st5" width="44.53" height="7.53"/>
		<rect x="1295.92" y="1927.98" class="st5" width="44.53" height="7.53"/>
		<rect x="1295.92" y="1910.77" class="st5" width="44.53" height="7.53"/>
		<rect x="1290.02" y="2080.53" class="st6" width="63.57" height="3.22"/>
		<rect x="1290.13" y="2022.75" class="st6" width="66.81" height="1.68"/>
		
			<rect x="1270.98" y="2050.79" transform="matrix(6.123234e-17 -1 1 6.123234e-17 -751.7653 3351.5081)" class="st6" width="57.78" height="1.69"/>
		
			<rect x="1280.02" y="2050.79" transform="matrix(6.123234e-17 -1 1 6.123234e-17 -742.7219 3360.5515)" class="st6" width="57.78" height="1.69"/>
		
			<rect x="1289.07" y="2050.79" transform="matrix(6.123234e-17 -1 1 6.123234e-17 -733.6785 3369.595)" class="st6" width="57.78" height="1.69"/>
		
			<rect x="1298.11" y="2050.79" transform="matrix(6.123234e-17 -1 1 6.123234e-17 -724.6351 3378.6384)" class="st6" width="57.78" height="1.69"/>
		
			<rect x="1307.15" y="2050.79" transform="matrix(6.123234e-17 -1 1 6.123234e-17 -715.5917 3387.6816)" class="st6" width="57.78" height="1.69"/>
		
			<rect x="1316.2" y="2050.79" transform="matrix(6.123234e-17 -1 1 6.123234e-17 -706.5483 3396.7251)" class="st6" width="57.78" height="1.69"/>
		<rect x="1290.02" y="1887" class="st6" width="63.57" height="3.22"/>
		
			<rect x="1320.2" y="2050.35" transform="matrix(2.848294e-14 -1 1 2.848294e-14 -699.9855 3403.9453)" class="st6" width="63.57" height="3.22"/>
		
			<rect x="1338.47" y="1898.99" transform="matrix(6.123234e-17 -1 1 6.123234e-17 -548.6161 3252.5759)" class="st6" width="27.01" height="3.22"/>
	</g>
	<g>
		
			<rect x="1242.45" y="2195.66" transform="matrix(6.123234e-17 -1 1 6.123234e-17 -857.7203 3535.25)" class="st5" width="192.63" height="1.66"/>
		
			<rect x="1201.21" y="2195.66" transform="matrix(6.123234e-17 -1 1 6.123234e-17 -898.9626 3494.0076)" class="st5" width="192.63" height="1.66"/>
		<rect x="1295.92" y="2277.89" class="st5" width="44.53" height="7.53"/>
		<rect x="1295.92" y="2260.68" class="st5" width="44.53" height="7.53"/>
		<rect x="1295.92" y="2243.48" class="st5" width="44.53" height="7.53"/>
		<rect x="1295.92" y="2226.27" class="st5" width="44.53" height="7.53"/>
		<rect x="1295.92" y="2209.07" class="st5" width="44.53" height="7.53"/>
		<rect x="1295.92" y="2191.86" class="st5" width="44.53" height="7.53"/>
		<rect x="1295.92" y="2174.66" class="st5" width="44.53" height="7.53"/>
		<rect x="1295.92" y="2157.45" class="st5" width="44.53" height="7.53"/>
		<rect x="1295.92" y="2140.25" class="st5" width="44.53" height="7.53"/>
		<rect x="1295.92" y="2123.05" class="st5" width="44.53" height="7.53"/>
		<rect x="1290.02" y="2292.8" class="st6" width="63.57" height="3.22"/>
		<rect x="1290.13" y="2235.02" class="st6" width="66.81" height="1.68"/>
		
			<rect x="1270.98" y="2263.06" transform="matrix(6.123234e-17 -1 1 6.123234e-17 -964.0366 3563.7795)" class="st6" width="57.78" height="1.69"/>
		
			<rect x="1280.02" y="2263.06" transform="matrix(6.123234e-17 -1 1 6.123234e-17 -954.9932 3572.8228)" class="st6" width="57.78" height="1.69"/>
		
			<rect x="1289.07" y="2263.06" transform="matrix(6.123234e-17 -1 1 6.123234e-17 -945.9498 3581.8662)" class="st6" width="57.78" height="1.69"/>
		
			<rect x="1298.11" y="2263.06" transform="matrix(6.123234e-17 -1 1 6.123234e-17 -936.9064 3590.9097)" class="st6" width="57.78" height="1.69"/>
		
			<rect x="1307.15" y="2263.06" transform="matrix(6.123234e-17 -1 1 6.123234e-17 -927.863 3599.9531)" class="st6" width="57.78" height="1.69"/>
		
			<rect x="1316.2" y="2263.06" transform="matrix(6.123234e-17 -1 1 6.123234e-17 -918.8196 3608.9963)" class="st6" width="57.78" height="1.69"/>
		<rect x="1290.02" y="2099.27" class="st6" width="63.57" height="3.22"/>
		
			<rect x="1320.2" y="2262.63" transform="matrix(6.123234e-17 -1 1 6.123234e-17 -912.2568 3616.2166)" class="st6" width="63.57" height="3.22"/>
		
			<rect x="1338.47" y="2111.26" transform="matrix(6.123234e-17 -1 1 6.123234e-17 -760.8874 3464.8472)" class="st6" width="27.01" height="3.22"/>
	</g>
	<g>
		
			<rect x="1242.45" y="2406.89" transform="matrix(6.123234e-17 -1 1 6.123234e-17 -1068.953 3746.4827)" class="st5" width="192.63" height="1.66"/>
		
			<rect x="1201.21" y="2406.89" transform="matrix(6.123234e-17 -1 1 6.123234e-17 -1110.1954 3705.2405)" class="st5" width="192.63" height="1.66"/>
		<rect x="1295.92" y="2489.12" class="st5" width="44.53" height="7.53"/>
		<rect x="1295.92" y="2471.91" class="st5" width="44.53" height="7.53"/>
		<rect x="1295.92" y="2454.71" class="st5" width="44.53" height="7.53"/>
		<rect x="1295.92" y="2437.5" class="st5" width="44.53" height="7.53"/>
		<rect x="1295.92" y="2420.3" class="st5" width="44.53" height="7.53"/>
		<rect x="1295.92" y="2403.1" class="st5" width="44.53" height="7.53"/>
		<rect x="1295.92" y="2385.89" class="st5" width="44.53" height="7.53"/>
		<rect x="1295.92" y="2368.69" class="st5" width="44.53" height="7.53"/>
		<rect x="1295.92" y="2351.48" class="st5" width="44.53" height="7.53"/>
		<rect x="1295.92" y="2334.28" class="st5" width="44.53" height="7.53"/>
		<rect x="1290.02" y="2504.03" class="st6" width="63.57" height="3.22"/>
		<rect x="1290.13" y="2446.25" class="st6" width="66.81" height="1.68"/>
		
			<rect x="1270.98" y="2474.29" transform="matrix(6.123234e-17 -1 1 6.123234e-17 -1175.2694 3775.0122)" class="st6" width="57.78" height="1.69"/>
		
			<rect x="1280.02" y="2474.29" transform="matrix(6.123234e-17 -1 1 6.123234e-17 -1166.226 3784.0557)" class="st6" width="57.78" height="1.69"/>
		
			<rect x="1289.07" y="2474.29" transform="matrix(6.123234e-17 -1 1 6.123234e-17 -1157.1826 3793.0989)" class="st6" width="57.78" height="1.69"/>
		
			<rect x="1298.11" y="2474.29" transform="matrix(6.123234e-17 -1 1 6.123234e-17 -1148.1392 3802.1423)" class="st6" width="57.78" height="1.69"/>
		
			<rect x="1307.15" y="2474.29" transform="matrix(6.123234e-17 -1 1 6.123234e-17 -1139.0958 3811.1858)" class="st6" width="57.78" height="1.69"/>
		
			<rect x="1316.2" y="2474.29" transform="matrix(6.123234e-17 -1 1 6.123234e-17 -1130.0524 3820.2292)" class="st6" width="57.78" height="1.69"/>
		<rect x="1290.02" y="2310.5" class="st6" width="63.57" height="3.22"/>
		
			<rect x="1320.2" y="2473.86" transform="matrix(6.123234e-17 -1 1 6.123234e-17 -1123.4896 3827.4492)" class="st6" width="63.57" height="3.22"/>
		
			<rect x="1338.47" y="2322.49" transform="matrix(6.123234e-17 -1 1 6.123234e-17 -972.1201 3676.0798)" class="st6" width="27.01" height="3.22"/>
	</g>
	<g>
		
			<rect x="1242.45" y="2619.25" transform="matrix(6.123234e-17 -1 1 6.123234e-17 -1281.3093 3958.8391)" class="st5" width="192.63" height="1.66"/>
		
			<rect x="1201.21" y="2619.25" transform="matrix(6.123234e-17 -1 1 6.123234e-17 -1322.5518 3917.5967)" class="st5" width="192.63" height="1.66"/>
		<rect x="1295.92" y="2701.47" class="st5" width="44.53" height="7.53"/>
		<rect x="1295.92" y="2684.27" class="st5" width="44.53" height="7.53"/>
		<rect x="1295.92" y="2667.07" class="st5" width="44.53" height="7.53"/>
		<rect x="1295.92" y="2649.86" class="st5" width="44.53" height="7.53"/>
		<rect x="1295.92" y="2632.66" class="st5" width="44.53" height="7.53"/>
		<rect x="1295.92" y="2615.45" class="st5" width="44.53" height="7.53"/>
		<rect x="1295.92" y="2598.25" class="st5" width="44.53" height="7.53"/>
		<rect x="1295.92" y="2581.04" class="st5" width="44.53" height="7.53"/>
		<rect x="1295.92" y="2563.84" class="st5" width="44.53" height="7.53"/>
		<rect x="1295.92" y="2546.64" class="st5" width="44.53" height="7.53"/>
		<rect x="1290.02" y="2716.39" class="st6" width="63.57" height="3.22"/>
		<rect x="1290.13" y="2658.61" class="st6" width="66.81" height="1.68"/>
		
			<rect x="1270.98" y="2686.65" transform="matrix(6.123234e-17 -1 1 6.123234e-17 -1387.6257 3987.3684)" class="st6" width="57.78" height="1.69"/>
		
			<rect x="1280.02" y="2686.65" transform="matrix(6.123234e-17 -1 1 6.123234e-17 -1378.5823 3996.4119)" class="st6" width="57.78" height="1.69"/>
		
			<rect x="1289.07" y="2686.65" transform="matrix(6.123234e-17 -1 1 6.123234e-17 -1369.5389 4005.4553)" class="st6" width="57.78" height="1.69"/>
		
			<rect x="1298.11" y="2686.65" transform="matrix(6.123234e-17 -1 1 6.123234e-17 -1360.4955 4014.4988)" class="st6" width="57.78" height="1.69"/>
		
			<rect x="1307.15" y="2686.65" transform="matrix(6.123234e-17 -1 1 6.123234e-17 -1351.4521 4023.542)" class="st6" width="57.78" height="1.69"/>
		
			<rect x="1316.2" y="2686.65" transform="matrix(6.123234e-17 -1 1 6.123234e-17 -1342.4087 4032.5854)" class="st6" width="57.78" height="1.69"/>
		<rect x="1290.02" y="2522.86" class="st6" width="63.57" height="3.22"/>
		
			<rect x="1320.2" y="2686.22" transform="matrix(6.123234e-17 -1 1 6.123234e-17 -1335.8458 4039.8057)" class="st6" width="63.57" height="3.22"/>
		
			<rect x="1338.47" y="2534.85" transform="matrix(6.123234e-17 -1 1 6.123234e-17 -1184.4764 3888.4363)" class="st6" width="27.01" height="3.22"/>
	</g>
	<g>
		
			<rect x="1242.45" y="2831.42" transform="matrix(6.123234e-17 -1 1 6.123234e-17 -1493.48 4171.0098)" class="st5" width="192.63" height="1.66"/>
		
			<rect x="1201.21" y="2831.42" transform="matrix(6.123234e-17 -1 1 6.123234e-17 -1534.7224 4129.7676)" class="st5" width="192.63" height="1.66"/>
		<rect x="1295.92" y="2913.65" class="st5" width="44.53" height="7.53"/>
		<rect x="1295.92" y="2896.44" class="st5" width="44.53" height="7.53"/>
		<rect x="1295.92" y="2879.24" class="st5" width="44.53" height="7.53"/>
		<rect x="1295.92" y="2862.03" class="st5" width="44.53" height="7.53"/>
		<rect x="1295.92" y="2844.83" class="st5" width="44.53" height="7.53"/>
		<rect x="1295.92" y="2827.62" class="st5" width="44.53" height="7.53"/>
		<rect x="1295.92" y="2810.42" class="st5" width="44.53" height="7.53"/>
		<rect x="1295.92" y="2793.21" class="st5" width="44.53" height="7.53"/>
		<rect x="1295.92" y="2776.01" class="st5" width="44.53" height="7.53"/>
		<rect x="1295.92" y="2758.81" class="st5" width="44.53" height="7.53"/>
		<rect x="1290.02" y="2928.56" class="st6" width="63.57" height="3.22"/>
		<rect x="1290.13" y="2870.78" class="st6" width="66.81" height="1.68"/>
		
			<rect x="1270.98" y="2898.82" transform="matrix(6.123234e-17 -1 1 6.123234e-17 -1599.7964 4199.5391)" class="st6" width="57.78" height="1.69"/>
		
			<rect x="1280.02" y="2898.82" transform="matrix(6.123234e-17 -1 1 6.123234e-17 -1590.7529 4208.5825)" class="st6" width="57.78" height="1.69"/>
		
			<rect x="1289.07" y="2898.82" transform="matrix(6.123234e-17 -1 1 6.123234e-17 -1581.7096 4217.626)" class="st6" width="57.78" height="1.69"/>
		
			<rect x="1298.11" y="2898.82" transform="matrix(6.123234e-17 -1 1 6.123234e-17 -1572.6661 4226.6694)" class="st6" width="57.78" height="1.69"/>
		
			<rect x="1307.15" y="2898.82" transform="matrix(6.123234e-17 -1 1 6.123234e-17 -1563.6228 4235.7129)" class="st6" width="57.78" height="1.69"/>
		
			<rect x="1316.2" y="2898.82" transform="matrix(6.123234e-17 -1 1 6.123234e-17 -1554.5793 4244.7563)" class="st6" width="57.78" height="1.69"/>
		<rect x="1290.02" y="2735.03" class="st6" width="63.57" height="3.22"/>
		
			<rect x="1320.2" y="2898.39" transform="matrix(6.123234e-17 -1 1 6.123234e-17 -1548.0166 4251.9761)" class="st6" width="63.57" height="3.22"/>
		
			<rect x="1338.47" y="2747.02" transform="matrix(6.123234e-17 -1 1 6.123234e-17 -1396.6471 4100.6069)" class="st6" width="27.01" height="3.22"/>
	</g>
</g>
<g>
	<rect x="1547.47" y="1283.26" class="st7" width="412.09" height="1732.79"/>
	<g>
		<g>
			<rect x="1840.12" y="1320.27" class="st1" width="77.01" height="118.6"/>
			<rect x="1842.9" y="1320.27" class="st2" width="71.57" height="118.6"/>
			<rect x="1837.04" y="1435.73" class="st8" width="82.6" height="18.3"/>
			<rect x="1959.45" y="1435.73" class="st8" width="6.61" height="18.3"/>
			<rect x="1959.45" y="1648.64" class="st8" width="6.61" height="18.3"/>
			<rect x="1959.45" y="1860.91" class="st8" width="6.61" height="18.3"/>
			<rect x="1959.45" y="2073.18" class="st8" width="6.61" height="18.3"/>
			<rect x="1959.45" y="2285.45" class="st8" width="6.61" height="18.3"/>
			<rect x="1837.04" y="1312.72" class="st8" width="82.6" height="9.15"/>
			<rect x="1846.22" y="1377.69" class="st4" width="30.98" height="54.39"/>
			<rect x="1879.87" y="1377.69" class="st4" width="30.98" height="54.39"/>
			<rect x="1846.22" y="1324.72" class="st4" width="30.98" height="50.17"/>
			<rect x="1879.87" y="1324.72" class="st4" width="30.98" height="50.17"/>
		</g>
		<g>
			<rect x="1714.74" y="1320.27" class="st1" width="77.01" height="118.6"/>
			<rect x="1717.52" y="1320.27" class="st2" width="71.57" height="118.6"/>
			<rect x="1711.66" y="1435.73" class="st8" width="82.6" height="18.3"/>
			<rect x="1711.66" y="1312.72" class="st8" width="82.6" height="9.15"/>
			<rect x="1720.84" y="1377.69" class="st4" width="30.98" height="54.39"/>
			<rect x="1754.49" y="1377.69" class="st4" width="30.98" height="54.39"/>
			<rect x="1720.84" y="1324.72" class="st4" width="30.98" height="50.17"/>
			<rect x="1754.49" y="1324.72" class="st4" width="30.98" height="50.17"/>
		</g>
		<g>
			<rect x="1589.35" y="1320.27" class="st1" width="77.01" height="118.6"/>
			<rect x="1592.13" y="1320.27" class="st2" width="71.57" height="118.6"/>
			<rect x="1586.27" y="1435.73" class="st8" width="82.6" height="18.3"/>
			<rect x="1586.27" y="1312.72" class="st8" width="82.6" height="9.15"/>
			<rect x="1595.45" y="1377.69" class="st4" width="30.98" height="54.39"/>
			<rect x="1629.11" y="1377.69" class="st4" width="30.98" height="54.39"/>
			<rect x="1595.45" y="1324.72" class="st4" width="30.98" height="50.17"/>
			<rect x="1629.11" y="1324.72" class="st4" width="30.98" height="50.17"/>
		</g>
		<g>
			<rect x="1840.12" y="1533.18" class="st1" width="77.01" height="118.6"/>
			<rect x="1842.9" y="1533.18" class="st2" width="71.57" height="118.6"/>
			<rect x="1837.04" y="1648.64" class="st8" width="82.6" height="18.3"/>
			<rect x="1837.04" y="1525.63" class="st8" width="82.6" height="9.15"/>
			<rect x="1846.22" y="1590.61" class="st4" width="30.98" height="54.39"/>
			<rect x="1879.87" y="1590.61" class="st4" width="30.98" height="54.39"/>
			<rect x="1846.22" y="1537.63" class="st4" width="30.98" height="50.17"/>
			<rect x="1879.87" y="1537.63" class="st4" width="30.98" height="50.17"/>
		</g>
		<g>
			<rect x="1714.74" y="1532.54" class="st1" width="77.01" height="118.6"/>
			<rect x="1717.52" y="1532.54" class="st2" width="71.57" height="118.6"/>
			<rect x="1711.66" y="1648" class="st8" width="82.6" height="18.3"/>
			<rect x="1711.66" y="1524.99" class="st8" width="82.6" height="9.15"/>
			<rect x="1720.84" y="1589.96" class="st4" width="30.98" height="54.39"/>
			<rect x="1754.49" y="1589.96" class="st4" width="30.98" height="54.39"/>
			<rect x="1720.84" y="1536.99" class="st4" width="30.98" height="50.17"/>
			<rect x="1754.49" y="1536.99" class="st4" width="30.98" height="50.17"/>
		</g>
		<g>
			<rect x="1589.35" y="1532.54" class="st1" width="77.01" height="118.6"/>
			<rect x="1592.13" y="1532.54" class="st2" width="71.57" height="118.6"/>
			<rect x="1586.27" y="1648" class="st8" width="82.6" height="18.3"/>
			<rect x="1586.27" y="1524.99" class="st8" width="82.6" height="9.15"/>
			<rect x="1595.45" y="1589.96" class="st4" width="30.98" height="54.39"/>
			<rect x="1629.11" y="1589.96" class="st4" width="30.98" height="54.39"/>
			<rect x="1595.45" y="1536.99" class="st4" width="30.98" height="50.17"/>
			<rect x="1629.11" y="1536.99" class="st4" width="30.98" height="50.17"/>
		</g>
		<g>
			<rect x="1840.12" y="1745.45" class="st1" width="77.01" height="118.6"/>
			<rect x="1842.9" y="1745.45" class="st2" width="71.57" height="118.6"/>
			<rect x="1837.04" y="1860.91" class="st8" width="82.6" height="18.3"/>
			<rect x="1837.04" y="1737.9" class="st8" width="82.6" height="9.15"/>
			<rect x="1846.22" y="1802.88" class="st4" width="30.98" height="54.39"/>
			<rect x="1879.87" y="1802.88" class="st4" width="30.98" height="54.39"/>
			<rect x="1846.22" y="1749.9" class="st4" width="30.98" height="50.17"/>
			<rect x="1879.87" y="1749.9" class="st4" width="30.98" height="50.17"/>
		</g>
		<g>
			<rect x="1714.74" y="1745.45" class="st1" width="77.01" height="118.6"/>
			<rect x="1717.52" y="1745.45" class="st2" width="71.57" height="118.6"/>
			<rect x="1711.66" y="1860.91" class="st8" width="82.6" height="18.3"/>
			<rect x="1711.66" y="1737.9" class="st8" width="82.6" height="9.15"/>
			<rect x="1720.84" y="1802.88" class="st4" width="30.98" height="54.39"/>
			<rect x="1754.49" y="1802.88" class="st4" width="30.98" height="54.39"/>
			<rect x="1720.84" y="1749.9" class="st4" width="30.98" height="50.17"/>
			<rect x="1754.49" y="1749.9" class="st4" width="30.98" height="50.17"/>
		</g>
		<g>
			<rect x="1589.35" y="1745.45" class="st1" width="77.01" height="118.6"/>
			<rect x="1592.13" y="1745.45" class="st2" width="71.57" height="118.6"/>
			<rect x="1586.27" y="1860.91" class="st8" width="82.6" height="18.3"/>
			<rect x="1586.27" y="1737.9" class="st8" width="82.6" height="9.15"/>
			<rect x="1595.45" y="1802.88" class="st4" width="30.98" height="54.39"/>
			<rect x="1629.11" y="1802.88" class="st4" width="30.98" height="54.39"/>
			<rect x="1595.45" y="1749.9" class="st4" width="30.98" height="50.17"/>
			<rect x="1629.11" y="1749.9" class="st4" width="30.98" height="50.17"/>
		</g>
		<g>
			<rect x="1840.12" y="1958.36" class="st1" width="77.01" height="118.6"/>
			<rect x="1842.9" y="1958.36" class="st2" width="71.57" height="118.6"/>
			<rect x="1837.04" y="2073.82" class="st8" width="82.6" height="18.3"/>
			<rect x="1837.04" y="1950.81" class="st8" width="82.6" height="9.15"/>
			<rect x="1846.22" y="2015.79" class="st4" width="30.98" height="54.39"/>
			<rect x="1879.87" y="2015.79" class="st4" width="30.98" height="54.39"/>
			<rect x="1846.22" y="1962.82" class="st4" width="30.98" height="50.17"/>
			<rect x="1879.87" y="1962.82" class="st4" width="30.98" height="50.17"/>
		</g>
		<g>
			<rect x="1714.74" y="1958.36" class="st1" width="77.01" height="118.6"/>
			<rect x="1717.52" y="1958.36" class="st2" width="71.57" height="118.6"/>
			<rect x="1711.66" y="2073.82" class="st8" width="82.6" height="18.3"/>
			<rect x="1711.66" y="1950.81" class="st8" width="82.6" height="9.15"/>
			<rect x="1720.84" y="2015.79" class="st4" width="30.98" height="54.39"/>
			<rect x="1754.49" y="2015.79" class="st4" width="30.98" height="54.39"/>
			<rect x="1720.84" y="1962.82" class="st4" width="30.98" height="50.17"/>
			<rect x="1754.49" y="1962.82" class="st4" width="30.98" height="50.17"/>
		</g>
		<g>
			<rect x="1589.35" y="1958.36" class="st1" width="77.01" height="118.6"/>
			<rect x="1592.13" y="1958.36" class="st2" width="71.57" height="118.6"/>
			<rect x="1586.27" y="2073.82" class="st8" width="82.6" height="18.3"/>
			<rect x="1586.27" y="1950.81" class="st8" width="82.6" height="9.15"/>
			<rect x="1595.45" y="2015.79" class="st4" width="30.98" height="54.39"/>
			<rect x="1629.11" y="2015.79" class="st4" width="30.98" height="54.39"/>
			<rect x="1595.45" y="1962.82" class="st4" width="30.98" height="50.17"/>
			<rect x="1629.11" y="1962.82" class="st4" width="30.98" height="50.17"/>
		</g>
		<g>
			<rect x="1840.12" y="2171.28" class="st1" width="77.01" height="118.6"/>
			<rect x="1842.9" y="2171.28" class="st2" width="71.57" height="118.6"/>
			<rect x="1837.04" y="2286.74" class="st8" width="82.6" height="18.3"/>
			<rect x="1837.04" y="2163.72" class="st8" width="82.6" height="9.15"/>
			<rect x="1846.22" y="2228.7" class="st4" width="30.98" height="54.39"/>
			<rect x="1879.87" y="2228.7" class="st4" width="30.98" height="54.39"/>
			<rect x="1846.22" y="2175.73" class="st4" width="30.98" height="50.17"/>
			<rect x="1879.87" y="2175.73" class="st4" width="30.98" height="50.17"/>
		</g>
		<g>
			<rect x="1714.74" y="2171.28" class="st1" width="77.01" height="118.6"/>
			<rect x="1717.52" y="2171.28" class="st2" width="71.57" height="118.6"/>
			<rect x="1711.66" y="2286.74" class="st8" width="82.6" height="18.3"/>
			<rect x="1711.66" y="2163.72" class="st8" width="82.6" height="9.15"/>
			<rect x="1720.84" y="2228.7" class="st4" width="30.98" height="54.39"/>
			<rect x="1754.49" y="2228.7" class="st4" width="30.98" height="54.39"/>
			<rect x="1720.84" y="2175.73" class="st4" width="30.98" height="50.17"/>
			<rect x="1754.49" y="2175.73" class="st4" width="30.98" height="50.17"/>
		</g>
		<g>
			<rect x="1589.35" y="2171.28" class="st1" width="77.01" height="118.6"/>
			<rect x="1592.13" y="2171.28" class="st2" width="71.57" height="118.6"/>
			<rect x="1586.27" y="2286.74" class="st8" width="82.6" height="18.3"/>
			<rect x="1586.27" y="2163.72" class="st8" width="82.6" height="9.15"/>
			<rect x="1595.45" y="2228.7" class="st4" width="30.98" height="54.39"/>
			<rect x="1629.11" y="2228.7" class="st4" width="30.98" height="54.39"/>
			<rect x="1595.45" y="2175.73" class="st4" width="30.98" height="50.17"/>
			<rect x="1629.11" y="2175.73" class="st4" width="30.98" height="50.17"/>
		</g>
		<g>
			<rect x="1840.12" y="2389.28" class="st1" width="77.01" height="118.6"/>
			<rect x="1842.9" y="2389.28" class="st2" width="71.57" height="118.6"/>
			<rect x="1837.04" y="2504.74" class="st8" width="82.6" height="18.3"/>
			<rect x="1837.04" y="2381.73" class="st8" width="82.6" height="9.15"/>
			<rect x="1846.22" y="2446.7" class="st4" width="30.98" height="54.39"/>
			<rect x="1879.87" y="2446.7" class="st4" width="30.98" height="54.39"/>
			<rect x="1846.22" y="2393.73" class="st4" width="30.98" height="50.17"/>
			<rect x="1879.87" y="2393.73" class="st4" width="30.98" height="50.17"/>
		</g>
		<g>
			<rect x="1714.74" y="2389.28" class="st1" width="77.01" height="118.6"/>
			<rect x="1717.52" y="2389.28" class="st2" width="71.57" height="118.6"/>
			<rect x="1711.66" y="2504.74" class="st8" width="82.6" height="18.3"/>
			<rect x="1711.66" y="2381.73" class="st8" width="82.6" height="9.15"/>
			<rect x="1720.84" y="2446.7" class="st4" width="30.98" height="54.39"/>
			<rect x="1754.49" y="2446.7" class="st4" width="30.98" height="54.39"/>
			<rect x="1720.84" y="2393.73" class="st4" width="30.98" height="50.17"/>
			<rect x="1754.49" y="2393.73" class="st4" width="30.98" height="50.17"/>
		</g>
		<g>
			<rect x="1589.35" y="2389.28" class="st1" width="77.01" height="118.6"/>
			<rect x="1592.13" y="2389.28" class="st2" width="71.57" height="118.6"/>
			<rect x="1586.27" y="2504.74" class="st8" width="82.6" height="18.3"/>
			<rect x="1586.27" y="2381.73" class="st8" width="82.6" height="9.15"/>
			<rect x="1595.45" y="2446.7" class="st4" width="30.98" height="54.39"/>
			<rect x="1629.11" y="2446.7" class="st4" width="30.98" height="54.39"/>
			<rect x="1595.45" y="2393.73" class="st4" width="30.98" height="50.17"/>
			<rect x="1629.11" y="2393.73" class="st4" width="30.98" height="50.17"/>
		</g>
		<g>
			<rect x="1840.12" y="2607.45" class="st1" width="77.01" height="118.6"/>
			<rect x="1842.9" y="2607.45" class="st2" width="71.57" height="118.6"/>
			<rect x="1837.04" y="2722.91" class="st8" width="82.6" height="18.3"/>
			<rect x="1837.04" y="2599.9" class="st8" width="82.6" height="9.15"/>
			<rect x="1846.22" y="2664.87" class="st4" width="30.98" height="54.39"/>
			<rect x="1879.87" y="2664.87" class="st4" width="30.98" height="54.39"/>
			<rect x="1846.22" y="2611.9" class="st4" width="30.98" height="50.17"/>
			<rect x="1879.87" y="2611.9" class="st4" width="30.98" height="50.17"/>
		</g>
		<g>
			<rect x="1714.74" y="2607.45" class="st1" width="77.01" height="118.6"/>
			<rect x="1717.52" y="2607.45" class="st2" width="71.57" height="118.6"/>
			<rect x="1711.66" y="2722.91" class="st8" width="82.6" height="18.3"/>
			<rect x="1711.66" y="2599.9" class="st8" width="82.6" height="9.15"/>
			<rect x="1720.84" y="2664.87" class="st4" width="30.98" height="54.39"/>
			<rect x="1754.49" y="2664.87" class="st4" width="30.98" height="54.39"/>
			<rect x="1720.84" y="2611.9" class="st4" width="30.98" height="50.17"/>
			<rect x="1754.49" y="2611.9" class="st4" width="30.98" height="50.17"/>
		</g>
		<g>
			<rect x="1589.35" y="2607.45" class="st1" width="77.01" height="118.6"/>
			<rect x="1592.13" y="2607.45" class="st2" width="71.57" height="118.6"/>
			<rect x="1586.27" y="2722.91" class="st8" width="82.6" height="18.3"/>
			<rect x="1586.27" y="2599.9" class="st8" width="82.6" height="9.15"/>
			<rect x="1595.45" y="2664.87" class="st4" width="30.98" height="54.39"/>
			<rect x="1629.11" y="2664.87" class="st4" width="30.98" height="54.39"/>
			<rect x="1595.45" y="2611.9" class="st4" width="30.98" height="50.17"/>
			<rect x="1629.11" y="2611.9" class="st4" width="30.98" height="50.17"/>
		</g>
		<g>
			<rect x="1840.12" y="2826.02" class="st1" width="77.01" height="118.6"/>
			<rect x="1842.9" y="2826.02" class="st2" width="71.57" height="118.6"/>
			<rect x="1837.04" y="2941.48" class="st8" width="82.6" height="18.3"/>
			<rect x="1837.04" y="2818.47" class="st8" width="82.6" height="9.15"/>
			<rect x="1846.22" y="2883.44" class="st4" width="30.98" height="54.39"/>
			<rect x="1879.87" y="2883.44" class="st4" width="30.98" height="54.39"/>
			<rect x="1846.22" y="2830.47" class="st4" width="30.98" height="50.17"/>
			<rect x="1879.87" y="2830.47" class="st4" width="30.98" height="50.17"/>
		</g>
		<g>
			<rect x="1714.74" y="2826.02" class="st1" width="77.01" height="118.6"/>
			<rect x="1717.52" y="2826.02" class="st2" width="71.57" height="118.6"/>
			<rect x="1711.66" y="2941.48" class="st8" width="82.6" height="18.3"/>
			<rect x="1711.66" y="2818.47" class="st8" width="82.6" height="9.15"/>
			<rect x="1720.84" y="2883.44" class="st4" width="30.98" height="54.39"/>
			<rect x="1754.49" y="2883.44" class="st4" width="30.98" height="54.39"/>
			<rect x="1720.84" y="2830.47" class="st4" width="30.98" height="50.17"/>
			<rect x="1754.49" y="2830.47" class="st4" width="30.98" height="50.17"/>
		</g>
		<g>
			<rect x="1589.35" y="2826.02" class="st1" width="77.01" height="118.6"/>
			<rect x="1592.13" y="2826.02" class="st2" width="71.57" height="118.6"/>
			<rect x="1586.27" y="2941.48" class="st8" width="82.6" height="18.3"/>
			<rect x="1586.27" y="2818.47" class="st8" width="82.6" height="9.15"/>
			<rect x="1595.45" y="2883.44" class="st4" width="30.98" height="54.39"/>
			<rect x="1629.11" y="2883.44" class="st4" width="30.98" height="54.39"/>
			<rect x="1595.45" y="2830.47" class="st4" width="30.98" height="50.17"/>
			<rect x="1629.11" y="2830.47" class="st4" width="30.98" height="50.17"/>
		</g>
	</g>
	<rect x="1535.82" y="1254.91" class="st2" width="433.07" height="20.55"/>
	<rect x="1528.1" y="1262.77" class="st8" width="448.85" height="20.79"/>
	<rect x="1552.9" y="1288.29" class="st1" width="403.02" height="3.95"/>
	<rect x="1545.22" y="1250.8" class="st1" width="413.2" height="4.09"/>
</g>
<g>
	<path class="st9" d="M1354.15,2109.84c65.4,3.52,131.51-1.86,193.67-15.75c1.21-0.27,0.69-1.55-0.53-1.28
		c-62.01,13.85-127.9,19.21-193.14,15.7C1352.86,2108.45,1352.87,2109.77,1354.15,2109.84L1354.15,2109.84z"/>
	<path class="st9" d="M1352.89,2057.11c60.01,21.14,131.93,25.78,196.98,12.68c1.23-0.25,0.7-1.52-0.53-1.28
		c-64.54,13-135.88,8.43-195.44-12.55C1352.76,2055.57,1351.75,2056.71,1352.89,2057.11L1352.89,2057.11z"/>
	<path class="st9" d="M1352.67,2333.37c64.07,12.75,132.2,15.72,198.33,8.67c1.27-0.14,0.73-1.38-0.53-1.25
		c-65.77,7.01-133.56,4.02-197.27-8.67C1351.97,2331.87,1351.44,2333.12,1352.67,2333.37L1352.67,2333.37z"/>
	<path class="st9" d="M1353.15,1479.42c62.56,13.44,130.61,17.52,196.71,11.87c1.26-0.11,0.72-1.2-0.53-1.09
		c-65.74,5.62-133.45,1.48-195.66-11.87C1352.48,1478.07,1351.96,1479.16,1353.15,1479.42L1353.15,1479.42z"/>
	<path class="st9" d="M1504.21,1517.87c-4.63,2.21-9.45,0.65-12.42-0.28c-1.42-0.44-2.81-0.36-2.81-0.36l-0.25-12.54
		c0,0,1.12-0.34,1.83-2.95c0.53-1.98-0.8-4.61-1.48-5.76c0.73-0.27,1.51-0.4,2.33-0.37c0,0,1.31,1.81,4.44,1.51
		c3.14-0.3,3.27-1.71,3.27-1.71c0.8-0.04,1.55,0.02,2.26,0.19c-0.39,1.25-0.21,6.06,0.64,6.98c0.92,0.98,0.92,0.98,0.92,0.98
		L1504.21,1517.87z"/>
	
		<rect x="1499.98" y="1492.86" transform="matrix(1 -6.817816e-03 6.817816e-03 1 -10.1545 10.2647)" class="st10" width="0.99" height="3.32"/>
	
		<rect x="1434.55" y="1489.58" transform="matrix(1 -6.817816e-03 6.817816e-03 1 -10.1336 9.8185)" class="st10" width="0.99" height="3.32"/>
	
		<rect x="1489.56" y="1492.93" transform="matrix(1 -6.817816e-03 6.817816e-03 1 -10.1552 10.1937)" class="st10" width="0.99" height="3.32"/>
	
		<rect x="1368.96" y="1480.11" transform="matrix(0.993 0.118 -0.118 0.993 184.4026 -151.2331)" class="st10" width="0.99" height="3.32"/>
	
		<rect x="1436.87" y="1489.56" transform="matrix(1 -6.817816e-03 6.817816e-03 1 -10.1335 9.8343)" class="st10" width="0.99" height="3.32"/>
	<path class="st9" d="M1368.11,1483.9l0.66-0.54c0,0,1.08-0.39,1.51,0.54s-0.21,7.79,0,9.45c0.16,1.28,0.71,3.08,0.95,3.85
		c0.07,0.21-0.05,0.42-0.25,0.49c-0.35,0.12-0.87,0.32-1.26,0.51c-0.14,0.07-0.3-0.01-0.34-0.16c-0.27-1.12-1.33-4.94-3.36-4.43
		c-2.38,0.6-1.96,0.47-1.96,0.47s-0.94-1.53,0-2.64C1364.06,1491.44,1368.28,1489.82,1368.11,1483.9z"/>
	<path class="st9" d="M1509.83,1494.26c0,0,12.99,1.86,16.78,1.09c3.79-0.77,5.27-2.76,8.74-2.44l1.09,27.07
		c0,0-6.88,0.71-8.55,2.12c-1.67,1.41-12.47,1.54-17.17-0.51C1510.73,1521.59,1511.69,1498.96,1509.83,1494.26z"/>
	
		<rect x="1532.42" y="1490.74" transform="matrix(0.9879 -0.1549 0.1549 0.9879 -212.6336 255.408)" class="st10" width="0.99" height="3.32"/>
	
		<rect x="1511.4" y="1491.62" transform="matrix(1 -6.817816e-03 6.817816e-03 1 -10.1458 10.3425)" class="st10" width="0.99" height="3.32"/>
	<path class="st9" d="M1372.47,2134.01c-4.74,1.96-9.47,0.14-12.39-0.95c-1.39-0.52-2.79-0.51-2.79-0.51l0.43-12.54
		c0,0,1.14-0.28,1.99-2.85c0.64-1.95-0.55-4.65-1.17-5.83c0.74-0.23,1.53-0.32,2.35-0.24c0,0,1.21,1.88,4.35,1.75
		c3.15-0.13,3.36-1.53,3.36-1.53c0.8,0,1.55,0.1,2.25,0.31c-0.46,1.23-0.54,6.04,0.26,7c0.87,1.03,0.87,1.03,0.87,1.03
		L1372.47,2134.01z"/>
	
		<rect x="1369.51" y="2108.83" transform="matrix(0.9989 0.0474 -0.0474 0.9989 101.6361 -62.6003)" class="st10" width="0.99" height="3.32"/>
	
		<rect x="1511.7" y="2073.16" transform="matrix(0.99 -0.141 0.141 0.99 -277.4359 233.9411)" class="st10" width="0.99" height="3.32"/>
	
		<rect x="1359.11" y="2108.34" transform="matrix(0.9989 0.0474 -0.0474 0.9989 101.6009 -62.1075)" class="st10" width="0.99" height="3.32"/>
	<path class="st9" d="M1379.36,2110.74c0,0,12.87,2.57,16.7,2c3.83-0.56,5.41-2.47,8.86-1.97l-0.38,27.09c0,0-6.91,0.33-8.65,1.65
		c-1.75,1.32-12.54,0.86-17.11-1.44C1378.78,2138.07,1380.97,2115.53,1379.36,2110.74z"/>
	
		<rect x="1402.01" y="2108.47" transform="matrix(0.9949 -0.1011 0.1011 0.9949 -206.0704 152.5414)" class="st10" width="0.99" height="3.32"/>
	
		<rect x="1380.98" y="2108.21" transform="matrix(0.9989 0.0474 -0.0474 0.9989 101.6195 -63.1449)" class="st10" width="0.99" height="3.32"/>
	
		<rect x="1459.37" y="2074.47" transform="matrix(0.9989 0.0474 -0.0474 0.9989 100.1075 -66.9008)" class="st10" width="0.99" height="3.32"/>
	
		<rect x="1457.26" y="2074.47" transform="matrix(0.9989 0.0474 -0.0474 0.9989 100.1052 -66.8007)" class="st10" width="0.99" height="3.32"/>
	<path class="st9" d="M1454.08,2346.52c0,0,19.76,0.14,21.18,0c1.42-0.14,4.13-0.69,5.01,0.06s2.69,1.02,2.69,1.02l0.09,3.05
		c0.01,0.34,0.24,0.64,0.57,0.73l0.66-0.56l-0.15-3.96c0,0,0.74-0.68,3.25-0.07c2.5,0.61,12.79-0.6,12.79-0.6s5.82-0.35,6.22,1.14
		c0.41,1.49,0,2.91,0,2.91s-2.71,0.81-3.25,0.88c-0.54,0.07,0-1.15-0.68-1.15c-0.68,0-7.1,1.35-8.8,1.15
		c-1.69-0.2-2.71,1.15-2.64,1.76s0.14,14.14,0.14,14.14s-0.41,2.71-4.26,2.57c-3.86-0.14-10.22-3.32-11.5-2.98
		c-1.29,0.34,1.42-13.87,0.68-14.68c-0.74-0.81-16.44-1.76-17.39-1.89c-0.95-0.14-3.59-0.61-4.6-0.41
		C1453.07,2349.84,1454.08,2346.52,1454.08,2346.52z"/>
	
		<rect x="1477.05" y="2344.11" transform="matrix(0.9989 0.0474 -0.0474 0.9989 112.9155 -67.4359)" class="st10" width="0.99" height="3.32"/>
	
		<rect x="1459.61" y="2343.72" transform="matrix(0.9989 0.0474 -0.0474 0.9989 112.8774 -66.6092)" class="st10" width="0.99" height="3.32"/>
	<rect x="1485.24" y="2343.71" class="st10" width="0.99" height="3.32"/>
	<rect x="1501.08" y="2343.71" class="st10" width="0.99" height="3.32"/>
	<rect x="1534.71" y="2341.28" class="st10" width="0.99" height="3.32"/>
	<path class="st9" d="M1435.32,2344.69c0,0,6.06,1.23,8.03,0.96s4.17,0.04,4.17,0.04s0.94,9.75-0.81,11.32c0,0-2.87-0.67-4.26-0.36
		s-7.41-0.36-7.41-0.36S1436.22,2347,1435.32,2344.69z"/>
	
		<rect x="1445.09" y="2343.03" transform="matrix(0.9989 0.0474 -0.0474 0.9989 112.8283 -65.9213)" class="st10" width="0.99" height="3.32"/>
	
		<rect x="1436.97" y="2342.2" transform="matrix(0.9989 0.0474 -0.0474 0.9989 112.7802 -65.537)" class="st10" width="0.99" height="3.32"/>
</g>
</svg>
