<?xml version="1.0" encoding="utf-8"?>
<!-- Generator: Adobe Illustrator 23.0.2, SVG Export Plug-In . SVG Version: 6.00 Build 0)  -->
<svg version="1.1" id="Layer_4_-_building_silhouettes"
	 xmlns="http://www.w3.org/2000/svg" xmlns:xlink="http://www.w3.org/1999/xlink" x="0px" y="0px" viewBox="0 0 2796.94 3120.78"
	 style="enable-background:new 0 0 2796.94 3120.78;" xml:space="preserve">
<style type="text/css">
	.st0{opacity:0.69;fill:#9E6D79;}
	.st1{opacity:0.46;fill:#BF606B;}
	.st2{opacity:0.36;fill:#BF606B;}
</style>
<polygon class="st0" points="1124.02,1168.23 1124.02,1179.08 1104.59,1179.08 1104.59,1203.34 1094.21,1203.34 1094.21,2957.38 
	659.65,2957.38 659.65,1203.34 649.26,1203.34 649.26,1179.08 627.29,1179.08 627.29,1168.23 649.26,1168.23 649.26,1143.97 
	659.65,1143.97 659.65,1135.85 1094.21,1135.85 1094.21,1143.97 1104.59,1143.97 1104.59,1168.23 "/>
<polygon class="st0" points="2139.46,843.67 2139.46,2957.38 1838.44,2957.38 1838.44,2832.4 1814.44,2832.4 1814.44,2820.71 
	1838.44,2820.71 1838.44,2682.65 1814.44,2682.65 1814.44,2670.95 1838.44,2670.95 1838.44,2532.9 1814.44,2532.9 1814.44,2521.2 
	1838.44,2521.2 1838.44,2383.15 1814.44,2383.15 1814.44,2371.46 1838.44,2371.46 1838.44,2233.4 1814.44,2233.4 1814.44,2221.71 
	1838.44,2221.71 1838.44,2083.66 1814.44,2083.66 1814.44,2071.96 1838.44,2071.96 1838.44,1933.91 1814.44,1933.91 
	1814.44,1922.21 1838.44,1922.21 1838.44,1784.16 1814.44,1784.16 1814.44,1772.46 1838.44,1772.46 1838.44,1634.41 
	1814.44,1634.41 1814.44,1622.72 1838.44,1622.72 1838.44,1484.66 1814.44,1484.66 1814.44,1472.97 1838.44,1472.97 
	1838.44,1334.92 1814.44,1334.92 1814.44,1323.22 1838.44,1323.22 1838.44,1185.17 1814.44,1185.17 1814.44,1173.47 
	1838.44,1173.47 1838.44,1035.42 1814.44,1035.42 1814.44,1023.72 1838.44,1023.72 1838.44,885.67 1814.44,885.67 1814.44,873.97 
	1838.44,873.97 1838.44,843.67 "/>
<path class="st1" d="M1873.01,1432.03v1525.35h-421.7v-266.65c-25.55,6.39-51.55,11.5-77.87,15.23
	c-93.08,13.22-189.4,9.72-280.62-10.37c-2.82-0.62-1.61-1.41,1.22-0.79c25.64,5.65,51.67,10.02,77.98,13.04
	c93.07,10.69,188.79,4.46,278.63-18.03c0.24-0.06,0.47-0.09,0.67-0.09v-602.39c-22.07,11.15-45.24,20.75-69.15,28.98
	c-91.29,31.39-190.23,42.31-287.68,52.99c-2.55,0.28-3.11-0.58-0.6-0.85c28.36-3.12,56.74-6.23,85.01-9.86
	c94.41-12.12,189.62-30.64,271.56-72.41c0.3-0.15,0.59-0.24,0.86-0.28v-184.11c-25.15,4.32-50.55,7.65-76.1,9.95
	c-93.41,8.38-188.5,2.84-279.53-16.17c-2.84-0.59-1.62-1.39,1.2-0.8c25.31,5.28,50.91,9.56,76.73,12.75
	c91.94,11.36,186.27,9.05,277.24-6.65c0.16-0.03,0.32-0.05,0.47-0.05v-406.72c-26.34,7.85-53.1,14.72-80.24,20.52
	c-48.25,10.32-97.69,17.52-147.41,20.92c-44.01,3-90.6,2.78-129.83-15.68c-2.53-1.2-0.25-2.54,2.3-1.35
	c22.22,10.46,47.3,15.35,72.73,16.83c46.94,2.72,95.25-3.39,141.25-10.5c48.05-7.44,95.28-18.14,141.2-31.87v-60.93H1873.01z"/>
<rect x="545.18" y="882.48" class="st2" width="371.1" height="2074.91"/>
</svg>
